<svg xmlns="http://www.w3.org/2000/svg" width="18.838" height="18.89" viewBox="0 0 18.838 18.89">
  <g id="sidebar1" transform="translate(-56.787 -205.664)">
    <path id="Path_34413" data-name="Path 34413" d="M7.04,19.088H5.288C1.424,19.088.25,17.914.25,14.05V5.288C.25,1.424,1.424.25,5.288.25H6.6A2.709,2.709,0,0,1,9.231,1.564l1.314,1.752c.289.386.333.438.876.438H14.05c3.864,0,5.038,1.174,5.038,5.038v1.752a.657.657,0,1,1-1.314,0V8.793c0-3.128-.587-3.724-3.724-3.724H11.421a2.012,2.012,0,0,1-1.928-.964L8.179,2.353A1.474,1.474,0,0,0,6.6,1.564H5.288c-3.137,0-3.724.6-3.724,3.724V14.05c0,3.128.587,3.724,3.724,3.724H7.04a.657.657,0,0,1,0,1.314Z" transform="translate(56.537 205.414)" fill="#2a45c4"/>
    <path id="Path_34414" data-name="Path 34414" d="M17.337,20.626h-4.9a2.3,2.3,0,0,1-.789-4.425,3.23,3.23,0,0,1,.815-2.874,3.6,3.6,0,0,1,3.575-.938,3.27,3.27,0,0,1,2.19,2.383,2.93,2.93,0,0,1,1.945,2,2.983,2.983,0,0,1-2.839,3.855Zm-4.863-3.277a.983.983,0,0,0,.018,1.963H17.32a1.6,1.6,0,0,0,1.157-.438,1.69,1.69,0,0,0-.867-2.891.66.66,0,0,1-.57-.543,2.032,2.032,0,0,0-1.376-1.787,2.266,2.266,0,0,0-2.234.587,2.015,2.015,0,0,0-.333,2.234.657.657,0,0,1-.394.841A.722.722,0,0,1,12.474,17.349Z" transform="translate(55.3 203.929)" fill="#65e33f"/>
  </g>
</svg>
