<svg xmlns="http://www.w3.org/2000/svg" width="24.055" height="15.055" viewBox="0 0 24.055 15.055">
  <g id="showpass" transform="translate(-305.473 -367.473)">
    <g id="Group_21413" data-name="Group 21413" transform="translate(205.987 36.61)">
      <path id="Path_39658" data-name="Path 39658" d="M251.528,406.28a2.665,2.665,0,0,0,2.665-2.665v-.1a1.935,1.935,0,0,1-2.562-2.563h-.1a2.665,2.665,0,1,0,0,5.331Zm0,0" transform="translate(-139.653 -65.224)" fill="#c8cdce"/>
      <path id="Path_39659" data-name="Path 39659" d="M122.558,338.056a12.335,12.335,0,0,0-21.365,0l-.193.334.193.334a12.335,12.335,0,0,0,21.365,0l.193-.334Zm-5.515.334a5.167,5.167,0,1,1-5.167-5.167A5.167,5.167,0,0,1,117.043,338.39Zm-14.5,0a11.034,11.034,0,0,1,4.078-3.827,6.485,6.485,0,0,0,0,7.653,11.031,11.031,0,0,1-4.078-3.827Zm14.579,3.827a6.485,6.485,0,0,0,0-7.653,11.033,11.033,0,0,1,4.078,3.827,11.03,11.03,0,0,1-4.078,3.827Zm0,0" fill="#c8cdce"/>
    </g>
    <line id="Line_1298" data-name="Line 1298" y1="13" x2="22" transform="translate(306.5 368.5)" fill="none" stroke="#c8cdce" stroke-linecap="round" stroke-width="1.5"/>
  </g>
</svg>
