<svg xmlns="http://www.w3.org/2000/svg" width="19.304" height="21.66" viewBox="0 0 19.304 21.66">
  <g id="bell" transform="translate(-379.348 -66.34)">
    <path id="Path_33630" data-name="Path 33630" d="M12,10.52a.755.755,0,0,1-.75-.75V6.44a.75.75,0,0,1,1.5,0V9.77A.749.749,0,0,1,12,10.52Z" transform="translate(376.997 65.1)" fill="#65e33f"/>
    <path id="Path_33631" data-name="Path 33631" d="M12,22.9a4.1,4.1,0,0,1-4.08-4.08h1.5a2.58,2.58,0,1,0,5.16,0h1.5A4.084,4.084,0,0,1,12,22.9Z" transform="translate(376.997 65.1)" fill="#65e33f"/>
    <path id="Path_33632" data-name="Path 33632" d="M12.02,20.35a23.953,23.953,0,0,1-7.6-1.23,2.97,2.97,0,0,1-1.9-1.77,3.008,3.008,0,0,1,.29-2.58l1.27-2.12a4.508,4.508,0,0,0,.53-1.9V8.65a7.41,7.41,0,1,1,14.82,0v2.1a4.549,4.549,0,0,0,.53,1.9l1.27,2.12a2.972,2.972,0,0,1-1.61,4.35A23.675,23.675,0,0,1,12.02,20.35Zm0-17.6A5.915,5.915,0,0,0,6.11,8.66v2.1a5.94,5.94,0,0,1-.74,2.67L4.1,15.56a1.384,1.384,0,0,0,.8,2.15,22.725,22.725,0,0,0,14.26,0,1.423,1.423,0,0,0,.91-.88,1.46,1.46,0,0,0-.12-1.27l-1.27-2.12a5.94,5.94,0,0,1-.74-2.67V8.67A5.932,5.932,0,0,0,12.02,2.75Z" transform="translate(376.997 65.1)" fill="#001165"/>
  </g>
</svg>
