<svg xmlns="http://www.w3.org/2000/svg" width="22.858" height="26.14" viewBox="0 0 22.858 26.14">
  <g id="Group_30013" data-name="Group 30013" transform="translate(11083 -4334)">
    <path id="Path_49159" data-name="Path 49159" d="M2.553,329.191.081,334.134a.766.766,0,0,0,.685,1.108H4.485l2.231,2.975a.766.766,0,0,0,1.3-.117l2.33-4.659a11.311,11.311,0,0,1-7.789-4.251" transform="translate(-11083 4021.615)" fill="#9ca3af"/>
    <path id="Path_49160" data-name="Path 49160" d="M255.417,334.134l-2.472-4.943a11.311,11.311,0,0,1-7.789,4.251l2.33,4.659a.766.766,0,0,0,1.3.117l2.231-2.975h3.719a.766.766,0,0,0,.685-1.108" transform="translate(-11315.641 4021.615)" fill="#9ca3af"/>
    <path id="Path_49161" data-name="Path 49161" d="M149.17,109.587l-1.282-2.048-1.281,2.048a.766.766,0,0,1-.463.337l-2.343.586,1.551,1.851a.765.765,0,0,1,.177.545l-.167,2.41,2.24-.9a.766.766,0,0,1,.573,0l2.24.9-.167-2.41a.766.766,0,0,1,.177-.545l1.551-1.851-2.343-.586a.766.766,0,0,1-.463-.337" transform="translate(-11219.46 4231.951)" fill="#9ca3af"/>
    <path id="Path_49162" data-name="Path 49162" d="M51.71,9.789a9.789,9.789,0,1,0-9.789,9.789A9.8,9.8,0,0,0,51.71,9.789M47.97,8.506l-2.139,2.553.23,3.322a.766.766,0,0,1-1.05.763L41.922,13.9l-3.089,1.245a.766.766,0,0,1-1.05-.763l.23-3.322L35.874,8.506a.766.766,0,0,1,.4-1.235l3.23-.808,1.767-2.823a.766.766,0,0,1,1.3,0l1.767,2.823,3.23.808a.766.766,0,0,1,.4,1.235" transform="translate(-11113.492 4334)" fill="#6265fe"/>
    <rect id="Rectangle_14114" data-name="Rectangle 14114" width="22.858" height="26.139" transform="translate(-11083 4334)" fill="none"/>
  </g>
</svg>
