<svg xmlns="http://www.w3.org/2000/svg" xmlns:xlink="http://www.w3.org/1999/xlink" width="30" height="36" viewBox="0 0 30 36">
  <defs>
    <clipPath id="clip-path">
      <rect id="Rectangle_13535" data-name="Rectangle 13535" width="30" height="36" fill="#b773ea"/>
    </clipPath>
  </defs>
  <g id="Group_29170" data-name="Group 29170" transform="translate(0.073)">
    <g id="Group_28682" data-name="Group 28682" transform="translate(-0.073 0)" clip-path="url(#clip-path)">
      <path id="Path_47561" data-name="Path 47561" d="M24.4,4.324A15.178,15.178,0,0,0,11.934,1.268,14.806,14.806,0,0,0,.4,12.362,14.569,14.569,0,0,0,5.853,27.306a25.026,25.026,0,0,1,6.5,6.881l1.16,1.9a1.669,1.669,0,0,0,2.839,0l1.112-1.824a20.862,20.862,0,0,1,5.927-6.527A14.539,14.539,0,0,0,24.4,4.316ZM14.926,22.193A6.628,6.628,0,0,1,8.8,18.164a6.456,6.456,0,0,1,1.436-7.113,6.7,6.7,0,0,1,7.221-1.415,6.513,6.513,0,0,1-2.536,12.557" transform="translate(0.022 -0.879)" fill="#b773ea"/>
    </g>
  </g>
</svg>
