<svg xmlns="http://www.w3.org/2000/svg" xmlns:xlink="http://www.w3.org/1999/xlink" width="28" height="28" viewBox="0 0 28 28">
  <defs>
    <clipPath id="clip-path">
      <rect id="Rectangle_5951" data-name="Rectangle 5951" width="28" height="28" transform="translate(0 0.333)" fill="#65e33f"/>
    </clipPath>
  </defs>
  <g id="Group_16063" data-name="Group 16063" transform="translate(-244 -121.609)">
    <g id="Group_16062" data-name="Group 16062" transform="translate(244 121.276)">
      <g id="Group_16061" data-name="Group 16061" transform="translate(0 0)" clip-path="url(#clip-path)">
        <path id="Path_33827" data-name="Path 33827" d="M259.122,121.276A14.126,14.126,0,1,0,273.249,135.4a14.127,14.127,0,0,0-14.126-14.126Zm4.761,18.887a1.284,1.284,0,0,1-1.816,0l-3.853-3.853a1.284,1.284,0,0,1-.376-.908V127.7a1.284,1.284,0,0,1,2.568,0v7.174l3.476,3.476a1.284,1.284,0,0,1,0,1.816Zm0,0" transform="translate(-244.916 -121.276)" fill="#65e33f"/>
      </g>
    </g>
  </g>
</svg>
