<svg xmlns="http://www.w3.org/2000/svg" width="18.759" height="21.51" viewBox="0 0 18.759 21.51">
  <g id="sidebar5" transform="translate(-56.179 -435.227)">
    <path id="Path_33884" data-name="Path 33884" d="M10,21.76a5.971,5.971,0,0,1-4.13-1.67C2.92,17.25-.34,12.72.89,7.33A9.116,9.116,0,0,1,10,.25h.01a9.115,9.115,0,0,1,9.11,7.09c1.22,5.39-2.04,9.91-4.99,12.75A5.971,5.971,0,0,1,10,21.76ZM10,1.75A7.552,7.552,0,0,0,2.36,7.66C1.28,12.37,4.24,16.43,6.92,19a4.426,4.426,0,0,0,6.17,0c2.67-2.57,5.63-6.63,4.57-11.34A7.58,7.58,0,0,0,10,1.75Z" transform="translate(55.556 434.977)" fill="#2a45c4"/>
    <path id="Path_33885" data-name="Path 33885" d="M8.75,12.75a.742.742,0,0,1-.53-.22l-1.5-1.5A.75.75,0,1,1,7.78,9.97l.97.97,3.47-3.47a.75.75,0,0,1,1.06,1.06l-4,4A.742.742,0,0,1,8.75,12.75Z" transform="translate(55.556 434.977)" fill="#65e33f"/>
  </g>
</svg>
