<svg xmlns="http://www.w3.org/2000/svg" xmlns:xlink="http://www.w3.org/1999/xlink" width="29" height="29" viewBox="0 0 29 29">
  <defs>
    <clipPath id="clip-path">
      <rect id="Rectangle_5952" data-name="Rectangle 5952" width="29" height="29" transform="translate(0 -0.333)" fill="#65e33f"/>
    </clipPath>
  </defs>
  <g id="Group_16066" data-name="Group 16066" transform="translate(-240 -116.942)">
    <g id="Group_16065" data-name="Group 16065" transform="translate(240 117.276)">
      <g id="Group_16064" data-name="Group 16064" transform="translate(0 0)" clip-path="url(#clip-path)">
        <path id="Path_33828" data-name="Path 33828" d="M255.289,117.276a14.294,14.294,0,1,0,14.294,14.294,14.293,14.293,0,0,0-14.294-14.294Zm.613,8.78a4.907,4.907,0,0,1,4.9,4.9h-1.226a3.679,3.679,0,0,0-3.675-3.675Zm3.969,14.09c-.037,0-3.716-.063-8.447-4.71-4.647-4.729-4.71-8.41-4.71-8.447,0-.459,2.859-3.995,3.491-3.995.219,0,.39.149.576.372.45.536,2.439,3.674,2.347,4.2-.044.246-.252.433-.851.935a7.081,7.081,0,0,0-.825.762,6.571,6.571,0,0,0,.539,1.454,8.989,8.989,0,0,0,4.157,4.155,6.568,6.568,0,0,0,1.454.539,7.078,7.078,0,0,0,.762-.825c.5-.6.689-.807.935-.851.523-.1,3.662,1.9,4.2,2.347.223.191.372.357.372.576,0,.632-3.538,3.491-4,3.491Zm2.769-9.189a6.745,6.745,0,0,0-6.738-6.738v-1.226a7.973,7.973,0,0,1,7.964,7.964Zm0,0" transform="translate(-240.916 -117.276)" fill="#65e33f"/>
      </g>
    </g>
  </g>
</svg>
