<svg id="Group_29652" data-name="Group 29652" xmlns="http://www.w3.org/2000/svg" width="20" height="24.08" viewBox="0 0 20 24.08">
  <path id="Path_47561" data-name="Path 47561" d="M16.371,3.223a10.181,10.181,0,0,0-8.36-2.05A9.931,9.931,0,0,0,.274,8.614,9.773,9.773,0,0,0,3.932,18.638a16.787,16.787,0,0,1,4.357,4.616l.778,1.274a1.12,1.12,0,0,0,1.9,0l.746-1.224a13.994,13.994,0,0,1,3.975-4.378,9.752,9.752,0,0,0,.68-15.709ZM10.018,15.209a4.446,4.446,0,0,1-4.106-2.7,4.33,4.33,0,0,1,.964-4.771,4.494,4.494,0,0,1,4.843-.949,4.369,4.369,0,0,1-1.7,8.423" transform="translate(-0.019 -0.979)" fill="#00c7eb"/>
</svg>
