<svg xmlns="http://www.w3.org/2000/svg" width="15.356" height="14.544" viewBox="0 0 15.356 14.544">
  <g id="tohirgoo3" transform="translate(-59.311 -415)">
    <path id="Path_33906" data-name="Path 33906" d="M9.926,12.6A2.676,2.676,0,1,1,12.6,9.926,2.677,2.677,0,0,1,9.926,12.6Zm0-4.281a1.606,1.606,0,1,0,1.606,1.606A1.608,1.608,0,0,0,9.926,8.32Z" transform="translate(57.056 412.344)" fill="#65e33f"/>
    <path id="Path_33907" data-name="Path 33907" d="M10.211,15.353a1.941,1.941,0,0,1-.45-.057A1.752,1.752,0,0,1,8.713,14.5l-.086-.143c-.421-.728-1-.728-1.42,0l-.078.136a1.711,1.711,0,0,1-1.049.8,1.671,1.671,0,0,1-1.306-.178l-1.227-.706a1.893,1.893,0,0,1-.7-2.583.955.955,0,0,0,.143-.9.951.951,0,0,0-.849-.328A1.894,1.894,0,0,1,.25,8.71V7.454A1.894,1.894,0,0,1,2.141,5.563a.951.951,0,0,0,.849-.328.935.935,0,0,0-.143-.9A1.9,1.9,0,0,1,2.662,2.9a1.841,1.841,0,0,1,.885-1.149l1.234-.706a1.729,1.729,0,0,1,2.355.621l.086.143c.421.728,1,.728,1.42,0l.078-.136a1.723,1.723,0,0,1,2.362-.621l1.227.706a1.893,1.893,0,0,1,.7,2.583.955.955,0,0,0-.143.9.951.951,0,0,0,.849.328,1.894,1.894,0,0,1,1.891,1.891V8.717a1.894,1.894,0,0,1-1.891,1.891.951.951,0,0,0-.849.328.935.935,0,0,0,.143.9,1.867,1.867,0,0,1,.186,1.434,1.841,1.841,0,0,1-.885,1.149l-1.234.706A1.776,1.776,0,0,1,10.211,15.353Zm-2.291-2.64a1.944,1.944,0,0,1,1.634,1.106l.078.136a.654.654,0,0,0,.885.235l1.234-.714a.825.825,0,0,0,.385-.5.815.815,0,0,0-.078-.621,1.959,1.959,0,0,1-.143-1.969,1.949,1.949,0,0,1,1.777-.863.816.816,0,0,0,.821-.821V7.447a.821.821,0,0,0-.821-.821,1.949,1.949,0,0,1-1.777-.863,1.959,1.959,0,0,1,.143-1.969.815.815,0,0,0,.078-.621.835.835,0,0,0-.378-.5l-1.234-.706a.657.657,0,0,0-.9.235l-.078.136A1.944,1.944,0,0,1,7.914,3.444,1.944,1.944,0,0,1,6.28,2.337L6.2,2.195a.655.655,0,0,0-.885-.228L4.082,2.68a.825.825,0,0,0-.385.5.815.815,0,0,0,.078.621A1.959,1.959,0,0,1,3.918,5.77a1.949,1.949,0,0,1-1.777.863.816.816,0,0,0-.821.821V8.71a.821.821,0,0,0,.821.821,1.949,1.949,0,0,1,1.777.863,1.959,1.959,0,0,1-.143,1.969.815.815,0,0,0-.078.621.835.835,0,0,0,.378.5l1.234.706a.631.631,0,0,0,.492.071.677.677,0,0,0,.407-.307l.078-.136A1.959,1.959,0,0,1,7.921,12.713Z" transform="translate(59.061 414.188)" fill="#fff"/>
  </g>
</svg>
