<svg xmlns="http://www.w3.org/2000/svg" width="18.999" height="18.999" viewBox="0 0 18.999 18.999">
  <g id="Group_28624" data-name="Group 28624" transform="translate(0 0)">
    <g id="Group_28956" data-name="Group 28956" transform="translate(0 0)">
      <path id="Path_47543" data-name="Path 47543" d="M19,18.827H.01c0-.071-.01-.131-.01-.19V5.057A1.981,1.981,0,0,1,2.052,2.993q3.238-.008,6.476,0c.054,0,.108.006.172.011V3.79H8.475c-2.133,0-4.267,0-6.4,0a1.22,1.22,0,0,0-1.092.551c.043.048.079.09.117.128q3.2,3.2,6.4,6.4a2.757,2.757,0,0,0,3.837.116c.385-.356.739-.748,1.1-1.129a.225.225,0,0,1,.286-.066c.213.079.434.136.649.2,0,.015,0,.031,0,.036-.5.519-.986,1.062-1.517,1.551a3.546,3.546,0,0,1-4.9-.14q-2.806-2.8-5.6-5.6c-.175-.175-.347-.35-.549-.553V18.024h17.4V17.8q0-4.332,0-8.665a.391.391,0,0,1,.163-.341c.219-.181.421-.382.629-.575Z" transform="translate(0 0.172)" fill="#fff"/>
      <path id="Path_47544" data-name="Path 47544" d="M18.439,2.56a1.762,1.762,0,0,1-.264.389.744.744,0,0,1-.423.2c-.815.019-1.631.01-2.461.01V2.385h1.7C16.73,1.464,14.967.655,13.61.821a3.565,3.565,0,0,0-.16,7.039,3.547,3.547,0,0,0,4.161-3.1H18.4A4.256,4.256,0,0,1,18,6.233a4.349,4.349,0,1,1-4.437-6.2A.854.854,0,0,0,13.689,0h.816a.526.526,0,0,0,.1.033,4.222,4.222,0,0,1,2.934,1.692c.024.032.052.061.117.139V0h.779Z" transform="translate(0.56 0)" fill="#fff"/>
    </g>
  </g>
</svg>
