<svg id="Group_28958" data-name="Group 28958" xmlns="http://www.w3.org/2000/svg" xmlns:xlink="http://www.w3.org/1999/xlink" width="20.659" height="25.75" viewBox="0 0 20.659 25.75">
  <defs>
    <clipPath id="clip-path">
      <rect id="Rectangle_13736" data-name="Rectangle 13736" width="20.659" height="25.75" fill="#fff"/>
    </clipPath>
  </defs>
  <g id="Group_28957" data-name="Group 28957" clip-path="url(#clip-path)">
    <path id="Path_47665" data-name="Path 47665" d="M19.661,14.588a1.583,1.583,0,0,0-.179-2.345A1.584,1.584,0,0,0,18.2,9.578l-.133.01v-.26l1.985-1.457.015-.011A1.584,1.584,0,1,0,18.08,5.4l-.009.007v-3.6A1.907,1.907,0,0,0,16.082,0H7.474a1.907,1.907,0,0,0-1.99,1.806V7.862a1.908,1.908,0,0,0-1.166.089,1.577,1.577,0,0,0-.968,1.241,15.051,15.051,0,0,1-.58,1.971A23.822,23.822,0,0,0,1.9,14.187,18.918,18.918,0,0,0,1.606,17.5L.1,19.181a.41.41,0,1,0,.612.547l1.608-1.8a.412.412,0,0,0,.1-.283A18.248,18.248,0,0,1,2.7,14.337a23.206,23.206,0,0,1,.842-2.912A15.007,15.007,0,0,0,4.16,9.317a.754.754,0,0,1,.473-.609,1.085,1.085,0,0,1,1.015.107l.005,0a4.833,4.833,0,0,1,.36,2.424,6.821,6.821,0,0,1-.463,2.834.41.41,0,0,0,.008.46,9.842,9.842,0,0,1,.982,7.039.411.411,0,0,0,.33.478.438.438,0,0,0,.074.007.41.41,0,0,0,.4-.336c.028-.153.052-.3.074-.451h5.525a4.382,4.382,0,0,1-2.257,1.813,5.349,5.349,0,0,1-2.971.394.411.411,0,0,0-.371.119l-1.4,1.454a.41.41,0,1,0,.591.569l1.254-1.3a6.029,6.029,0,0,0,3.264-.5c1.471-.735,2.37-1.376,2.776-2.547h2.248a1.907,1.907,0,0,0,1.99-1.807v-2l.752-.052a1.584,1.584,0,0,0,.837-2.827m-.389-1.155a.763.763,0,0,1-.69.824l-.51.031V12.766l.382-.03a.762.762,0,0,1,.818.7m-1-3.036a.763.763,0,0,1,.12,1.521l-.318.025v-1.53ZM18.6,6.029a.763.763,0,0,1,.959,1.187L18.072,8.31V6.5ZM7.474.821h8.608a1.09,1.09,0,0,1,1.169.986v.4H6.3v-.4A1.091,1.091,0,0,1,7.474.821M6.367,14.283c.571-1.314.721-4.934-.063-5.959V3.032H17.251V6.238a.412.412,0,0,0-.007.049.407.407,0,0,0,.007.112V17.065c0,.01,0,.021,0,.031s0,0,0,.006v1.019H7.518a9.527,9.527,0,0,0-1.151-3.838m9.715,6.171H7.521a12.861,12.861,0,0,0,.049-1.512h9.681v.526a1.09,1.09,0,0,1-1.169.986M18.763,16.6l-.692.048V15.12l.567-.045a.763.763,0,0,1,.125,1.521" transform="translate(0)" fill="#fff"/>
  </g>
</svg>
