<svg xmlns="http://www.w3.org/2000/svg" xmlns:xlink="http://www.w3.org/1999/xlink" width="22" height="21.997" viewBox="0 0 22 21.997">
  <defs>
    <clipPath id="clip-path">
      <rect id="Rectangle_13465" data-name="Rectangle 13465" width="22" height="21.997" fill="#fff"/>
    </clipPath>
  </defs>
  <g id="Group_28622" data-name="Group 28622" transform="translate(-156 -405)">
    <g id="Group_28608" data-name="Group 28608" transform="translate(156 405)">
      <g id="Group_28607" data-name="Group 28607" transform="translate(0 0)" clip-path="url(#clip-path)">
        <path id="Path_47530" data-name="Path 47530" d="M11.6,0c.051.037.1.07.152.112A.439.439,0,0,1,11.889.6a.415.415,0,0,1-.375.307,2.548,2.548,0,0,1-.258.007q-3.534,0-7.068,0A3.183,3.183,0,0,0,1.1,3.08,3.579,3.579,0,0,0,.921,4.173C.908,7.9.913,11.634.913,15.364c0,.063.007.126.011.2H13.75c0-.146,0-.287,0-.428a.463.463,0,0,1,.452-.477.451.451,0,0,1,.456.469c0,1.031.03,2.063-.016,3.093a4.108,4.108,0,0,1-3.518,3.727,6.427,6.427,0,0,1-.728.043q-3.1.005-6.209,0A4.137,4.137,0,0,1,0,17.824Q0,11,0,4.185A4.115,4.115,0,0,1,3.6.036.491.491,0,0,0,3.7,0ZM.913,16.5c0,.46,0,.9,0,1.344a3.206,3.206,0,0,0,3.215,3.23q3.211.023,6.422,0a3.2,3.2,0,0,0,3.053-2.25,8.883,8.883,0,0,0,.149-2.324Z" transform="translate(0.001 0)" fill="#fff"/>
        <path id="Path_47531" data-name="Path 47531" d="M33.819,21.787c-.036.159-.066.319-.108.476a3.216,3.216,0,0,1-3.184,2.39q-4.812,0-9.623,0c-1.031,0-2.062.006-3.093,0a3.2,3.2,0,0,1-3.171-2.565,3.354,3.354,0,0,1-.067-.682q-.01-1.793,0-3.587a3.2,3.2,0,0,1,3.256-3.249q6.347,0,12.695,0a3.2,3.2,0,0,1,3.264,2.759.333.333,0,0,0,.034.076Zm-9.634,1.944q3.135,0,6.271,0a3.08,3.08,0,0,0,.535-.032,2.287,2.287,0,0,0,1.914-2.322c.005-1.159,0-2.319,0-3.478a2.3,2.3,0,0,0-2.42-2.414q-6.293,0-12.585,0A2.305,2.305,0,0,0,15.483,17.9q0,1.718,0,3.436a2.791,2.791,0,0,0,.059.6,2.273,2.273,0,0,0,2.326,1.8q3.157,0,6.314,0" transform="translate(-11.819 -11.82)" fill="#fff"/>
        <path id="Path_47532" data-name="Path 47532" d="M32.97,95.619c-.294,0-.587,0-.881,0a.441.441,0,0,1-.474-.445.447.447,0,0,1,.48-.464q.891-.007,1.783,0a.457.457,0,0,1,.48.448.463.463,0,0,1-.486.462h-.9" transform="translate(-25.649 -76.835)" fill="#fff"/>
        <path id="Path_47533" data-name="Path 47533" d="M28.046,33.536c-.37-.366-.7-.686-1.021-1.009a.473.473,0,0,1-.068-.7.462.462,0,0,1,.714.053c.324.323.644.649.989,1l.792-.8c.081-.081.159-.164.244-.242a.449.449,0,0,1,.653-.023.455.455,0,0,1-.008.67c-.257.269-.524.528-.788.79-.076.075-.158.145-.258.236.326.324.635.63.943.937.288.287.331.549.126.761s-.487.175-.778-.118-.6-.61-.921-.931c-.333.334-.651.659-.978.977a.8.8,0,0,1-.279.188.437.437,0,0,1-.517-.2.45.45,0,0,1,.075-.552c.283-.293.573-.58.864-.866a2.3,2.3,0,0,1,.215-.164" transform="translate(-21.766 -25.704)" fill="#fff"/>
        <path id="Path_47534" data-name="Path 47534" d="M86.311,33.511c-.333-.329-.643-.635-.952-.942-.27-.269-.308-.541-.106-.746s.47-.184.745.091c.313.313.625.626.954.956.345-.345.677-.677,1.009-1.01a.472.472,0,0,1,.461-.165.458.458,0,0,1,.208.79c-.281.3-.575.578-.863.867-.05.05-.1.1-.16.169l.838.836c.061.061.123.12.182.183a.458.458,0,1,1-.645.648c-.287-.279-.569-.564-.85-.85a2.509,2.509,0,0,1-.164-.208c-.37.376-.708.726-1.053,1.067a.459.459,0,0,1-.551.091.422.422,0,0,1-.226-.486.757.757,0,0,1,.187-.3c.317-.329.644-.648.987-.99" transform="translate(-69.06 -25.703)" fill="#fff"/>
        <path id="Path_47535" data-name="Path 47535" d="M57.056,33.51c-.358-.357-.7-.687-1.026-1.024a.453.453,0,0,1,.056-.735.447.447,0,0,1,.585.085c.292.284.578.576.867.863.049.049.1.1.169.157.335-.336.663-.664.99-.992a.49.49,0,0,1,.459-.176.456.456,0,0,1,.227.783c-.274.292-.563.57-.848.852-.056.055-.122.1-.207.169l.767.762c.091.091.185.18.272.274a.459.459,0,1,1-.648.646c-.3-.29-.588-.586-.882-.879-.04-.04-.082-.077-.143-.134-.31.312-.616.62-.923.927-.286.286-.552.329-.763.124s-.183-.475.119-.777l.929-.925" transform="translate(-45.326 -25.701)" fill="#fff"/>
      </g>
    </g>
  </g>
</svg>
