<svg xmlns="http://www.w3.org/2000/svg" width="20" height="20" viewBox="0 0 20 20">
  <g id="Group_28799" data-name="Group 28799" transform="translate(818 -4811.5)">
    <g id="Component_13_1" data-name="Component 13 – 1" transform="translate(-817.999 4811.5)">
      <path id="Path_47628" data-name="Path 47628" d="M19.081,9a.948.948,0,0,0-1,1A8.034,8.034,0,0,1,2.009,10,7.85,7.85,0,0,1,4.321,4.4,7.682,7.682,0,0,1,10.043,2a12.534,12.534,0,0,1,1.909.2,1.012,1.012,0,0,0,1.3-.7c.2-.6-.2-1-.7-1.2h-.1A9.766,9.766,0,0,0,10.043,0,10.03,10.03,0,0,0,2.914,17.1,9.9,9.9,0,0,0,9.944,20,10.051,10.051,0,0,0,19.986,10a.874.874,0,0,0-.905-1" transform="translate(19.999 20) rotate(180)" fill="#8ee95d" opacity="0.15"/>
    </g>
    <g id="Path_47629" data-name="Path 47629" transform="translate(-814.065 4814.921)">
      <path id="Path_47629-2" data-name="Path 47629" d="M-769.625,4838.625a1.247,1.247,0,0,1-.823-.31L-774.23,4835a1.25,1.25,0,0,1-.117-1.764,1.25,1.25,0,0,1,1.764-.117l2.884,2.527c1.767-1.836,5.88-6.106,7.487-7.768a1.25,1.25,0,0,1,1.768-.029,1.25,1.25,0,0,1,.029,1.768c-2.061,2.13-8.248,8.558-8.31,8.623A1.247,1.247,0,0,1-769.625,4838.625Z" transform="translate(774.656 -4827.5)" fill="#8ee95d"/>
    </g>
    <g id="Component_12_1" data-name="Component 12 – 1" transform="translate(-818 4811.5)">
      <path id="Path_47627" data-name="Path 47627" d="M19.081,9a.948.948,0,0,0-1,1A8.034,8.034,0,0,1,2.009,10,7.85,7.85,0,0,1,4.321,4.4,7.682,7.682,0,0,1,10.043,2a12.534,12.534,0,0,1,1.909.2,1.012,1.012,0,0,0,1.3-.7c.2-.6-.2-1-.7-1.2h-.1A9.766,9.766,0,0,0,10.043,0,10.03,10.03,0,0,0,2.914,17.1,9.9,9.9,0,0,0,9.944,20,10.051,10.051,0,0,0,19.986,10a.874.874,0,0,0-.905-1" fill="#8ee95d"/>
    </g>
  </g>
</svg>
