<svg xmlns="http://www.w3.org/2000/svg" width="15.612" height="15.634" viewBox="0 0 15.612 15.634">
  <g id="tohirgoo5" transform="translate(-58.612 -749.1)">
    <path id="Path_33904" data-name="Path 33904" d="M15.312,12.7a1.824,1.824,0,0,1-.179.781,2.957,2.957,0,0,1-.487.731,3.231,3.231,0,0,1-1.175.846,3.6,3.6,0,0,1-1.4.272,5.972,5.972,0,0,1-2.336-.523,12.588,12.588,0,0,1-2.465-1.419A20.6,20.6,0,0,1,4.92,11.385a20.364,20.364,0,0,1-2-2.344A12.777,12.777,0,0,1,1.516,6.6,6.036,6.036,0,0,1,1,4.254a3.707,3.707,0,0,1,.258-1.383,3.3,3.3,0,0,1,.824-1.2A2.1,2.1,0,0,1,3.573,1a1.347,1.347,0,0,1,.581.129,1.168,1.168,0,0,1,.48.4L6.3,3.874a2.453,2.453,0,0,1,.287.5,1.133,1.133,0,0,1,.1.437.973.973,0,0,1-.151.509,2.438,2.438,0,0,1-.4.509L5.587,6.4a.384.384,0,0,0-.115.287.651.651,0,0,0,.022.165c.022.057.043.1.057.143a5.947,5.947,0,0,0,.667.917c.323.373.667.753,1.039,1.132s.76.731,1.14,1.054a5.5,5.5,0,0,0,.925.659c.036.014.079.036.129.057a.5.5,0,0,0,.179.029.394.394,0,0,0,.294-.122l.545-.538a2.2,2.2,0,0,1,.516-.4.954.954,0,0,1,.509-.151,1.144,1.144,0,0,1,.437.093,2.772,2.772,0,0,1,.5.28L14.8,11.686a1.087,1.087,0,0,1,.394.459A1.47,1.47,0,0,1,15.312,12.7Z" transform="translate(58.262 748.75)" fill="none" stroke="#fff" stroke-width="1.3"/>
    <path id="Path_33905" data-name="Path 33905" d="M17.64,3H14.2m3.44,0V3Z" transform="translate(54.522 748.183)" fill="none" stroke="#65e33f" stroke-linecap="round" stroke-linejoin="round" stroke-width="1.3"/>
  </g>
</svg>
