<svg xmlns="http://www.w3.org/2000/svg" xmlns:xlink="http://www.w3.org/1999/xlink" width="16" height="16" viewBox="0 0 16 16">
  <defs>
    <clipPath id="clip-path">
      <rect id="Rectangle_13881" data-name="Rectangle 13881" width="16" height="16" fill="#fff"/>
    </clipPath>
  </defs>
  <g id="Group_29599" data-name="Group 29599" opacity="0.5">
    <g id="Group_29599-2" data-name="Group 29599" clip-path="url(#clip-path)">
      <path id="Path_47891" data-name="Path 47891" d="M13.238,0H5.962A2.765,2.765,0,0,0,3.2,2.762V3.2H2.762A2.765,2.765,0,0,0,0,5.962v7.277A2.765,2.765,0,0,0,2.762,16h7.277a2.757,2.757,0,0,0,2.725-2.4h.475A2.765,2.765,0,0,0,16,10.838V2.762A2.765,2.765,0,0,0,13.238,0M14.4,10.838A1.163,1.163,0,0,1,13.238,12H12.8V5.962A2.765,2.765,0,0,0,10.038,3.2H4.8V2.762A1.163,1.163,0,0,1,5.962,1.6h7.277A1.163,1.163,0,0,1,14.4,2.762Z" fill="#fff"/>
    </g>
  </g>
</svg>
