<svg xmlns="http://www.w3.org/2000/svg" width="28.8" height="28.8" viewBox="0 0 28.8 28.8">
  <g id="baritsaahurungu" transform="translate(-200.1 -603.1)">
    <path id="Path_34425" data-name="Path 34425" d="M10.45,28h8.1C25.3,28,28,25.3,28,18.55v-8.1C28,3.7,25.3,1,18.55,1h-8.1C3.7,1,1,3.7,1,10.45v8.1C1,25.3,3.7,28,10.45,28Z" transform="translate(200 603)" fill="none" stroke="#1b3c69" stroke-linecap="round" stroke-linejoin="round" stroke-width="1.8"/>
    <g id="Group_16501" data-name="Group 16501">
      <path id="Path_34426" data-name="Path 34426" d="M18.7,15.093a5.6,5.6,0,0,1-5.643,1.391l-3.5,3.483a1.422,1.422,0,0,1-1.107.364l-1.62-.216a1.38,1.38,0,0,1-1.107-1.107l-.216-1.62a1.511,1.511,0,0,1,.365-1.107L9.36,12.8a5.619,5.619,0,1,1,9.342,2.3Z" transform="translate(201.576 604.58)" fill="none" stroke="#65e33f" stroke-linecap="round" stroke-linejoin="round" stroke-width="1.5"/>
      <path id="Path_34427" data-name="Path 34427" d="M9.747,15.581,8.6,14.42" transform="translate(202.66 607.697)" fill="none" stroke="#65e33f" stroke-linecap="round" stroke-linejoin="round" stroke-width="1.5"/>
      <path id="Path_34428" data-name="Path 34428" d="M12.395,9.7h.012" transform="translate(203.988 606.045)" fill="none" stroke="#65e33f" stroke-linecap="round" stroke-linejoin="round" stroke-width="1.5"/>
    </g>
  </g>
</svg>
