<svg xmlns="http://www.w3.org/2000/svg" width="32" height="37.292" viewBox="0 0 32 37.292">
  <g id="Group_28741" data-name="Group 28741" transform="translate(-72.066 -175)">
    <path id="Path_47603" data-name="Path 47603" d="M15.1,77.792a9.491,9.491,0,0,1-1.589-5.245,9.664,9.664,0,0,1,3.664-7.516,8.747,8.747,0,0,0-2.079.026,8.352,8.352,0,0,0-4.674,2.212A7.524,7.524,0,0,0,8.45,75.34L6.645,77.05v2.137H4.388l-1.1,1.042v2.137H1.032L0,83.344v4.846H5.116l8.45-8a8.72,8.72,0,0,0,4.155.3A10.071,10.071,0,0,1,15.1,77.792" transform="translate(72.066 116.818)"/>
    <path id="Path_47604" data-name="Path 47604" d="M170.937,63.008v5.668h-2.185V63.008A8.251,8.251,0,0,0,166.227,78.6v2.586l1.6,1.6-1.6,1.6v1.555l1.6,1.6-1.6,1.6v1.535l3.617,3.52,3.617-3.52V78.6a8.251,8.251,0,0,0-2.525-15.594" transform="translate(-74.028 118.111)"/>
    <path id="Path_47605" data-name="Path 47605" d="M160.522,6.119V5.281a5.281,5.281,0,0,0-10.463-1.022l.215-.033a10.338,10.338,0,0,1,2.086-.081,3.1,3.1,0,0,1,5.977,1.136v.838a8.318,8.318,0,0,1,2.185,0" transform="translate(-63.549 175)"/>
  </g>
</svg>
