<svg xmlns="http://www.w3.org/2000/svg" width="21.963" height="21.994" viewBox="0 0 21.963 21.994">
  <g id="holboobarig_mini" transform="translate(1210.65 -4275.683)">
    <path id="Path_33904" data-name="Path 33904" d="M21.663,17.9a2.634,2.634,0,0,1-.259,1.128,4.269,4.269,0,0,1-.7,1.055A4.665,4.665,0,0,1,19,21.3a5.2,5.2,0,0,1-2.018.393,8.623,8.623,0,0,1-3.373-.755,18.174,18.174,0,0,1-3.559-2.049,29.748,29.748,0,0,1-3.394-2.9,29.4,29.4,0,0,1-2.887-3.383A18.447,18.447,0,0,1,1.745,9.081,8.715,8.715,0,0,1,1,5.7a5.353,5.353,0,0,1,.372-2,4.762,4.762,0,0,1,1.19-1.728A3.032,3.032,0,0,1,4.715,1a1.944,1.944,0,0,1,.838.186,1.687,1.687,0,0,1,.693.579l2.4,3.383a3.541,3.541,0,0,1,.414.724,1.635,1.635,0,0,1,.145.631,1.4,1.4,0,0,1-.217.735,3.519,3.519,0,0,1-.579.735l-.786.817a.554.554,0,0,0-.166.414.939.939,0,0,0,.031.238c.031.083.062.145.083.207a8.586,8.586,0,0,0,.962,1.324c.466.538.962,1.086,1.5,1.635.559.548,1.1,1.055,1.645,1.521a7.941,7.941,0,0,0,1.335.952c.052.021.114.052.186.083a.714.714,0,0,0,.259.041.569.569,0,0,0,.424-.176l.786-.776a3.175,3.175,0,0,1,.745-.579,1.378,1.378,0,0,1,.735-.217,1.651,1.651,0,0,1,.631.135,4,4,0,0,1,.724.4l3.425,2.432a1.57,1.57,0,0,1,.569.662A2.123,2.123,0,0,1,21.663,17.9Z" transform="translate(-1211 4275.333)" fill="none" stroke="#131a43" stroke-width="1.3" opacity="0.7"/>
    <path id="Path_33905" data-name="Path 33905" d="M19.167,3H14.2m4.967,0V3Z" transform="translate(-1210.542 4275.403)" fill="none" stroke="#65e33f" stroke-linecap="round" stroke-linejoin="round" stroke-width="1.3"/>
  </g>
</svg>
