<svg xmlns="http://www.w3.org/2000/svg" width="21.811" height="20.311" viewBox="0 0 21.811 20.311">
  <g id="sidebar8" transform="translate(-54.429 -612.555)">
    <g id="Group_16530" data-name="Group 16530">
      <path id="Path_33870" data-name="Path 33870" d="M11,18.5H6c-3,0-5-1.5-5-5v-7c0-3.5,2-5,5-5H16c3,0,5,1.5,5,5v3" transform="translate(54.179 611.805)" fill="none" stroke="#2a45c4" stroke-linecap="round" stroke-linejoin="round" stroke-width="1.5"/>
      <path id="Path_33871" data-name="Path 33871" d="M16,7,12.87,9.5a3.166,3.166,0,0,1-3.75,0L6,7" transform="translate(54.179 611.805)" fill="none" stroke="#2a45c4" stroke-linecap="round" stroke-linejoin="round" stroke-width="1.5"/>
      <path id="Path_33872" data-name="Path 33872" d="M17.2,19.4A3.2,3.2,0,1,0,14,16.2,3.2,3.2,0,0,0,17.2,19.4Z" transform="translate(54.179 611.805)" fill="none" stroke="#65e33f" stroke-linecap="round" stroke-linejoin="round" stroke-width="1.5"/>
    </g>
    <path id="Path_33873" data-name="Path 33873" d="M21,20l-1-1" transform="translate(54.179 611.805)" fill="none" stroke="#65e33f" stroke-linecap="round" stroke-linejoin="round" stroke-width="1.5"/>
  </g>
</svg>
