<svg xmlns="http://www.w3.org/2000/svg" width="51.205" height="56.472" viewBox="0 0 51.205 56.472">
  <g id="medegdel_icon" transform="translate(-30 -217)">
    <rect id="Rectangle_5666" data-name="Rectangle 5666" width="51.205" height="34.494" transform="translate(30 237.206)" fill="#fcd042"/>
    <path id="Path_33639" data-name="Path 33639" d="M80.56,235.763,59.315,218.328a5.852,5.852,0,0,0-7.425,0L30.645,235.763A1.913,1.913,0,0,0,30,237.206a1.712,1.712,0,0,0,.645,1.341L51.89,255.982a5.852,5.852,0,0,0,7.425,0L80.56,238.547a1.712,1.712,0,0,0,.645-1.341A1.912,1.912,0,0,0,80.56,235.763Z" fill="#c48c2b"/>
    <g id="Group_15659" data-name="Group 15659" transform="translate(35.121 220.804)">
      <path id="Path_33640" data-name="Path 33640" d="M79.686,230H47.5v21.416l16.77,13.763a5.852,5.852,0,0,0,7.425,0l16.77-13.763V238.778Z" transform="translate(-47.5 -230)" fill="#f1f1f2"/>
      <g id="Group_15658" data-name="Group 15658" transform="translate(8.778 11.704)">
        <rect id="Rectangle_5667" data-name="Rectangle 5667" width="23.408" height="1.756" fill="#a4a4a6"/>
        <rect id="Rectangle_5668" data-name="Rectangle 5668" width="23.408" height="1.756" transform="translate(0 5.852)" fill="#a4a4a6"/>
        <rect id="Rectangle_5669" data-name="Rectangle 5669" width="23.408" height="1.756" transform="translate(0 11.704)" fill="#a4a4a6"/>
      </g>
      <path id="Path_33641" data-name="Path 33641" d="M157.5,230l2.281,11.469,6.5-2.691Z" transform="translate(-125.314 -230)" fill="#a4a4a6"/>
      <path id="Path_33642" data-name="Path 33642" d="M166.278,238.778H157.5V230Z" transform="translate(-125.314 -230)" fill="#cfd1d3"/>
    </g>
    <path id="Path_33643" data-name="Path 33643" d="M80.56,354,59.315,336.563a5.852,5.852,0,0,0-7.425,0L30.646,354a1.756,1.756,0,0,0,1.114,3.113H79.446A1.756,1.756,0,0,0,80.56,354Z" transform="translate(0 -83.639)" fill="#edb836"/>
  </g>
</svg>
