<svg id="sidebar9" xmlns="http://www.w3.org/2000/svg" width="22.774" height="18.59" viewBox="0 0 22.774 18.59">
  <path id="Path_19471" data-name="Path 19471" d="M319.48,606.814a.386.386,0,0,0,.029-.2q-.015-.081.1-.131c.078-.034.117-.061.117-.08s.056-.034.167-.044l.167-.014h4.531a2.332,2.332,0,0,0,2.324-2.324V593.8a2.332,2.332,0,0,0-2.324-2.324h-4.648a.444.444,0,0,1-.3-.094.479.479,0,0,1-.144-.283,2.388,2.388,0,0,1-.045-.341,3.6,3.6,0,0,1,.007-.385c.01-.155.015-.252.015-.291a.471.471,0,0,1,.464-.464h4.648a4.19,4.19,0,0,1,4.183,4.182v10.225a4.191,4.191,0,0,1-4.183,4.183h-4.648a.442.442,0,0,1-.3-.095.481.481,0,0,1-.145-.283,2.377,2.377,0,0,1-.044-.341,3.6,3.6,0,0,1,.007-.385c.01-.155.015-.252.015-.29Zm0,0" transform="translate(-306.002 -589.618)" fill="#65e33f"/>
  <path id="Path_19472" data-name="Path 19472" d="M325.861,598.3l7.9-7.9a.93.93,0,0,1,1.583.653v4.182h6.507a.943.943,0,0,1,.929.93v5.578a.943.943,0,0,1-.929.929h-6.507v4.183a.924.924,0,0,1-1.583.653l-7.9-7.9a.913.913,0,0,1,0-1.308Zm0,0" transform="translate(-325.585 -589.664)" fill="#65e33f"/>
</svg>
