<svg id="Group_30233" data-name="Group 30233" xmlns="http://www.w3.org/2000/svg" xmlns:xlink="http://www.w3.org/1999/xlink" width="21" height="21" viewBox="0 0 21 21">
  <defs>
    <clipPath id="clip-path">
      <rect id="Rectangle_14279" data-name="Rectangle 14279" width="21" height="21" fill="#6265fe"/>
    </clipPath>
  </defs>
  <g id="Group_30232" data-name="Group 30232" clip-path="url(#clip-path)">
    <path id="Path_49443" data-name="Path 49443" d="M2.34,4.025,1.962,2.4A1,1,0,0,0,.946,1.6,1.016,1.016,0,0,0,.031,2.871L1.019,7.08a.991.991,0,0,0,1.193.753L6.3,6.824a1.022,1.022,0,0,0-.469-1.989l-1.968.488A8.363,8.363,0,0,1,9.6,2.058a8.528,8.528,0,0,1,9.328,7.75A1,1,0,1,0,20.9,9.588,10.674,10.674,0,0,0,9.928,0,10.577,10.577,0,0,0,2.34,4.025" transform="translate(0 0)" fill="#6265fe"/>
    <path id="Path_49444" data-name="Path 49444" d="M15.8,164.429a1.02,1.02,0,1,0,.463,1.987l1.966-.488a8.36,8.36,0,0,1-5.729,3.26,8.52,8.52,0,0,1-9.326-7.742,1,1,0,0,0-1.011-.927,1.011,1.011,0,0,0-.959,1.146,10.549,10.549,0,0,0,11.507,9.557,10.358,10.358,0,0,0,7.048-4l.383,1.63a1,1,0,1,0,1.925-.474l-.982-4.211a1.006,1.006,0,0,0-1.117-.768Z" transform="translate(-1.125 -150.284)" fill="#6265fe"/>
  </g>
</svg>
