<svg id="Group_28513" data-name="Group 28513" xmlns="http://www.w3.org/2000/svg" width="24" height="24" viewBox="0 0 24 24">
  <g id="Group_28514" data-name="Group 28514" transform="translate(0 0)">
    <path id="Path_47478" data-name="Path 47478" d="M.706,8.471A.706.706,0,0,1,0,7.765V4.941A4.947,4.947,0,0,1,4.941,0H7.765a.706.706,0,1,1,0,1.412H4.941A3.534,3.534,0,0,0,1.412,4.941V7.765a.706.706,0,0,1-.706.706m22.588,0a.706.706,0,0,1-.706-.706V4.941a3.534,3.534,0,0,0-3.529-3.529H16.235a.706.706,0,0,1,0-1.412h2.824A4.947,4.947,0,0,1,24,4.941V7.765a.706.706,0,0,1-.706.706M7.765,11.294a.706.706,0,0,1-.706-.706V7.765a.706.706,0,0,1,1.412,0v2.824a.706.706,0,0,1-.706.706m8.471,0a.706.706,0,0,1-.706-.706V7.765a.706.706,0,1,1,1.412,0v2.824a.706.706,0,0,1-.706.706m-5.647,2.824a.706.706,0,1,1,0-1.412A.707.707,0,0,0,11.294,12V7.765a.706.706,0,1,1,1.412,0V12a2.12,2.12,0,0,1-2.118,2.118M12,18.353a5.5,5.5,0,0,1-4.029-1.618.707.707,0,1,1,1-1A4.069,4.069,0,0,0,12,16.941a4.069,4.069,0,0,0,3.03-1.206.707.707,0,0,1,1,1A5.5,5.5,0,0,1,12,18.353M7.765,24H4.941A4.947,4.947,0,0,1,0,19.059V16.235a.706.706,0,0,1,1.412,0v2.824a3.534,3.534,0,0,0,3.529,3.529H7.765a.706.706,0,1,1,0,1.412m11.294,0H16.235a.706.706,0,1,1,0-1.412h2.824a3.534,3.534,0,0,0,3.529-3.529V16.235a.706.706,0,1,1,1.412,0v2.824A4.947,4.947,0,0,1,19.059,24" transform="translate(0 0)" fill="#6265fe" fill-rule="evenodd"/>
  </g>
</svg>
