<svg xmlns="http://www.w3.org/2000/svg" width="21.5" height="20.44" viewBox="0 0 21.5 20.44">
  <g id="sidebar7" transform="translate(-54.429 -551.196)">
    <path id="Path_33879" data-name="Path 33879" d="M21,11.8c0-2.37-.59-2.96-2.96-2.96H14.49c-2.37,0-2.96.59-2.96,2.96v5.71c0,2.37.59,2.96,2.96,2.96h3.55c2.37,0,2.96-.59,2.96-2.96V15.94" transform="translate(54.179 550.416)" fill="none" stroke="#65e33f" stroke-linecap="round" stroke-linejoin="round" stroke-width="1.5"/>
    <g id="Group_16529" data-name="Group 16529">
      <path id="Path_33874" data-name="Path 33874" d="M1,5.74c0-3.37.84-4.21,4.21-4.21H15.74c3.37,0,4.21.84,4.21,4.21" transform="translate(54.179 550.416)" fill="none" stroke="#2a45c4" stroke-linecap="round" stroke-linejoin="round" stroke-width="1.5"/>
      <path id="Path_33875" data-name="Path 33875" d="M9,15.95H5.21C1.84,15.95,1,15.11,1,11.74V9.85" transform="translate(54.179 550.416)" fill="none" stroke="#2a45c4" stroke-linecap="round" stroke-linejoin="round" stroke-width="1.5"/>
      <path id="Path_33876" data-name="Path 33876" d="M9,20.47V15.95" transform="translate(54.179 550.416)" fill="none" stroke="#2a45c4" stroke-linecap="round" stroke-linejoin="round" stroke-width="1.5"/>
      <path id="Path_33877" data-name="Path 33877" d="M1,11.95H9" transform="translate(54.179 550.416)" fill="none" stroke="#2a45c4" stroke-linecap="round" stroke-linejoin="round" stroke-width="1.5"/>
      <path id="Path_33878" data-name="Path 33878" d="M5.74,20.47H9" transform="translate(54.179 550.416)" fill="none" stroke="#2a45c4" stroke-linecap="round" stroke-linejoin="round" stroke-width="1.5"/>
      <path id="Path_33880" data-name="Path 33880" d="M16.244,17.25h.009" transform="translate(54.179 550.416)" fill="none" stroke="#2a45c4" stroke-linecap="round" stroke-linejoin="round" stroke-width="2"/>
    </g>
  </g>
</svg>
