<svg xmlns="http://www.w3.org/2000/svg" width="21.5" height="21.56" viewBox="0 0 21.5 21.56">
  <g id="sidebar2" transform="translate(-54.429 -262.586)">
    <g id="Group_16519" data-name="Group 16519">
      <path id="Path_33862" data-name="Path 33862" d="M21,9v3q0,6-6,6h-.5a1.014,1.014,0,0,0-.8.4l-1.5,2a1.421,1.421,0,0,1-2.4,0l-1.5-2a1.13,1.13,0,0,0-.8-.4H7c-4,0-6-1-6-6V7Q1,1,7,1h6" transform="translate(54.179 262.336)" fill="rgba(0,0,0,0)" stroke="#2a45c4" stroke-linecap="round" stroke-linejoin="round" stroke-width="1.5"/>
      <path id="Path_33863" data-name="Path 33863" d="M18.5,6A2.5,2.5,0,1,0,16,3.5,2.5,2.5,0,0,0,18.5,6Z" transform="translate(54.179 262.336)" fill="rgba(0,0,0,0)" stroke="#2a45c4" stroke-linecap="round" stroke-linejoin="round" stroke-width="1.5"/>
    </g>
    <g id="Group_16520" data-name="Group 16520">
      <path id="Path_33864" data-name="Path 33864" d="M15,10h.009" transform="translate(54.179 262.336)" fill="rgba(0,0,0,0)" stroke="#65e33f" stroke-linecap="round" stroke-linejoin="round" stroke-width="2"/>
      <path id="Path_33865" data-name="Path 33865" d="M11,10H11" transform="translate(54.179 262.336)" fill="rgba(0,0,0,0)" stroke="#65e33f" stroke-linecap="round" stroke-linejoin="round" stroke-width="2"/>
      <path id="Path_33866" data-name="Path 33866" d="M6.995,10H7" transform="translate(54.179 262.336)" fill="rgba(0,0,0,0)" stroke="#65e33f" stroke-linecap="round" stroke-linejoin="round" stroke-width="2"/>
    </g>
  </g>
</svg>
