<svg xmlns="http://www.w3.org/2000/svg" xmlns:xlink="http://www.w3.org/1999/xlink" width="20" height="25.224" viewBox="0 0 20 25.224">
  <defs>
    <clipPath id="clip-path">
      <rect id="Rectangle_13434" data-name="Rectangle 13434" width="20" height="25.223" fill="#6265fe"/>
    </clipPath>
  </defs>
  <g id="Group_28519" data-name="Group 28519" clip-path="url(#clip-path)">
    <path id="Path_47481" data-name="Path 47481" d="M112.781,134.825a.782.782,0,0,0,.781-.781v-5.262a.781.781,0,0,0-1.562,0v5.262a.782.782,0,0,0,.781.781" transform="translate(-102.792 -117.477)" fill="#6265fe"/>
    <path id="Path_47482" data-name="Path 47482" d="M117.813,68.712a4.738,4.738,0,0,0-4.616-4.729h-.009a.781.781,0,0,0-.028,1.562,3.171,3.171,0,0,1,3.092,3.167V75.8a7.515,7.515,0,0,1-3.6,6.735.782.782,0,0,0,.875,1.3,9.06,9.06,0,0,0,4.287-8.019Z" transform="translate(-103.096 -58.722)" fill="#6265fe"/>
    <path id="Path_47483" data-name="Path 47483" d="M50.277,98.11a.782.782,0,0,0-.988.495,4.417,4.417,0,0,0-.21,1.389v5.172a5.856,5.856,0,0,1-1.193,3.524.781.781,0,0,0,1.222.968l.015-.021a7.428,7.428,0,0,0,1.518-4.48V100a2.825,2.825,0,0,1,.131-.895.782.782,0,0,0-.494-.992" transform="translate(-43.816 -90.007)" fill="#6265fe"/>
    <path id="Path_47484" data-name="Path 47484" d="M206.6,61.387V53.494a9.748,9.748,0,0,0-1.848-5.768.78.78,0,0,0-1.266.912,8.217,8.217,0,0,1,1.551,4.857v7.884a8.034,8.034,0,0,1-1.166,4.811l-.007.011a.78.78,0,0,0,.637,1.228h0a.779.779,0,0,0,.636-.33,9.4,9.4,0,0,0,1.46-5.7Z" transform="translate(-186.62 -43.504)" fill="#6265fe"/>
    <path id="Path_47485" data-name="Path 47485" d="M11.752.927a.783.783,0,0,0-.682-.87A9.254,9.254,0,0,0,10.038,0H9.991A10.017,10.017,0,0,0,0,9.99v7.893a.781.781,0,0,0,1.562,0V9.99A8.45,8.45,0,0,1,9.989,1.562a7.5,7.5,0,0,1,.892.047.784.784,0,0,0,.871-.682" transform="translate(0 0)" fill="#6265fe"/>
  </g>
</svg>
