<svg xmlns="http://www.w3.org/2000/svg" width="278" height="278" viewBox="0 0 278 278">
  <g id="naizaaurih" transform="translate(-75 -177)">
    <g id="Group_16058" data-name="Group 16058" transform="translate(0 57)">
      <circle id="Ellipse_1242" data-name="Ellipse 1242" cx="68" cy="68" r="68" transform="translate(146 191)" fill="#6875b1" opacity="0.05"/>
      <circle id="Ellipse_1243" data-name="Ellipse 1243" cx="104" cy="104" r="104" transform="translate(110 155)" fill="#6875b1" opacity="0.05"/>
      <circle id="Ellipse_1241" data-name="Ellipse 1241" cx="139" cy="139" r="139" transform="translate(75 120)" fill="#6875b1" opacity="0.05"/>
    </g>
    <g id="Group_16441" data-name="Group 16441" transform="translate(1027.952 -3842)">
      <path id="Path_34203" data-name="Path 34203" d="M847.15,373.5a853.739,853.739,0,0,0-188.1,0,857.04,857.04,0,0,0,94.048,5.2l2.083,0a196.741,196.741,0,0,0-23.336,3.082,206.667,206.667,0,0,0,77.758,0,205.034,205.034,0,0,0-30.329-3.5C818.482,377.041,847.15,373.5,847.15,373.5Z" transform="translate(-1567.054 3879.021)" fill="#d8dff2" opacity="0.8"/>
      <g id="Group_16286" data-name="Group 16286" transform="translate(-1567.054 3879.021)">
        <path id="Path_34204" data-name="Path 34204" d="M805.055,212.2c-.541-.411-8.767,6.772-8.767,6.772a7.736,7.736,0,0,0-1.018-5.006l-.026-.041a.447.447,0,0,0-.355-.25.42.42,0,0,0-.2.079,2.165,2.165,0,0,0-.845,1.588,16.559,16.559,0,0,0,.006,1.851,9.173,9.173,0,0,1-.893,3.4c-.749,1.856,1.319,4.83,1.319,4.83s-.181.227-.424.541l4.453,3.652,1.24-1.715,1.512-.323c1.049-.376,8.21-8,7.856-8.605a4.353,4.353,0,0,0-.339-.49c-.192-.245-.389-.463-.521-.607-.1-.1-.164-.166-.164-.166a6.969,6.969,0,0,0-.229-.807,3.883,3.883,0,0,0-.321-.74.774.774,0,0,0-.476-.434,4.708,4.708,0,0,0-1.511.732c-1.843,1.1-4.652,3.043-4.653,2.789,0-.352,4.947-6.043,4.947-6.043a1.459,1.459,0,0,0-.17-.51A1.5,1.5,0,0,0,805.055,212.2Z" fill="#ffa07f"/>
        <g id="Group_16285" data-name="Group 16285">
          <g id="Group_16283" data-name="Group 16283">
            <path id="Path_34205" data-name="Path 34205" d="M807.662,216.9c-.147.13-.3.261-.455.388a16.894,16.894,0,0,1-2.515,1.688c-.641.349-1.076.535-1.128.556.038-.04.366-.381.891-.879.562-.534,1.343-1.25,2.245-1.984.218-.177.432-.346.641-.509A3.953,3.953,0,0,1,807.662,216.9Z" fill="#cf4a57"/>
          </g>
          <g id="Group_16284" data-name="Group 16284">
            <path id="Path_34206" data-name="Path 34206" d="M808.574,218.477a17.781,17.781,0,0,1-2.881,1.99,17.772,17.772,0,0,1,2.362-2.6C808.187,218.014,808.384,218.232,808.574,218.477Z" fill="#cf4a57"/>
          </g>
        </g>
        <path id="Path_34207" data-name="Path 34207" d="M794.831,226.86c.019-.025.045-.052.064-.077a4.1,4.1,0,0,0,.3-.414,1.352,1.352,0,0,0,.145-.384,1.765,1.765,0,0,0-.248-1.068,9.764,9.764,0,0,1-1.222-3.388c-.094-1.424.591-2.782.762-4.2a9.77,9.77,0,0,1,.431-3.064c.053-.112.118-.224.18-.342-.085-.127-.2-.258-.352-.25a.481.481,0,0,0-.2.081,2.149,2.149,0,0,0-.843,1.59,16.538,16.538,0,0,0,.005,1.849,9.2,9.2,0,0,1-.89,3.394c-.752,1.858,1.312,4.833,1.312,4.833s-.207.193-.465.4a.761.761,0,0,0-.061.049l-.188.157Z" fill="#ffbf90"/>
      </g>
      <g id="Group_16287" data-name="Group 16287" transform="translate(-1567.054 3879.021)">
        <path id="Path_34208" data-name="Path 34208" d="M797.788,226.176l.153-.154a2.938,2.938,0,0,0,.363-.475,3.509,3.509,0,0,0-.064-3.8,2.931,2.931,0,0,0-.378-.462l-.159-.149.056.209c.039.13.083.323.13.552a10.389,10.389,0,0,1,.059,3.512c-.039.231-.077.425-.112.556S797.788,226.176,797.788,226.176Z" fill="#fc5b68"/>
      </g>
      <g id="Group_16292" data-name="Group 16292" transform="translate(-1567.054 3879.021)">
        <path id="Path_34209" data-name="Path 34209" d="M693.3,209.477c.557-.388,8.492,7.114,8.492,7.114a7.737,7.737,0,0,1,1.216-4.961l.028-.04a.448.448,0,0,1,.364-.236.418.418,0,0,1,.2.087,2.168,2.168,0,0,1,.782,1.62,16.586,16.586,0,0,1-.08,1.85,9.178,9.178,0,0,0,.758,3.427c.675,1.885-1.509,4.774-1.509,4.774s.172.234.4.557l-4.594,3.473-1.171-1.762-1.5-.383c-1.033-.417-7.887-8.319-7.509-8.909a4.43,4.43,0,0,1,.358-.477c.2-.237.407-.446.545-.585.1-.1.17-.16.17-.16a6.948,6.948,0,0,1,.261-.8,3.907,3.907,0,0,1,.349-.727.778.778,0,0,1,.494-.414,4.7,4.7,0,0,1,1.481.791c1.8,1.176,4.527,3.225,4.538,2.971.012-.352-4.7-6.234-4.7-6.234a1.479,1.479,0,0,1,.19-.5A1.539,1.539,0,0,1,693.3,209.477Z" fill="#ffa07f"/>
        <g id="Group_16291" data-name="Group 16291">
          <g id="Group_16289" data-name="Group 16289">
            <path id="Path_34210" data-name="Path 34210" d="M690.515,214.069c.141.136.287.272.439.406a16.9,16.9,0,0,0,2.447,1.786c.626.374,1.053.577,1.1.6-.036-.041-.35-.395-.855-.914-.541-.555-1.292-1.3-2.165-2.071-.211-.186-.418-.363-.62-.534A3.941,3.941,0,0,0,690.515,214.069Z" fill="#cf4a57"/>
          </g>
          <g id="Group_16290" data-name="Group 16290">
            <path id="Path_34211" data-name="Path 34211" d="M689.541,215.611a17.69,17.69,0,0,0,2.8,2.1,17.858,17.858,0,0,0-2.258-2.688C689.946,215.164,689.741,215.375,689.541,215.611Z" fill="#cf4a57"/>
          </g>
        </g>
        <path id="Path_34212" data-name="Path 34212" d="M702.941,224.532c-.018-.026-.043-.054-.061-.08a3.86,3.86,0,0,1-.282-.425,1.34,1.34,0,0,1-.129-.389,1.77,1.77,0,0,1,.289-1.058,9.748,9.748,0,0,0,1.355-3.336c.151-1.42-.48-2.8-.594-4.229a9.816,9.816,0,0,0-.31-3.079c-.048-.113-.109-.228-.166-.349.09-.122.212-.249.361-.235a.484.484,0,0,1,.2.089,2.151,2.151,0,0,1,.779,1.622,16.29,16.29,0,0,1-.078,1.847,9.212,9.212,0,0,0,.755,3.427c.678,1.887-1.5,4.777-1.5,4.777s.2.2.449.414c.018.014.039.033.059.052l.181.164Z" fill="#ffbf90"/>
      </g>
      <g id="Group_16293" data-name="Group 16293" transform="translate(-1567.054 3879.021)">
        <path id="Path_34213" data-name="Path 34213" d="M700.014,223.731l-.147-.16a2.869,2.869,0,0,1-.344-.488,3.511,3.511,0,0,1,.214-3.795,2.854,2.854,0,0,1,.4-.446l.164-.143-.064.207c-.044.128-.1.318-.152.546a10.41,10.41,0,0,0-.2,3.507c.03.232.061.427.09.56Z" fill="#fc5b68"/>
      </g>
      <path id="Path_34214" data-name="Path 34214" d="M749.85,288.367l-1.824-.036-1.736-3.038-2.071,3.308-16.09.67c.107-3.25.28-7.806.529-10.457.068-.737.139-1.436.209-2.087.336-3.213.647-5.329.647-5.329l17.119-3.419,16.97,4.094s.242,2.289.457,5.722c.011.171.022.344.033.52.166,2.688.3,6.005.3,9.447Z" transform="translate(-1567.054 3879.021)" fill="#424242"/>
      <path id="Path_34215" data-name="Path 34215" d="M728.867,276.727a8.084,8.084,0,0,0,1.015.437,20.065,20.065,0,0,0,5.106.87c4.112.34,8.224.673,12.35.769,5.62.129,11.148-.582,16.722-1.008-.215-3.433-.457-5.722-.457-5.722l-16.97-4.094L729.514,271.4S729.2,273.514,728.867,276.727Z" transform="translate(-1567.054 3879.021)" fill="#252727"/>
      <path id="Path_34216" data-name="Path 34216" d="M741.556,283.944c.594-.373,1.015-.17,1.667-.022a16.316,16.316,0,0,0,2.442.337,44.231,44.231,0,0,0,4.677-.158.366.366,0,0,1,.17.68,10.867,10.867,0,0,1-4.876.964c-1.17,0-3.674.078-4.273-1.12A.515.515,0,0,1,741.556,283.944Z" transform="translate(-1567.054 3879.021)" fill="#252727"/>
      <path id="Path_34217" data-name="Path 34217" d="M762.789,219.121l2.083,19.8s11.654,11.864,18.953,9.154c5.784-2.154,13.006-13.045,15.744-17.458.717-1.148,1.125-1.86,1.125-1.86l-8.252-5.713-1.96,2.287-9.267,10.833s-8.347-11.678-10.037-13.3C767.876,219.672,762.789,219.121,762.789,219.121Z" transform="translate(-1567.054 3879.021)" fill="#65e33f"/>
      <path id="Path_34218" data-name="Path 34218" d="M790.482,225.328l9.087,5.286c.717-1.148,1.125-1.86,1.125-1.86l-8.252-5.713Z" transform="translate(-1567.054 3879.021)" fill="#ffe6e2"/>
      <path id="Path_34219" data-name="Path 34219" d="M697.005,226.491s.593,1.134,1.6,2.866c2.89,4.973,9.163,14.876,14.492,17.1,7.184,3,19.294-8.4,19.294-8.4l2.871-19.7s-5.106.351-8.532,3.4c-1.751,1.561-10.553,12.9-10.553,12.9l-9.021-11.431-1.68-2.126Z" transform="translate(-1567.054 3879.021)" fill="#65e33f"/>
      <path id="Path_34220" data-name="Path 34220" d="M697.005,226.491s.593,1.134,1.6,2.866l8.551-6.126-1.68-2.126Z" transform="translate(-1567.054 3879.021)" fill="#ffe6e2"/>
      <path id="Path_34221" data-name="Path 34221" d="M726.952,271.22c1.077,2.685,17.34,5.2,19.195,5.68s18.331-2.776,19.916-4.077-2.183-7.364-2.183-7.364c.128-3.2.289-7.308.446-11.745.062-1.812.128-3.687.19-5.575.024-.793.047-1.585.076-2.383.057-1.869.109-3.744.161-5.575.29-10.886.38-20.433-.19-20.723-.844-.427-5.888-1.077-9.258-1.542-1.11-.152-2.04-.285-2.576-.38l-10.578-.209c-.721.1-1.784.257-2.961.437a60.161,60.161,0,0,0-7.568,1.438c-.575.266-1.04,9.6-1.386,20.295-.057,1.832-.114,3.7-.166,5.576-.019.8-.043,1.6-.067,2.387-.047,1.884-.094,3.754-.132,5.571-.095,4.057-.176,7.834-.233,10.9C729.638,263.931,725.87,268.534,726.952,271.22Z" transform="translate(-1567.054 3879.021)" fill="#65e33f"/>
      <path id="Path_34222" data-name="Path 34222" d="M739.19,217.764a5.712,5.712,0,0,0,1.315,1.642,9.432,9.432,0,0,0,4.318,1.931,12.084,12.084,0,0,0,6.292-.223,8,8,0,0,0,4.19-3.2c-1.11-.152-2.04-.285-2.576-.38l-10.578-.209C741.43,217.427,740.367,217.584,739.19,217.764Z" transform="translate(-1567.054 3879.021)" fill="#ffe6e2"/>
      <g id="Group_16347" data-name="Group 16347" transform="translate(-1567.054 3879.021)">
        <g id="Group_16340" data-name="Group 16340">
          <g id="Group_16301" data-name="Group 16301">
            <g id="Group_16298" data-name="Group 16298">
              <path id="Path_34223" data-name="Path 34223" d="M754.162,207.407a4.141,4.141,0,0,0,3.038-1.924,4.454,4.454,0,0,0,.318-.541c.439-.9.7-4.057-.287-4.841-.692-.548-1.248.175-1.518.658v0a3.353,3.353,0,0,0-.179.367Z" fill="#ffbf90"/>
              <path id="Path_34224" data-name="Path 34224" d="M754.014,207.461a4.5,4.5,0,0,0,3.186-1.978c.051-.087.1-.17.134-.25.439-.9.7-4.057-.287-4.84-.561-.445-1.032-.055-1.334.366v0a3.353,3.353,0,0,0-.179.367Z" fill="#ffa07f"/>
              <path id="Path_34225" data-name="Path 34225" d="M757.437,202.632a1.719,1.719,0,0,1-.083.765,5.945,5.945,0,0,1-2.038,2.539,3.279,3.279,0,0,0,.358-1.652c-.008-.2-.032-.395-.025-.593C755.68,202.893,757.2,201.12,757.437,202.632Z" fill="#ff7d6f"/>
              <g id="Group_16297" data-name="Group 16297">
                <path id="Path_34226" data-name="Path 34226" d="M754.9,206.22l.047-.031c.03-.021.078-.048.134-.092a2.057,2.057,0,0,0,.416-.434,2.313,2.313,0,0,0,.364-.829,2.216,2.216,0,0,0-.049-1.122,1.43,1.43,0,0,0-.052-.142l-.015-.035c0-.008,0,0,0,0h0l0-.006.015-.03.03-.059c.02-.039.04-.078.061-.116a4.823,4.823,0,0,1,.262-.426c.09-.132.183-.253.274-.364a2.721,2.721,0,0,1,.267-.287.512.512,0,0,1,.266-.133.337.337,0,0,1,.219.056.254.254,0,0,1,.093.118.193.193,0,0,1,.011.054.2.2,0,0,0,0-.057.255.255,0,0,0-.075-.148.393.393,0,0,0-.249-.113.6.6,0,0,0-.349.109,2.313,2.313,0,0,0-.325.269,3.859,3.859,0,0,0-.324.352,3.939,3.939,0,0,0-.306.435c-.024.039-.047.08-.07.121l-.033.062-.045.088-.031.062c.006.021.016.043.024.064l.037.092a1.073,1.073,0,0,1,.044.124,2.321,2.321,0,0,1,.084.993,2.517,2.517,0,0,1-.25.8,2.359,2.359,0,0,1-.324.476c-.046.052-.086.088-.111.115Z" fill="#cf4a57"/>
              </g>
            </g>
            <g id="Group_16300" data-name="Group 16300">
              <path id="Path_34227" data-name="Path 34227" d="M741.041,207.148a4.142,4.142,0,0,1-2.959-2.044,4.585,4.585,0,0,1-.3-.552c-.4-.912-.539-4.082.479-4.826.713-.521,1.24.224,1.491.718h0a3.452,3.452,0,0,1,.165.374Z" fill="#ffbf90"/>
              <path id="Path_34228" data-name="Path 34228" d="M741.188,207.207a4.5,4.5,0,0,1-3.106-2.1c-.047-.089-.089-.174-.124-.254-.4-.912-.539-4.082.479-4.826.577-.422,1.032-.013,1.318.42h0a3.452,3.452,0,0,1,.165.374Z" fill="#ffa07f"/>
              <path id="Path_34229" data-name="Path 34229" d="M737.958,202.247a1.71,1.71,0,0,0,.053.768,5.957,5.957,0,0,0,1.935,2.617,3.276,3.276,0,0,1-.292-1.665c.016-.2.048-.394.048-.592C739.7,202.577,738.251,200.745,737.958,202.247Z" fill="#ff7d6f"/>
              <g id="Group_16299" data-name="Group 16299">
                <path id="Path_34230" data-name="Path 34230" d="M740.351,205.932l-.046-.033c-.029-.022-.076-.051-.13-.1a2.041,2.041,0,0,1-.4-.45,2.3,2.3,0,0,1-.331-.843,2.214,2.214,0,0,1,.093-1.119,1.218,1.218,0,0,1,.058-.14l.016-.034c0-.008,0,0,0,0h0s0,0,0-.006l-.013-.03-.028-.061c-.019-.04-.037-.079-.057-.118a4.871,4.871,0,0,0-.244-.437c-.085-.135-.173-.26-.26-.374a2.585,2.585,0,0,0-.256-.3.51.51,0,0,0-.26-.144.333.333,0,0,0-.221.048.24.24,0,0,0-.1.114.342.342,0,0,0-.014.053.3.3,0,0,1,0-.057.262.262,0,0,1,.082-.145.394.394,0,0,1,.252-.1.594.594,0,0,1,.345.123,2.319,2.319,0,0,1,.314.282,3.728,3.728,0,0,1,.31.364,3.772,3.772,0,0,1,.288.447c.023.04.044.082.066.124l.031.063.041.09.029.063c-.007.021-.018.042-.027.063l-.041.091a.977.977,0,0,0-.049.121,2.307,2.307,0,0,0-.122.99,2.506,2.506,0,0,0,.217.8,2.342,2.342,0,0,0,.306.489c.043.054.082.091.106.119Z" fill="#cf4a57"/>
              </g>
            </g>
          </g>
          <g id="Group_16327" data-name="Group 16327">
            <g id="Group_16326" data-name="Group 16326">
              <path id="Path_34231" data-name="Path 34231" d="M742.149,217.327c.527.642,1.413,2.834,6,2.587,1.795-.1,3.224-1.283,4.584-2.377a2.955,2.955,0,0,1-1.107-.876,19.621,19.621,0,0,1-.146-2.2c-.069-1.841-.119-4.162-.119-4.162l-7.586-.074s.022,2.88-.179,4.731a2.844,2.844,0,0,1-.389,1.5A8.22,8.22,0,0,1,742.149,217.327Z" fill="#ffa07f"/>
              <path id="Path_34232" data-name="Path 34232" d="M743.593,214.957a9.354,9.354,0,0,0,7.884-.495c-.069-1.841-.119-4.162-.119-4.162l-7.586-.074S743.794,213.106,743.593,214.957Z" fill="#ff7d6f"/>
              <g id="Group_16313" data-name="Group 16313">
                <g id="Group_16312" data-name="Group 16312">
                  <g id="Group_16311" data-name="Group 16311">
                    <g id="Group_16310" data-name="Group 16310">
                      <g id="Group_16309" data-name="Group 16309">
                        <g id="Group_16308" data-name="Group 16308">
                          <g id="Group_16307" data-name="Group 16307">
                            <g id="Group_16306" data-name="Group 16306">
                              <g id="Group_16305" data-name="Group 16305">
                                <g id="Group_16304" data-name="Group 16304">
                                  <g id="Group_16303" data-name="Group 16303">
                                    <g id="Group_16302" data-name="Group 16302">
                                      <path id="Path_34233" data-name="Path 34233" d="M740,202.246a34.584,34.584,0,0,0,.853,4.212c.624,2.335,1.488,4.834,3.957,5.744,2.436.9,5.733.821,7.665-1.129,1.242-1.255,1.62-3.065,2.122-4.692,1.744-5.65,3.058-14.512-3.6-17.555-2.37-1.083-5.443-1.359-7.737.065a7.685,7.685,0,0,0-3.275,5.677A27.245,27.245,0,0,0,740,202.246Z" fill="#ffbf90"/>
                                    </g>
                                  </g>
                                </g>
                              </g>
                            </g>
                          </g>
                        </g>
                      </g>
                    </g>
                  </g>
                </g>
              </g>
              <g id="Group_16325" data-name="Group 16325">
                <g id="Group_16324" data-name="Group 16324">
                  <g id="Group_16323" data-name="Group 16323">
                    <g id="Group_16322" data-name="Group 16322">
                      <g id="Group_16321" data-name="Group 16321">
                        <g id="Group_16320" data-name="Group 16320">
                          <g id="Group_16319" data-name="Group 16319">
                            <g id="Group_16318" data-name="Group 16318">
                              <g id="Group_16317" data-name="Group 16317">
                                <g id="Group_16316" data-name="Group 16316">
                                  <g id="Group_16315" data-name="Group 16315">
                                    <g id="Group_16314" data-name="Group 16314">
                                      <path id="Path_34234" data-name="Path 34234" d="M740.19,201.635a35.078,35.078,0,0,0,.834,4.211c.61,2.335,1.454,4.834,3.871,5.743,2.384.9,5.612.818,7.5-1.133,1.216-1.255,1.587-3.065,2.079-4.693,1.71-5.651,3-14.513-3.521-17.553-2.32-1.082-5.328-1.356-7.575.068a7.727,7.727,0,0,0-3.208,5.678A27.859,27.859,0,0,0,740.19,201.635Z" fill="#ffa07f"/>
                                    </g>
                                  </g>
                                </g>
                              </g>
                            </g>
                          </g>
                        </g>
                      </g>
                    </g>
                  </g>
                </g>
              </g>
              <path id="Path_34235" data-name="Path 34235" d="M743.721,205.9a16.405,16.405,0,0,1,7.877.85s-1.58,3.275-4.416,2.791S743.721,205.9,743.721,205.9Z" fill="#fff"/>
            </g>
          </g>
          <g id="Group_16336" data-name="Group 16336">
            <g id="Group_16330" data-name="Group 16330">
              <g id="Group_16328" data-name="Group 16328">
                <path id="Path_34236" data-name="Path 34236" d="M752.6,200.186c-.034.822-.477,1.471-.989,1.449s-.9-.7-.865-1.526.477-1.471.989-1.45S752.638,199.364,752.6,200.186Z" fill="#252727"/>
                <path id="Path_34237" data-name="Path 34237" d="M753.736,199.676a1.909,1.909,0,0,1-2.08.743,1.908,1.908,0,0,1,2.08-.743Z" fill="#fff0e7"/>
              </g>
              <g id="Group_16329" data-name="Group 16329">
                <path id="Path_34238" data-name="Path 34238" d="M742.884,199.993c0,.823.418,1.489.931,1.488s.926-.668.924-1.491-.418-1.489-.93-1.488S742.883,199.171,742.884,199.993Z" fill="#252727"/>
                <path id="Path_34239" data-name="Path 34239" d="M741.773,199.439a1.909,1.909,0,0,0,2.049.825,1.909,1.909,0,0,0-2.049-.825Z" fill="#fff0e7"/>
              </g>
            </g>
            <g id="Group_16333" data-name="Group 16333">
              <g id="Group_16331" data-name="Group 16331">
                <path id="Path_34240" data-name="Path 34240" d="M754.524,197.331s-2.942-2.908-4.273-2.345c-.776.328-.283.754-.283.754Z" fill="#424242"/>
              </g>
              <g id="Group_16332" data-name="Group 16332">
                <path id="Path_34241" data-name="Path 34241" d="M741.172,195.654s4.059-.8,4.856.409c.466.7-.18.785-.18.785Z" fill="#424242"/>
              </g>
            </g>
            <g id="Group_16335" data-name="Group 16335">
              <path id="Path_34242" data-name="Path 34242" d="M748.987,204.115l-.421-.841a3.494,3.494,0,0,1-2.038-.828,2.664,2.664,0,0,0-.115.718,1,1,0,0,0,.242.67,1.239,1.239,0,0,0,.592.312A3.1,3.1,0,0,0,748.987,204.115Z" fill="#ff7d6f"/>
              <g id="Group_16334" data-name="Group 16334">
                <path id="Path_34243" data-name="Path 34243" d="M746.531,203.8a2.257,2.257,0,0,0,.263.188,2.75,2.75,0,0,0,.827.337,2.834,2.834,0,0,0,1.525-.064l.082-.023c.012,0,.033-.005.036-.013l-.018-.033-.076-.134-.159-.279c-.032-.055-.048-.086-.059-.11l-.041-.084-.085-.17a7.488,7.488,0,0,1-.291-.734,7.21,7.21,0,0,1-.368-2.75,6.985,6.985,0,0,1,.1-.858c.041-.2.064-.314.064-.314l-.131.295a5.044,5.044,0,0,0-.256.846,5.541,5.541,0,0,0,.168,2.923,5.6,5.6,0,0,0,.33.781l.185.321c.011.019.063.068.05.076a1.621,1.621,0,0,1-.449.1,3.028,3.028,0,0,1-.576.009,3.149,3.149,0,0,1-.83-.18C746.634,203.855,746.531,203.8,746.531,203.8Z" fill="#fc5b68"/>
              </g>
            </g>
          </g>
          <g id="Group_16339" data-name="Group 16339">
            <g id="Group_16338" data-name="Group 16338">
              <g id="Group_16337" data-name="Group 16337">
                <path id="Path_34244" data-name="Path 34244" d="M752.024,204.066c.126.358,1.1.34,2.177-.039s1.847-.975,1.721-1.332-1.1-.34-2.177.039S751.9,203.709,752.024,204.066Z" fill="#ff7d6f"/>
                <path id="Path_34245" data-name="Path 34245" d="M739.133,202.292c-.153.347.57,1,1.615,1.46s2.015.551,2.167.2-.57-1-1.615-1.46S739.285,201.946,739.133,202.292Z" fill="#ff7d6f"/>
              </g>
            </g>
          </g>
        </g>
        <g id="Group_16346" data-name="Group 16346">
          <g id="Group_16345" data-name="Group 16345">
            <path id="Path_34246" data-name="Path 34246" d="M739.212,190.3c.211,2.567,9.6,3.4,9.6,3.4-1.182-.485-1.624-2.345-1.65-2.461.977,1.5,7.967,3.2,7.967,3.2.645.836.663,6.628.663,6.628l1.167-1.054a45.311,45.311,0,0,0,1.082-6.9,4.474,4.474,0,0,0-.352-2.451c-1.127-1.542-5.01-3.705-8.823-4.521-3.144-.67-7.812.847-9.233,2.837A1.988,1.988,0,0,0,739.212,190.3Z" fill="#252727"/>
            <path id="Path_34247" data-name="Path 34247" d="M739.866,190.352a8.7,8.7,0,0,0-1.056,2.413c-.063.781-.136,6.89-.136,6.89l1.246,1.164s1.108-8.614,1.582-9.476S739.866,190.352,739.866,190.352Z" fill="#252727"/>
            <g id="Group_16344" data-name="Group 16344">
              <g id="Group_16341" data-name="Group 16341">
                <path id="Path_34248" data-name="Path 34248" d="M748.706,200.2a3.6,3.6,0,1,1,3.6,3.6A3.6,3.6,0,0,1,748.706,200.2Zm.854,0a2.742,2.742,0,1,0,2.742-2.742A2.745,2.745,0,0,0,749.56,200.2Z" fill="#ffe6e2"/>
              </g>
              <g id="Group_16342" data-name="Group 16342">
                <path id="Path_34249" data-name="Path 34249" d="M739.422,200.2a3.6,3.6,0,1,1,3.6,3.6A3.6,3.6,0,0,1,739.422,200.2Zm.853,0a2.742,2.742,0,1,0,2.743-2.742A2.746,2.746,0,0,0,740.275,200.2Z" fill="#ffe6e2"/>
              </g>
              <g id="Group_16343" data-name="Group 16343">
                <path id="Path_34250" data-name="Path 34250" d="M748.877,200.538l.512-.684a2.73,2.73,0,0,0-3.5.032l.587.62A1.923,1.923,0,0,1,748.877,200.538Z" fill="#ffe6e2"/>
              </g>
            </g>
          </g>
          <path id="Path_34251" data-name="Path 34251" d="M739.636,188.977a4.289,4.289,0,0,0,.537.506,9.187,9.187,0,0,0,3.16,1.431q-.216-.661-.433-1.322a17.263,17.263,0,0,0,3.368,1.8,4.157,4.157,0,0,1,.373-2.514,41.855,41.855,0,0,0,11.4,4.234,5.786,5.786,0,0,0-.215-2.2,1.318,1.318,0,0,0-.137-.251c-1.127-1.542-5.01-3.705-8.823-4.521a11.748,11.748,0,0,0-7.48,1.372A5.465,5.465,0,0,0,739.636,188.977Z" fill="#424242"/>
          <path id="Path_34252" data-name="Path 34252" d="M741.389,187.512a9.969,9.969,0,0,0,1.063,1.083,8.912,8.912,0,0,1,2.677-1.567,2.908,2.908,0,0,0,.917,1.424,2.989,2.989,0,0,1,1.317-1.638,33.2,33.2,0,0,0,10.466,4.1,1.318,1.318,0,0,0-.137-.251c-1.127-1.542-5.01-3.705-8.823-4.521A11.748,11.748,0,0,0,741.389,187.512Z" fill="#595959"/>
        </g>
      </g>
      <path id="Path_34253" data-name="Path 34253" d="M779.4,239.011a3.8,3.8,0,0,1,.476-.97,10.5,10.5,0,0,1,.6-1.02.356.356,0,0,1,.608.012,11.586,11.586,0,0,1,.992,2.751.24.24,0,0,1-.464.118,20.032,20.032,0,0,0-.821-1.922c-.068.127-.137.253-.2.381a4.157,4.157,0,0,1-.613,1A.352.352,0,0,1,779.4,239.011Z" transform="translate(-1567.054 3879.021)" fill="#46b525"/>
      <path id="Path_34254" data-name="Path 34254" d="M766.2,233.088a22.271,22.271,0,0,0,.4-4.882c-.012-.453.7-.439.7.014.044,3-.314,6.759-2.143,9.256a.063.063,0,0,1-.114-.051C765.338,235.959,765.912,234.563,766.2,233.088Z" transform="translate(-1567.054 3879.021)" fill="#46b525"/>
      <path id="Path_34255" data-name="Path 34255" d="M727.847,229.613c.133-.247.453-.089.475.139.141,1.454-.2,2.821.1,4.305a21.726,21.726,0,0,0,1.588,4.025.2.2,0,0,1-.323.239C727.772,236.551,726.566,232,727.847,229.613Z" transform="translate(-1567.054 3879.021)" fill="#46b525"/>
      <path id="Path_34256" data-name="Path 34256" d="M715.237,236.666a11.309,11.309,0,0,0,.823-1.315.332.332,0,0,1,.569.011,19.858,19.858,0,0,1,1.5,2.465c.061.179-.172.254-.287.159a10.026,10.026,0,0,1-1.449-1.869,9.416,9.416,0,0,1-.641,1c-.244.332-.451.719-.879.791a.212.212,0,0,1-.261-.207C714.644,237.251,714.976,237.017,715.237,236.666Z" transform="translate(-1567.054 3879.021)" fill="#46b525"/>
      <path id="Path_34257" data-name="Path 34257" d="M734.925,268.542a37.279,37.279,0,0,0,22.326-1.445,64.939,64.939,0,0,1-15.62-4.71c-.249-.118-.062-.509.193-.434a158.922,158.922,0,0,0,17.045,4.586c.455.082.333.7-.016.82-7.843,2.763-15.971,4.181-24.144,1.909A.379.379,0,0,1,734.925,268.542Z" transform="translate(-1567.054 3879.021)" fill="#46b525"/>
      <path id="Path_34258" data-name="Path 34258" d="M694.806,358.066l-4.153,16.27h2.639l9.251-16.27Z" transform="translate(-1567.054 3879.021)" fill="#c79d88"/>
      <path id="Path_34259" data-name="Path 34259" d="M811.4,358.066l4.153,16.27h-2.639l-9.251-16.27Z" transform="translate(-1567.054 3879.021)" fill="#c79d88"/>
      <path id="Path_34260" data-name="Path 34260" d="M828.215,303.744l-17.6,43.353H695.589l-17.6-43.353a29.863,29.863,0,0,1,2.833-10.264,12.435,12.435,0,0,1,6.5-6.3c7.858-2.923,123.714-2.923,131.567,0a12.485,12.485,0,0,1,6.549,6.415A29.753,29.753,0,0,1,828.215,303.744Z" transform="translate(-1567.054 3879.021)" fill="#1b36b2"/>
      <path id="Path_34261" data-name="Path 34261" d="M825.434,293.594c-61.072-5.044-120.5-1.85-144.613-.114a12.435,12.435,0,0,1,6.5-6.3c7.858-2.923,123.714-2.923,131.567,0A12.485,12.485,0,0,1,825.434,293.594Z" transform="translate(-1567.054 3879.021)" fill="#2a45c4"/>
      <path id="Path_34262" data-name="Path 34262" d="M705.645,359.646H692.234c-.108-.147-.227-.3-.351-.469-5.462-7.341-25.273-34.385-27.318-42.865A14.671,14.671,0,0,1,679.066,298a17.431,17.431,0,0,1,2.345.162c5.072.683,9.4,7.326,12.931,16.058a149.223,149.223,0,0,1,5.912,18.725c.4,1.57.778,3.132,1.134,4.659.778,3.351,1.462,6.573,2.041,9.5l.1.512c.1.494.2.983.285,1.462C704.734,353.9,705.35,357.715,705.645,359.646Z" transform="translate(-1567.054 3879.021)" fill="#1b36b2"/>
      <path id="Path_34263" data-name="Path 34263" d="M841.64,316.312c-2.046,8.48-21.857,35.524-27.319,42.865-.123.166-.242.322-.351.469H800.56c.3-2,.954-6.007,1.927-11.07.033-.157.061-.314.09-.47.066-.332.132-.669.2-1.006.579-2.923,1.262-6.145,2.04-9.5.356-1.527.736-3.089,1.134-4.659a149.053,149.053,0,0,1,5.913-18.725c3.535-8.732,7.858-15.375,12.931-16.058a17.361,17.361,0,0,1,2.344-.162A14.674,14.674,0,0,1,841.64,316.312Z" transform="translate(-1567.054 3879.021)" fill="#1b36b2"/>
      <path id="Path_34264" data-name="Path 34264" d="M814.321,359.177c-.123.166-.242.322-.351.469H692.234c-.108-.147-.227-.3-.351-.469-.071-1.951-.161-9.586,2.416-15.261,1.414-3.108,3.625-5.633,7.089-6.312a10.258,10.258,0,0,1,1.908-.175h99.613a10.246,10.246,0,0,1,1.907.175c3.464.679,5.676,3.2,7.09,6.312C814.482,349.591,814.392,357.226,814.321,359.177Z" transform="translate(-1567.054 3879.021)" fill="#2a45c4"/>
      <path id="Path_34265" data-name="Path 34265" d="M699.579,325.389a55.405,55.405,0,0,0-3.485-8.031,52.321,52.321,0,0,0-10.672-14.442.089.089,0,0,0-.126.126c3.648,4.648,7.061,9.191,9.609,14.56a68.331,68.331,0,0,1,3.217,8.189c.773,2.378,1.071,5.422,2.352,7.549.161.267.679.262.732-.1C701.574,330.76,700.368,327.726,699.579,325.389Z" transform="translate(-1567.054 3879.021)" fill="#001372"/>
      <path id="Path_34266" data-name="Path 34266" d="M806.625,325.389a55.411,55.411,0,0,1,3.486-8.031,52.321,52.321,0,0,1,10.672-14.442.089.089,0,0,1,.125.126c-3.647,4.648-7.061,9.191-9.608,14.56a68.321,68.321,0,0,0-3.217,8.189c-.774,2.378-1.071,5.422-2.352,7.549-.161.267-.679.262-.732-.1C804.63,330.76,805.836,327.726,806.625,325.389Z" transform="translate(-1567.054 3879.021)" fill="#001165"/>
      <path id="Path_34267" data-name="Path 34267" d="M807.659,348.3c-18.416-.772-36.851-.912-55.283-.9l-27.4.015c-9.291.005-18.608-.145-27.877.569a.356.356,0,0,0,0,.712c9.112.7,18.27.565,27.405.569l27.877.015c18.432.01,36.867-.131,55.283-.9A.037.037,0,0,0,807.659,348.3Z" transform="translate(-1567.054 3879.021)" fill="#001372"/>
      <path id="Path_34268" data-name="Path 34268" d="M799.983,329.985c-3.195-1.533-7.415-1.621-10.9-2.1q-5.563-.774-11.156-1.325-12.12-1.189-24.317-1.3c-15.7-.134-31.886.709-47.264,4-.514.11-.41.994.126.932,15.563-1.784,30.976-3.461,46.678-3.346q11.491.084,22.946,1.095,6.306.566,12.582,1.421c3.538.485,7.538,1.748,11.1,1.409C800.141,330.724,800.392,330.181,799.983,329.985Z" transform="translate(-1567.054 3879.021)" fill="#001372"/>
      <g id="Group_16355" data-name="Group 16355" transform="translate(-1567.054 3879.021)">
        <path id="Path_34269" data-name="Path 34269" d="M680.229,312.432a3.579,3.579,0,1,1-3.579-3.578A3.579,3.579,0,0,1,680.229,312.432Z" fill="#2a45c4"/>
      </g>
      <path id="Path_34270" data-name="Path 34270" d="M680.469,310.232a5.186,5.186,0,0,0-4.634-1.324,4.226,4.226,0,0,0-3.24,3.624c-.315,2.152.9,4.031,2.281,5.558.139.153.413-.051.291-.225a7.53,7.53,0,0,1-1.671-4.41,3.383,3.383,0,0,1,3.158-3.654c2.912-.127,5.405,3.082,5.358,5.838,0,.116.189.112.178,0C681.986,313.671,682.014,311.691,680.469,310.232Z" transform="translate(-1567.054 3879.021)" fill="#001372"/>
      <g id="Group_16357" data-name="Group 16357" transform="translate(-1567.054 3879.021)">
        <circle id="Ellipse_1252" data-name="Ellipse 1252" cx="3.579" cy="3.579" r="3.579" transform="translate(825.976 308.854)" fill="#2a45c4"/>
      </g>
      <path id="Path_34271" data-name="Path 34271" d="M825.736,310.232a5.185,5.185,0,0,1,4.633-1.324,4.226,4.226,0,0,1,3.241,3.624c.315,2.152-.9,4.031-2.281,5.558-.139.153-.414-.051-.291-.225a7.537,7.537,0,0,0,1.671-4.41,3.383,3.383,0,0,0-3.159-3.654c-2.912-.127-5.4,3.082-5.357,5.838,0,.116-.19.112-.178,0C824.218,313.671,824.19,311.691,825.736,310.232Z" transform="translate(-1567.054 3879.021)" fill="#001372"/>
      <path id="Path_34272" data-name="Path 34272" d="M716.562,272.547a52.349,52.349,0,0,1-29.7-.227c-.2-.054-.4-.118-.587-.177a27.829,27.829,0,0,1,4.614-14.47c.06-.1.129-.207.2-.3,2.208-.636,4.313-1.3,6.418-1.957l.607-.193c2.2-.69,4.4-1.38,6.714-2.046a5.971,5.971,0,0,1,5.187,1.07c.157.316.315.636.468.957.2.409.394.823.587,1.237A87.8,87.8,0,0,1,716.562,272.547Z" transform="translate(-1567.054 3879.021)" fill="#f9c88a"/>
      <g id="Group_16366" data-name="Group 16366" transform="translate(-1567.054 3879.021)">
        <g id="Group_16365" data-name="Group 16365">
          <g id="Group_16363" data-name="Group 16363">
            <g id="Group_16362" data-name="Group 16362">
              <path id="Path_34273" data-name="Path 34273" d="M725.524,332.115a6.24,6.24,0,0,0-.813,1.548c-.079.217-.153.434-.212.656-.055.178-.1.365-.143.542-.178-.049-.33-.014-.5-.064a4.057,4.057,0,0,0,.015-1.36.763.763,0,0,0,.463-.084.746.746,0,0,0,.227-.163.921.921,0,0,0,.089-.1,2.173,2.173,0,0,0,.335-1.218c.02-.439-.242-.971.005-1.312a4.77,4.77,0,0,0,.66-1.262A14.948,14.948,0,0,0,725.524,332.115Z" fill="#ff7d6f"/>
              <path id="Path_34274" data-name="Path 34274" d="M727.119,326.148l-.15-.951-2.543-16.1a37.133,37.133,0,0,0-2.1-5.479l-.27-1.231-.609-3.96-5.965.1a72.7,72.7,0,0,1,1.887,8.15,54.635,54.635,0,0,0,1.985,6.977c1.434,4.449,3.255,9.784,4.07,12.176l-.3,1.027c-.421.918.495,3.458.495,3.458a7.1,7.1,0,0,0-.034,1.51l.016.366c.01.1.012.194.018.267s.008.128.013.164a.27.27,0,0,0,0,.048.381.381,0,0,0-.047-.053.522.522,0,0,0-.648-.1l.1,2.9c.349.752,1.643,1.013,1.9,1.056a.113.113,0,0,0,.04.005s.081-.2.214-.545c.105-.269.237-.617.391-1.005.327-.841.728-1.854,1.02-2.584.16-.389.287-.7.359-.852a1.864,1.864,0,0,0,.112-.48A43.316,43.316,0,0,0,727.119,326.148Zm-1.6,5.965a6.324,6.324,0,0,0-.813,1.549c-.079.216-.152.437-.214.656-.052.181-.1.367-.142.546-.176-.05-.327-.019-.5-.069a4.055,4.055,0,0,0,.018-1.36.734.734,0,0,0,.463-.084.726.726,0,0,0,.223-.16.873.873,0,0,0,.091-.1,2.186,2.186,0,0,0,.336-1.217c.018-.439-.242-.972,0-1.308a4.854,4.854,0,0,0,.66-1.266A15.137,15.137,0,0,0,725.524,332.113Z" fill="#ffa07f"/>
              <path id="Path_34275" data-name="Path 34275" d="M727.119,326.148l-.15-.951-2.543-16.1a37.133,37.133,0,0,0-2.1-5.479l-.27-1.231-.609-3.96-.764.013c.5,2.655.926,5.877,1.806,7.7.36.75.787,1.463,1.073,2.244a13.767,13.767,0,0,1,.555,2.522q.81,5.3,1.589,10.611c.432,2.966.456,6.6,1.37,9.5A43.316,43.316,0,0,0,727.119,326.148Z" fill="#ffbf90"/>
            </g>
          </g>
          <g id="Group_16364" data-name="Group 16364">
            <path id="Path_34276" data-name="Path 34276" d="M717.591,308.035s-.021.053-.063.149a1.167,1.167,0,0,1-.088.17,1.539,1.539,0,0,1-.14.211,1.722,1.722,0,0,1-.2.231,2.145,2.145,0,0,1-.976.562,2.144,2.144,0,0,1-.769.044,1.927,1.927,0,0,1-.328-.075,1.6,1.6,0,0,1-.27-.11,1.414,1.414,0,0,1-.208-.122.938.938,0,0,1-.144-.11c-.075-.066-.114-.1-.114-.1l.144.035a1.2,1.2,0,0,0,.166.034,1.941,1.941,0,0,0,.218.031,2.093,2.093,0,0,0,.26.015c.092.006.191,0,.293-.007a4.494,4.494,0,0,0,.655-.109,4.56,4.56,0,0,0,.631-.221c.094-.047.187-.086.268-.137a2.366,2.366,0,0,0,.228-.14,2.055,2.055,0,0,0,.184-.134,1.081,1.081,0,0,0,.136-.112Z" fill="#f37c71"/>
          </g>
        </g>
      </g>
      <g id="Group_16367" data-name="Group 16367" transform="translate(-1567.054 3879.021)">
        <path id="Path_34277" data-name="Path 34277" d="M723.91,300.758l-4.731,1.577-3.262,1.088-8.364-26.868h.005c.225.038,7.413,1.262,9.21,5.256C718.593,285.867,723.91,300.758,723.91,300.758Z" fill="#5f335c"/>
        <path id="Path_34278" data-name="Path 34278" d="M714.5,295.208l3.181,7.627-1.762.588-3.559-8.447-4.8-18.421h.005a8.868,8.868,0,0,1,4.433,4.872C713.056,284.713,714.5,295.208,714.5,295.208Z" fill="#472144"/>
      </g>
      <g id="Group_16384" data-name="Group 16384" transform="translate(-1567.054 3879.021)">
        <g id="Group_16382" data-name="Group 16382">
          <g id="Group_16381" data-name="Group 16381">
            <g id="Group_16380" data-name="Group 16380">
              <g id="Group_16379" data-name="Group 16379">
                <g id="Group_16378" data-name="Group 16378">
                  <path id="Path_34279" data-name="Path 34279" d="M721.977,317.262a62.139,62.139,0,0,1-26.4,5.029c-.025-.544-.055-1.162-.078-1.835-.024-.609-.049-1.262-.07-1.961-.01-.287-.021-.585-.033-.891-.021-.624-.041-1.279-.065-1.957-.285-8.415-.752-20.075-2.417-24.081-.7-1.681-4.206-9.32-4.1-9.923.122-.639,2.921-3.188,4.143-4.042a11.352,11.352,0,0,1,1.162-.737,25.1,25.1,0,0,1,2.329-1.052l5.68-.78a3.354,3.354,0,0,1,1.186-.023v.005a12.176,12.176,0,0,1,4.321,1.536c.446.237.917.516,1.423.83,4.751,2.995,3.994,15.524,3.874,17.193-.067.92,3.627,9.593,6.464,16.374q.392.939.753,1.823c.148.348.29.691.424,1.021.269.65.522,1.262.748,1.823C721.572,316.233,721.792,316.785,721.977,317.262Z" fill="#5f335c"/>
                  <g id="Group_16375" data-name="Group 16375">
                    <g id="Group_16374" data-name="Group 16374">
                      <g id="Group_16368" data-name="Group 16368">
                        <path id="Path_34280" data-name="Path 34280" d="M707.636,276.55c-.277,1.745-1.323,5.258-5.256,5.6-3.795.337-7.594-2.788-9.418-4.553a11.352,11.352,0,0,1,1.162-.737c.116-.061.233-.117.345-.172,1.071-.535,1.984-.88,1.984-.88l5.68-.78a3.354,3.354,0,0,1,1.186-.023v.005a11.126,11.126,0,0,1,3.562,1.148C707.122,276.283,707.374,276.412,707.636,276.55Z" fill="#ffa07f"/>
                        <path id="Path_34281" data-name="Path 34281" d="M707.636,276.55c-.277,1.745-1.323,5.258-5.256,5.6-3.795.337-7.594-2.788-9.418-4.553a11.352,11.352,0,0,1,1.162-.737c.116-.061.233-.117.345-.172a17.331,17.331,0,0,0,3.327,2.773,7.023,7.023,0,0,0,5.157,1.028,5.416,5.416,0,0,0,3.929-4.331C707.122,276.283,707.374,276.412,707.636,276.55Z" fill="#fde4d9"/>
                        <path id="Path_34282" data-name="Path 34282" d="M699.74,279.317l-2.932-3.045c.008-.854.08-1.176.158-3.291.082-2.352.168-4.557.168-4.557l6.638,2.624a15.639,15.639,0,0,0-1.186,5.353c-.046.748-.1,1.4-.154,1.973A1.569,1.569,0,0,1,699.74,279.317Z" fill="#ffa07f"/>
                        <path id="Path_34283" data-name="Path 34283" d="M703.772,271.048a15.639,15.639,0,0,0-1.186,5.353c-.21.088-.415.169-.608.236-.77.268-3.246-1.93-5.012-3.656.082-2.352.168-4.557.168-4.557Z" fill="#ff7d6f"/>
                      </g>
                      <g id="Group_16373" data-name="Group 16373">
                        <g id="Group_16370" data-name="Group 16370">
                          <path id="Path_34284" data-name="Path 34284" d="M710.735,263.162q-.2.921-.519,1.933s.3,3.324-.052,4.069-2.586,5.389-4.935,5.1c-1.96-.239-6.755-3.111-8.421-4.822a1.978,1.978,0,0,1-.58-.853c-.228-1.319-1.014-7.136-1.088-7.623-.2-1.319-.753-11.308,11.324-8.529a5.816,5.816,0,0,1,4.383,4.364A14.556,14.556,0,0,1,710.735,263.162Z" fill="#ffa07f"/>
                          <g id="Group_16369" data-name="Group 16369">
                            <path id="Path_34285" data-name="Path 34285" d="M706.766,270.073a7.232,7.232,0,0,0-5.989-1.213s.843,2.731,2.4,3.005C705.074,272.2,706.766,270.073,706.766,270.073Z" fill="#fc5b68"/>
                            <path id="Path_34286" data-name="Path 34286" d="M706.576,270.111a14.653,14.653,0,0,0-5.63-1.169,3.191,3.191,0,0,0,2.489,2.457A3.271,3.271,0,0,0,706.576,270.111Z" fill="#fff"/>
                          </g>
                          <path id="Path_34287" data-name="Path 34287" d="M710.216,265.1s.3,3.324-.052,4.069-2.586,5.389-4.935,5.1c-1.96-.239-6.755-3.111-8.421-4.822,2.041,1.417,7.484,5.033,9.079,4.478,1.978-.688,4.213-5.064,4.17-5.5s-.172-3.27-.172-3.27.4-.9.85-1.992Q710.534,264.083,710.216,265.1Z" fill="#ffbf90"/>
                        </g>
                        <path id="Path_34288" data-name="Path 34288" d="M711.991,253.685c0,.173-.019.34-.039.5a5.1,5.1,0,0,1-.882,2.248c-2.495,3.638-9.209,4.895-9.712,4.984,1.129-.374,1.464-2.632,1.464-2.632-1.376,3.214-7.405,3.87-7.405,3.87-1.444-1.169-2.45,1.05-2.45,1.05a27.519,27.519,0,0,1-1.208-2.48c-.029-.064-.054-.128-.084-.192-.049-.133-.1-.262-.148-.385a8.878,8.878,0,0,1-.636-2.978c-.039-1.824.681-3.524,2.219-5.723a9.865,9.865,0,0,1,5.447-3.747c.005,0,.005-.005.01-.005,4.393-1.267,9.579-.1,12.024,2.322a5.147,5.147,0,0,1,1.041,1.44c.044.1.088.2.123.3A3.716,3.716,0,0,1,711.991,253.685Z" fill="#f9c88a"/>
                        <g id="Group_16372" data-name="Group 16372">
                          <path id="Path_34289" data-name="Path 34289" d="M696.769,268.424a4.62,4.62,0,0,1-3.211-1.772,3.647,3.647,0,0,1-.32-.477c-.433-.785-.557-3.508.558-4.141.781-.443,1.35.2,1.62.625h0a2.686,2.686,0,0,1,.177.322Z" fill="#ffbf90"/>
                          <path id="Path_34290" data-name="Path 34290" d="M696.769,268.424a4.62,4.62,0,0,1-3.211-1.772c-.051-.077-.1-.15-.134-.22-.433-.785-.557-3.508.558-4.141a1.07,1.07,0,0,1,1.434.368h0a2.686,2.686,0,0,1,.177.322Z" fill="#ffa07f"/>
                          <path id="Path_34291" data-name="Path 34291" d="M693.444,264.2a1.176,1.176,0,0,0,.051.66,5.387,5.387,0,0,0,2.091,2.259,2.3,2.3,0,0,1-.306-1.432c.019-.169.055-.338.057-.508C695.344,264.491,693.774,262.909,693.444,264.2Z" fill="#ff7d6f"/>
                          <g id="Group_16371" data-name="Group 16371">
                            <path id="Path_34292" data-name="Path 34292" d="M696.025,267.375l-.049-.028c-.032-.019-.083-.044-.141-.084a1.961,1.961,0,0,1-.431-.389,1.752,1.752,0,0,1-.355-.726,1.515,1.515,0,0,1,.11-.96.867.867,0,0,1,.064-.12l.017-.029c0-.007,0,0,0,0h0l0-.005-.015-.026-.029-.052c-.02-.034-.04-.068-.061-.1a4.309,4.309,0,0,0-.263-.376c-.092-.117-.187-.225-.281-.323a2.563,2.563,0,0,0-.277-.257.614.614,0,0,0-.282-.125.456.456,0,0,0-.241.04.229.229,0,0,0-.107.1.219.219,0,0,0-.016.046.122.122,0,0,1,0-.049.212.212,0,0,1,.09-.124.492.492,0,0,1,.276-.087.774.774,0,0,1,.375.107,2.479,2.479,0,0,1,.34.244,3.743,3.743,0,0,1,.336.315,3.3,3.3,0,0,1,.31.385c.025.035.048.071.071.107l.033.055.045.077.03.054a.611.611,0,0,1-.03.055l-.044.077a.861.861,0,0,0-.055.1,1.611,1.611,0,0,0-.141.849,1.829,1.829,0,0,0,.231.693,2.035,2.035,0,0,0,.33.422c.047.046.089.078.115.1Z" fill="#cf4a57"/>
                          </g>
                        </g>
                      </g>
                    </g>
                  </g>
                  <g id="Group_16377" data-name="Group 16377">
                    <path id="Path_34293" data-name="Path 34293" d="M711.83,260.771s-1.542-2.063-2.4-1.246-.473.9-.473.9Z" fill="#ffdb9b"/>
                    <path id="Path_34294" data-name="Path 34294" d="M699.628,261.088s2.845-3.276,4.009-2.113c.68.68.208,1.142.208,1.142Z" fill="#ffdb9b"/>
                    <path id="Path_34295" data-name="Path 34295" d="M703.435,261.424a1.846,1.846,0,0,1-.915.783.779.779,0,0,0-.582-.3c-.554,0-1,.721-1,1.611s.449,1.611,1,1.611,1-.721,1-1.611a2.412,2.412,0,0,0-.119-.762A2.959,2.959,0,0,0,703.435,261.424Z" fill="#161818"/>
                    <path id="Path_34296" data-name="Path 34296" d="M699.977,262.618a2.063,2.063,0,0,0,2.214.9,2.063,2.063,0,0,0-2.214-.9Z" fill="#fff0e7"/>
                    <path id="Path_34297" data-name="Path 34297" d="M710.221,262.281a1.269,1.269,0,0,1-.627.54.56.56,0,0,0-.392-.177c-.418,0-.756.543-.756,1.214s.338,1.214.756,1.214.756-.543.756-1.214a1.759,1.759,0,0,0-.131-.683A2.189,2.189,0,0,0,710.221,262.281Z" fill="#161818"/>
                    <path id="Path_34298" data-name="Path 34298" d="M710.607,263.269a1.668,1.668,0,0,1-1.575.637,1.668,1.668,0,0,1,1.575-.637Z" fill="#fff0e7"/>
                    <g id="Group_16376" data-name="Group 16376">
                      <path id="Path_34299" data-name="Path 34299" d="M705.783,267.23a1.768,1.768,0,0,0-.754-.2,2.521,2.521,0,0,0,1.369,1.32.365.365,0,0,0,.145.033.375.375,0,0,0,.171-.063,2.956,2.956,0,0,0,.864-.769.578.578,0,0,0,.111-.207c.06-.253-.114-.2-.265-.138a2.284,2.284,0,0,1-.545.139A2.335,2.335,0,0,1,705.783,267.23Z" fill="#ff7d6f"/>
                      <path id="Path_34300" data-name="Path 34300" d="M706.452,268.206c.154-.138.328-.255.486-.39a3.937,3.937,0,0,0,.538-.549c-.824-.568-.815-1.428-.776-2.4a2.839,2.839,0,0,1,.762-1.818,3.094,3.094,0,0,1,.256-.243,1.032,1.032,0,0,1,.285-.158c-.05.058-.085.125-.131.185a5.334,5.334,0,0,0-.348.47,3.394,3.394,0,0,0-.265.529,3.453,3.453,0,0,0-.247,1.156,2.867,2.867,0,0,0,.186,1.141,2.252,2.252,0,0,0,.825,1.064s-.564.656-.619.71a2.966,2.966,0,0,1-.467.368,1.031,1.031,0,0,1-.555.22.321.321,0,0,1-.179-.053.652.652,0,0,0,.1-.078l.038-.039C706.374,268.278,706.412,268.242,706.452,268.206Z" fill="#fc5b68"/>
                    </g>
                    <path id="Path_34301" data-name="Path 34301" d="M708.887,267.576c.132.353.894.393,1.7.091s1.355-.833,1.223-1.186-.893-.393-1.7-.091S708.755,267.223,708.887,267.576Z" fill="#ff7d6f"/>
                    <path id="Path_34302" data-name="Path 34302" d="M698.73,265.93c-.137.532.738,1.219,1.956,1.534s2.316.14,2.454-.391-.738-1.219-1.955-1.534S698.868,265.4,698.73,265.93Z" fill="#ff7d6f"/>
                  </g>
                </g>
              </g>
            </g>
          </g>
          <path id="Path_34303" data-name="Path 34303" d="M696.838,292.309a30.845,30.845,0,0,0,3.708,1.107c1.432.239,2.761-.894,4.186-1.171a34.451,34.451,0,0,1,3.712-.223,4.6,4.6,0,0,0,3.307-1.463,3.95,3.95,0,0,1-3.563,2.654c-.864.008-1.714-.271-2.578-.247-1.144.031-2.751,1.094-3.853,1.4C699.719,294.942,696.968,292.278,696.838,292.309Z" fill="#472144"/>
        </g>
        <path id="Path_34304" data-name="Path 34304" d="M692.072,298.968l-10.36-5.374c2.926-8.067,7.3-12.393,7.4-12.449,2.208-1.2,5.481,2.094,6.577,4.991C696.453,288.157,693.9,295.526,692.072,298.968Z" fill="#5f335c"/>
        <g id="Group_16383" data-name="Group 16383">
          <path id="Path_34305" data-name="Path 34305" d="M690.8,282.032l.409.473c.264.3.626.763,1.047,1.35a22.374,22.374,0,0,1,4.048,10.442c.085.717.126,1.3.137,1.7l.017.625-.147-.607c-.089-.391-.233-.953-.419-1.641a53.707,53.707,0,0,0-3.995-10.3c-.326-.634-.6-1.146-.8-1.494Z" fill="#472144"/>
        </g>
      </g>
      <g id="Group_16385" data-name="Group 16385" transform="translate(-1567.054 3879.021)">
        <path id="Path_34306" data-name="Path 34306" d="M720.155,312.77A71.685,71.685,0,0,1,695.4,317.6c-.021-.624-.041-1.279-.065-1.957a69.451,69.451,0,0,0,24.071-4.7Q719.794,311.886,720.155,312.77Z" fill="#ffe6e2"/>
        <path id="Path_34307" data-name="Path 34307" d="M721.327,315.614a71.886,71.886,0,0,1-25.828,4.842c-.024-.609-.049-1.262-.07-1.961a69.548,69.548,0,0,0,25.15-4.7C720.848,314.441,721.1,315.053,721.327,315.614Z" fill="#ffe6e2"/>
      </g>
      <path id="Path_34308" data-name="Path 34308" d="M711.991,253.685c0,.173-.019.34-.039.5a13.567,13.567,0,0,1-1.469,1.011,14.615,14.615,0,0,1-5.4,1.967,3.6,3.6,0,0,0,.6-2.515,23.2,23.2,0,0,1-9.446,3.16c.627-.862,1.258-1.725,1.879-2.593.1-.133.2-.266.291-.4-.306.187-.607.385-.9.592a24.783,24.783,0,0,0-5.832,5.625,25.559,25.559,0,0,0-4.811,11.284c-.2-.054-.4-.118-.587-.177a27.8,27.8,0,0,1,4.269-13.927c.109-.183.227-.365.345-.543-.039-1.824.681-3.524,2.219-5.723a9.865,9.865,0,0,1,5.447-3.747c.005,0,.005-.005.01-.005,4.393-1.267,9.579-.1,12.024,2.322a5.133,5.133,0,0,1,.9,1.173c.054.089.1.178.143.267s.088.2.123.3A3.716,3.716,0,0,1,711.991,253.685Z" transform="translate(-1567.054 3879.021)" fill="#ffdb9b"/>
      <path id="Path_34309" data-name="Path 34309" d="M706.988,253.37a4.655,4.655,0,0,0,1.089-2.224,33.693,33.693,0,0,1-7.439,2.14,3.9,3.9,0,0,0,.922-1.9,25.051,25.051,0,0,0-11.014,6.833c.109-.183.227-.365.345-.543-.039-1.824.681-3.524,2.219-5.723a9.865,9.865,0,0,1,5.447-3.747c.005,0,.005-.005.01-.005,4.393-1.267,9.579-.1,12.024,2.322a5.133,5.133,0,0,1,.9,1.173A15.676,15.676,0,0,1,706.988,253.37Z" transform="translate(-1567.054 3879.021)" fill="#fde8aa"/>
      <g id="Group_16388" data-name="Group 16388" transform="translate(-1567.054 3879.021)">
        <path id="Path_34310" data-name="Path 34310" d="M719.512,361.568l-4-2.3-1.142-.66,2.277-6.216,2.105.843,4.387,1.753Z" fill="#ffa07f"/>
        <g id="Group_16387" data-name="Group 16387">
          <path id="Path_34311" data-name="Path 34311" d="M710.278,364.01c.048.707.2,2.584,1.632,3.015s1.5.782,2.411,2,5.279,4.06,5.279,4.06.848.762,1.157,1.12,3.395,1.047,3.661,1.25c.094.075.336-.146.576-.468.422-.562.831-1.433.406-1.579a2.351,2.351,0,0,1-.226-.092,7.7,7.7,0,0,1-3.046-2.423c-.634-1.115-2.9-7.188-2.617-9.327l-5.14-2.961C713.138,359.644,710.245,363.432,710.278,364.01Z" fill="#ffa07f"/>
          <path id="Path_34312" data-name="Path 34312" d="M710.278,364.01c.048.707.2,2.584,1.632,3.015s1.5.782,2.411,2,5.279,4.06,5.279,4.06.848.762,1.157,1.12,3.395,1.047,3.661,1.25c.094.075.336-.146.576-.468.422-.562.831-1.433.406-1.579a2.351,2.351,0,0,1-.226-.092c-1.036.3-2.886.7-3.764.154-1.252-.792-5.24-6.408-6.73-6.855s-2.533-.775-2.694-1.141,3.528-6.21,3.528-6.21l-1.143-.659C713.138,359.644,710.245,363.432,710.278,364.01Z" fill="#ff7d6f"/>
          <path id="Path_34313" data-name="Path 34313" d="M714.763,363.18c.378.4-.247-1.09.021-1.567a2.252,2.252,0,0,1,1.262-1.01,4.594,4.594,0,0,0,1.2-2.4s-1.111,1.938-1.66,2.01C715.589,360.214,712.969,361.3,714.763,363.18Z" fill="#cf4a57"/>
        </g>
        <path id="Path_34314" data-name="Path 34314" d="M715.512,359.265l-1.142-.66,2.277-6.216,2.105.843Z" fill="#ff7d6f"/>
      </g>
      <path id="Path_34315" data-name="Path 34315" d="M721.977,317.262s14.78-1.22,19.881,3.812c3.453,4.981-20.157,39.549-20.157,39.549l-7.987-3.973,9-26.613-11.228-9.308Z" transform="translate(-1567.054 3879.021)" fill="#b48674"/>
      <g id="Group_16391" data-name="Group 16391" transform="translate(-1567.054 3879.021)">
        <path id="Path_34316" data-name="Path 34316" d="M743.827,366.268l-4.548.79-1.3.224-2.229-6.233,2.157-.7,4.493-1.461Z" fill="#ffa07f"/>
        <g id="Group_16390" data-name="Group 16390">
          <path id="Path_34317" data-name="Path 34317" d="M738.295,374.054c.489.512,1.807,1.858,3.184,1.273s1.652-.36,3.134-.005,6.654-.26,6.654-.26,1.14.043,1.606.121,3.278-1.369,3.613-1.384c.12,0,.164-.327.143-.728-.035-.7-.279-1.632-.7-1.473a2.033,2.033,0,0,1-.233.074,7.692,7.692,0,0,1-3.89.088c-1.2-.451-6.827-3.669-7.981-5.491l-5.844,1.015C737.7,368.869,737.9,373.631,738.295,374.054Z" fill="#ffa07f"/>
          <path id="Path_34318" data-name="Path 34318" d="M738.295,374.054c.489.512,1.807,1.858,3.184,1.273s1.652-.36,3.134-.005,6.654-.26,6.654-.26,1.14.043,1.606.121,3.278-1.369,3.613-1.384c.12,0,.164-.327.143-.728-.035-.7-.279-1.632-.7-1.473a2.033,2.033,0,0,1-.233.074c-.606.891-1.767,2.388-2.793,2.527-1.469.193-8.128-1.569-9.558-.96s-2.442,1.027-2.8.848-1.264-7.029-1.264-7.029l-1.3.226C737.7,368.869,737.9,373.631,738.295,374.054Z" fill="#ff7d6f"/>
          <path id="Path_34319" data-name="Path 34319" d="M741.21,370.546c.544.063-.887-.68-.987-1.218a2.248,2.248,0,0,1,.323-1.583,4.6,4.6,0,0,0-.611-2.614s.387,2.2.011,2.607C739.946,367.738,738.628,370.249,741.21,370.546Z" fill="#cf4a57"/>
        </g>
        <path id="Path_34320" data-name="Path 34320" d="M739.279,367.058l-1.3.224-2.229-6.233,2.157-.7Z" fill="#ff7d6f"/>
      </g>
      <path id="Path_34321" data-name="Path 34321" d="M744.269,364.531l-5.742,1.1-2.956.569-10.82-28.77s-17.021,2.111-22.559.056-4.949-15.151-4.949-15.151l3.027-.37,12.367-1.509s15.972,2.477,20.561,4.783S744.269,364.531,744.269,364.531Z" transform="translate(-1567.054 3879.021)" fill="#ca9f87"/>
      <path id="Path_34322" data-name="Path 34322" d="M738.527,365.632l-2.956.569-10.82-28.77s-17.021,2.111-22.559.056-4.949-15.151-4.949-15.151l3.027-.37c-.038,3.516.11,12.015,2.273,12.9,2.738,1.12,23.931-.384,23.931-.384Z" transform="translate(-1567.054 3879.021)" fill="#b48674"/>
      <path id="Path_34323" data-name="Path 34323" d="M704.294,306.482l-.859,4.465a.038.038,0,0,1-.014-.005c-.659-.185-21.733-6.187-23.2-10.51-.455-1.358,3.137-5.984,3.137-5.984l1.822.944,6.615,3.436-.213.351Z" transform="translate(-1567.054 3879.021)" fill="#ffa07f"/>
      <g id="Group_16399" data-name="Group 16399" transform="translate(-1567.054 3879.021)">
        <g id="Group_16398" data-name="Group 16398">
          <g id="Group_16397" data-name="Group 16397">
            <g id="Group_16396" data-name="Group 16396">
              <path id="Path_34324" data-name="Path 34324" d="M716.34,310.182c-.368.69-4.819-2.374-4.819-2.374l-1.233.857,1.74,1.454,1.218,3.073s-.444.464-1.021,1c-.072.067-.147.134-.221.2a12.863,12.863,0,0,1-1.083.894c-.033.026-.069.05-.1.075a4.088,4.088,0,0,1-.5.3.9.9,0,0,1-.429.115l-1.445-2.132a23.3,23.3,0,0,1-3.985-.609,7.957,7.957,0,0,1-.95-1.969c-.188-.475-.905-2.329-1.078-2.8l1.547-1.746,2.953-.242c.348-.041.809-.087,1.326-.12h0c.254-.017.52-.03.793-.039a10.847,10.847,0,0,1,2.861.217,2.642,2.642,0,0,1,.867.368C714.338,307.8,716.707,309.493,716.34,310.182Z" fill="#ffa07f"/>
              <g id="Group_16395" data-name="Group 16395">
                <g id="Group_16393" data-name="Group 16393">
                  <path id="Path_34325" data-name="Path 34325" d="M710.921,315.29c-.033.026-.069.05-.1.075-.049-.1-.11-.222-.185-.374-.173-.343-.413-.8-.682-1.295a8.473,8.473,0,0,0-.793-1.212l-.168-.2c-.055-.055-.1-.1-.142-.142l-.122-.128s.061.021.171.066c.055.021.123.049.2.084s.154.088.246.144a3.387,3.387,0,0,1,1.092,1.175,4.034,4.034,0,0,1,.46,1.45C710.913,315.074,710.919,315.194,710.921,315.29Z" fill="#cf4a57"/>
                </g>
                <g id="Group_16394" data-name="Group 16394">
                  <path id="Path_34326" data-name="Path 34326" d="M712.225,314.193c-.072.067-.147.134-.221.2-.012-.019-.022-.04-.032-.06-.172-.343-.412-.8-.682-1.294a8.517,8.517,0,0,0-.792-1.213c-.062-.074-.117-.141-.167-.2l-.142-.143-.122-.127s.059.021.17.064c.054.023.123.05.2.085s.156.089.247.144a3.37,3.37,0,0,1,1.091,1.176A3.973,3.973,0,0,1,712.225,314.193Z" fill="#cf4a57"/>
                </g>
              </g>
            </g>
          </g>
        </g>
      </g>
      <path id="Path_34327" data-name="Path 34327" d="M703.421,310.942c-.659-.185-21.733-6.187-23.2-10.51-.455-1.358,3.137-5.984,3.137-5.984l1.822.944c-1.471,1.837-3.208,4.2-2.994,4.864C682.547,301.362,702.79,310.648,703.421,310.942Z" transform="translate(-1567.054 3879.021)" fill="#ffbf90"/>
      <g id="Group_16403" data-name="Group 16403" transform="translate(-1567.054 3879.021)">
        <path id="Path_34328" data-name="Path 34328" d="M753.943,364.133l4.72.8,1.348.227,2.286-6.473-2.24-.717-4.665-1.5Z" fill="#ffa07f"/>
        <g id="Group_16402" data-name="Group 16402">
          <path id="Path_34329" data-name="Path 34329" d="M759.712,372.185c-.505.533-1.866,1.935-3.3,1.333s-1.715-.366-3.251.007-6.9-.242-6.9-.242-1.181.049-1.664.132-3.405-1.407-3.752-1.421c-.125,0-.172-.338-.152-.754.034-.728.283-1.694.719-1.53a2.292,2.292,0,0,0,.242.076,8,8,0,0,0,4.035.075c1.243-.473,7.064-3.832,8.254-5.727l6.064,1.029C760.31,366.806,760.121,371.745,759.712,372.185Z" fill="#ffa07f"/>
          <path id="Path_34330" data-name="Path 34330" d="M759.712,372.185c-.505.533-1.866,1.935-3.3,1.333s-1.715-.366-3.251.007-6.9-.242-6.9-.242-1.181.049-1.664.132-3.405-1.407-3.752-1.421c-.125,0-.172-.338-.152-.754.034-.728.283-1.694.719-1.53a2.292,2.292,0,0,0,.242.076c.632.921,1.842,2.469,2.906,2.609,1.525.194,8.423-1.661,9.909-1.034s2.536,1.054,2.907.867,1.283-7.294,1.283-7.294l1.348.229C760.31,366.806,760.121,371.745,759.712,372.185Z" fill="#ff7d6f"/>
          <path id="Path_34331" data-name="Path 34331" d="M756.675,368.559c-.564.067.917-.708,1.019-1.267a2.338,2.338,0,0,0-.342-1.64,4.768,4.768,0,0,1,.623-2.714s-.392,2.284,0,2.7C757.974,365.642,759.352,368.241,756.675,368.559Z" fill="#cf4a57"/>
        </g>
        <path id="Path_34332" data-name="Path 34332" d="M758.663,364.934l1.348.227,2.286-6.473-2.24-.717Z" fill="#ff7d6f"/>
      </g>
      <path id="Path_34333" data-name="Path 34333" d="M784.957,323.078s-20.543-.447-22.052.654-9.526,35.826-9.526,35.826l11.661,1.477,4.722-22.61,21.445-7.8,4.429-7.556Z" transform="translate(-1567.054 3879.021)" fill="#af97a6"/>
      <g id="Group_16406" data-name="Group 16406" transform="translate(-1567.054 3879.021)">
        <g id="Group_16405" data-name="Group 16405">
          <path id="Path_34334" data-name="Path 34334" d="M770.114,373.281l4.771-.388,1.363-.113.618-6.837-2.348-.142-4.89-.3Z" fill="#ffa07f"/>
          <g id="Group_16404" data-name="Group 16404">
            <path id="Path_34335" data-name="Path 34335" d="M777.691,379.66c-.358.642-1.331,2.336-2.865,2.105s-1.752.069-3.148.81-6.748,1.468-6.748,1.468-1.133.339-1.581.539-3.647-.523-3.986-.451c-.121.03-.251-.286-.334-.693-.147-.714-.144-1.712.319-1.661a2.487,2.487,0,0,0,.253.014,7.984,7.984,0,0,0,3.929-.922c1.088-.765,5.9-5.458,6.586-7.587l6.131-.5C776.943,374.3,777.979,379.133,777.691,379.66Z" fill="#ffa07f"/>
            <path id="Path_34336" data-name="Path 34336" d="M777.691,379.66c-.358.642-1.331,2.336-2.865,2.105s-1.752.069-3.148.81-6.748,1.468-6.748,1.468-1.133.339-1.581.539-3.647-.523-3.986-.451c-.121.03-.251-.286-.334-.693-.147-.714-.144-1.712.319-1.661a2.487,2.487,0,0,0,.253.014c.841.737,2.395,1.938,3.461,1.812,1.525-.189,7.752-3.688,9.347-3.448s2.718.4,3.031.123-.557-7.385-.557-7.385l1.364-.111C776.943,374.3,777.979,379.133,777.691,379.66Z" fill="#ff7d6f"/>
            <path id="Path_34337" data-name="Path 34337" d="M773.853,376.9c-.529.2.715-.913.675-1.479a2.335,2.335,0,0,0-.736-1.505,4.775,4.775,0,0,1-.066-2.784s.184,2.31.666,2.621C774.392,373.749,776.369,375.927,773.853,376.9Z" fill="#cf4a57"/>
          </g>
          <path id="Path_34338" data-name="Path 34338" d="M774.885,372.893l1.363-.113.618-6.837-2.348-.142Z" fill="#ff7d6f"/>
        </g>
        <path id="Path_34339" data-name="Path 34339" d="M768.939,368.5l5.93.436,4,.293,1.987-31.408s25.729.866,28.564-3.414c1.914-2.895,1.03-14.342,1.03-14.342l-1.539.3-17.283,3.4s-19.973,3.392-23.246,7.065S768.939,368.5,768.939,368.5Z" fill="#c2adb9"/>
        <path id="Path_34340" data-name="Path 34340" d="M774.869,368.934l4,.293,1.987-31.408s25.729.866,28.564-3.414c1.914-2.895,1.03-14.342,1.03-14.342l-1.539.3c-.095,2.259-.6,12.011-2.317,12.458-1.941.511-28.426,2.541-28.426,2.541Z" fill="#af97a6"/>
      </g>
      <path id="Path_34341" data-name="Path 34341" d="M806.161,288.156a7.211,7.211,0,0,1-4.342,1.66,31.762,31.762,0,0,1-10.245-.431,18.541,18.541,0,0,1-6.325-2.392,10.181,10.181,0,0,1-4.238-5.158,7.041,7.041,0,0,1,.921-6.463c.873-1.13,2.131-1.922,2.975-3.075,1.277-1.742,1.433-4.062,1.253-6.212-.119-1.457-.375-2.913-.465-4.365a13.353,13.353,0,0,1,.019-2.088c.19-2.065,1.428-4.883,3.236-6.1,2.074-1.4,5.543-1.476,7.915-1.234a11.778,11.778,0,0,1,7.327,3.341,12.084,12.084,0,0,1,3.094,6.976c.066.569.1,1.143.114,1.713a24.634,24.634,0,0,1-.726,5.993,20.925,20.925,0,0,0-.9,5.49c.09,2.15,1.006,4.171,1.485,6.269S807.685,286.637,806.161,288.156Z" transform="translate(-1567.054 3879.021)" fill="#3f0727"/>
      <path id="Path_34342" data-name="Path 34342" d="M790.012,302.544s-4.486,4.125-8.276,7.053c-2.255,1.749-4.268,3.071-4.923,2.84-1.765-.619-14.795-5.909-14.795-5.909l.358-1.326.574-2.135.1-.386.173-.635,0,0,.477.1a.533.533,0,0,1,.061.011l.192.038,13.772,2.817c2.751-2.8,9-8.643,9-8.643l1.122,2.107Z" transform="translate(-1567.054 3879.021)" fill="#ffa07f"/>
      <path id="Path_34343" data-name="Path 34343" d="M781.736,309.6c-2.255,1.749-4.268,3.071-4.923,2.84-1.765-.619-14.795-5.909-14.795-5.909l.358-1.326.446-.248s12.946,5.14,13.3,5.215C776.322,310.21,779.158,309.895,781.736,309.6Z" transform="translate(-1567.054 3879.021)" fill="#ff7d6f"/>
      <path id="Path_34344" data-name="Path 34344" d="M787.849,298.477l-10.725,8.693c-.742,0-13.806-3.929-13.806-3.929l-.266-.56.173-.635,0,0,.477.1a.533.533,0,0,1,.061.011l.192.038,13.772,2.817c2.751-2.8,9-8.643,9-8.643Z" transform="translate(-1567.054 3879.021)" fill="#ffbf90"/>
      <g id="Group_16413" data-name="Group 16413" transform="translate(-1567.054 3879.021)">
        <g id="Group_16411" data-name="Group 16411">
          <path id="Path_34345" data-name="Path 34345" d="M750.611,296.942c.221-.495,8.733,1.37,8.733,1.37a6.171,6.171,0,0,1-1.21-3.892l0-.039a.353.353,0,0,1,.152-.311.324.324,0,0,1,.169-.021,1.731,1.731,0,0,1,1.2.786,13.091,13.091,0,0,1,.706,1.3,7.338,7.338,0,0,0,1.929,2.032c1.236,1.011.932,3.884.932,3.884s.214.089.5.216l-1.409,4.175-1.829-.634-1.182.354c-.877.14-8.814-2.443-8.8-3a3.572,3.572,0,0,1,.048-.473c.04-.245.1-.473.132-.624.029-.112.051-.179.051-.179a5.311,5.311,0,0,1-.149-.653,3,3,0,0,1-.061-.64.621.621,0,0,1,.167-.487,3.781,3.781,0,0,1,1.338-.068c1.712.065,4.422.342,4.325.164-.136-.245-5.78-2.327-5.78-2.327a1.151,1.151,0,0,1-.077-.422A1.227,1.227,0,0,1,750.611,296.942Z" fill="#ffa07f"/>
          <path id="Path_34346" data-name="Path 34346" d="M750.7,300.1a3.781,3.781,0,0,1,1.338-.068c.219.451.327,1.015.558,1.418a4.754,4.754,0,0,0,1.471,1.577,7.513,7.513,0,0,0,3.371,1.05c1.179.13,2.376.144,3.542.364a12.237,12.237,0,0,1,1.842.511l-.546,1.682-1.784-.83-1.182.354c-.877.14-8.814-2.443-8.8-3a3.572,3.572,0,0,1,.048-.473c.04-.245.1-.473.132-.624.029-.112.051-.179.051-.179a5.311,5.311,0,0,1-.149-.653,3,3,0,0,1-.061-.64A.621.621,0,0,1,750.7,300.1Z" fill="#ff7d6f"/>
          <g id="Group_16410" data-name="Group 16410">
            <g id="Group_16408" data-name="Group 16408">
              <path id="Path_34347" data-name="Path 34347" d="M750.592,301.229c.153.034.309.068.468.1a13.421,13.421,0,0,0,2.407.215c.582,0,.958-.038,1-.044-.042-.013-.4-.125-.961-.273-.6-.157-1.418-.358-2.332-.525-.22-.041-.435-.076-.643-.11A3.233,3.233,0,0,0,750.592,301.229Z" fill="#cf4a57"/>
            </g>
            <g id="Group_16409" data-name="Group 16409">
              <path id="Path_34348" data-name="Path 34348" d="M750.561,302.684a14.235,14.235,0,0,0,2.779.286,14.184,14.184,0,0,0-2.649-.91C750.654,302.211,750.6,302.44,750.561,302.684Z" fill="#cf4a57"/>
            </g>
          </g>
          <path id="Path_34349" data-name="Path 34349" d="M763.392,303.271c-.023-.011-.051-.02-.074-.03a3.239,3.239,0,0,1-.368-.174,1.06,1.06,0,0,1-.249-.214,1.411,1.411,0,0,1-.237-.842,7.769,7.769,0,0,0-.446-2.838c-.481-1.033-1.481-1.719-2.146-2.646a7.79,7.79,0,0,0-1.478-1.978c-.08-.058-.168-.111-.257-.17a.358.358,0,0,1,.15-.31.384.384,0,0,1,.171-.02,1.714,1.714,0,0,1,1.2.788,13.2,13.2,0,0,1,.707,1.295,7.34,7.34,0,0,0,1.925,2.032c1.24,1.012.939,3.884.939,3.884s.219.056.477.1a.533.533,0,0,1,.061.011l.192.038Z" fill="#ffbf90"/>
        </g>
        <g id="Group_16412" data-name="Group 16412">
          <path id="Path_34350" data-name="Path 34350" d="M761.062,303.927l-.167-.049a2.308,2.308,0,0,1-.436-.192A2.8,2.8,0,0,1,759.045,301a2.254,2.254,0,0,1,.087-.469l.054-.165.041.167c.023.106.065.258.121.436a8.282,8.282,0,0,0,1.307,2.48c.116.146.217.267.292.345Z" fill="#cf4a57"/>
        </g>
      </g>
      <path id="Path_34351" data-name="Path 34351" d="M790.718,282.028s-3.606,2.888-4.266,4.231-5.92,13.257-5.92,13.257l9.379,6.605,1.511-5.715Z" transform="translate(-1567.054 3879.021)" fill="#d94562"/>
      <g id="Group_16434" data-name="Group 16434" transform="translate(-1567.054 3879.021)">
        <g id="Group_16433" data-name="Group 16433">
          <g id="Group_16432" data-name="Group 16432">
            <g id="Group_16431" data-name="Group 16431">
              <g id="Group_16430" data-name="Group 16430">
                <g id="Group_16429" data-name="Group 16429">
                  <path id="Path_34352" data-name="Path 34352" d="M782.217,323.032c13.87,3.842,29.71,1.423,29.75,1.412-.059-.545-5.335-25.49-4.293-29.733.437-1.779,2.756-9.92,2.552-10.5-.218-.617-3.4-2.724-4.742-3.387a11.538,11.538,0,0,0-1.271-.555,25.163,25.163,0,0,0-2.478-.689l-5.773.1a3.409,3.409,0,0,0-1.184.159v.005a12.283,12.283,0,0,0-4.065,2.192c-.407.3-.833.654-1.288,1.044-4.268,3.71-1.592,16.063-1.217,17.705C788.416,301.682,782.327,322.529,782.217,323.032Z" fill="#d94562"/>
                  <g id="Group_16426" data-name="Group 16426">
                    <g id="Group_16425" data-name="Group 16425">
                      <g id="Group_16415" data-name="Group 16415">
                        <path id="Path_34353" data-name="Path 34353" d="M790.718,282.028c.545,1.694,2.124,5.029,6.091,4.77,3.829-.247,7.13-3.941,8.675-5.977a11.538,11.538,0,0,0-1.271-.555c-.124-.042-.249-.08-.369-.118-1.148-.368-2.109-.571-2.109-.571l-5.773.1a3.409,3.409,0,0,0-1.184.159v.005a11.225,11.225,0,0,0-3.368,1.689Q791.079,281.761,790.718,282.028Z" fill="#ffa07f"/>
                        <path id="Path_34354" data-name="Path 34354" d="M796.649,285.04l5.088-5.461c-.023-.86-.1-1.183-.214-3.311-.122-2.367-.245-4.585-.245-4.585l-6.64,2.752a15.762,15.762,0,0,1,1.284,5.37A28.727,28.727,0,0,0,796.649,285.04Z" fill="#ffa07f"/>
                        <path id="Path_34355" data-name="Path 34355" d="M794.638,274.435a15.762,15.762,0,0,1,1.284,5.37c.213.085.42.163.615.227.78.257,3.237-2,4.986-3.764-.122-2.367-.245-4.585-.245-4.585Z" fill="#ff7d6f"/>
                      </g>
                      <g id="Group_16424" data-name="Group 16424">
                        <g id="Group_16421" data-name="Group 16421">
                          <path id="Path_34356" data-name="Path 34356" d="M787.5,266.611q.218.924.555,1.937s-.244,3.352.12,4.1,2.693,5.383,5.053,5.054c1.97-.273,6.749-3.244,8.4-4.994a1.984,1.984,0,0,0,.569-.868c.209-1.332.9-7.2.97-7.693.179-1.331.57-11.4-11.542-8.4a5.855,5.855,0,0,0-4.341,4.467A14.667,14.667,0,0,0,787.5,266.611Z" fill="#ffa07f"/>
                          <g id="Group_16416" data-name="Group 16416">
                            <path id="Path_34357" data-name="Path 34357" d="M798.661,267a2.152,2.152,0,0,0-4.1.513,3.387,3.387,0,0,1,1.97-.858A3.428,3.428,0,0,1,798.661,267Z" fill="#161818"/>
                          </g>
                          <g id="Group_16419" data-name="Group 16419">
                            <g id="Group_16417" data-name="Group 16417">
                              <path id="Path_34358" data-name="Path 34358" d="M790.392,272.967l.22.124a4.327,4.327,0,0,0,.634.284,5.277,5.277,0,0,0,4.1-.215,4.941,4.941,0,0,0,.966-.621l-.026-.045-.186.122.21-.075-.026-.046a8.592,8.592,0,0,1-4.982.676c-.281-.048-.51-.1-.665-.141Z" fill="#fc5b68"/>
                            </g>
                            <g id="Group_16418" data-name="Group 16418">
                              <path id="Path_34359" data-name="Path 34359" d="M792.56,274.49a1.558,1.558,0,0,0,.377.262,1.948,1.948,0,0,0,2.384-.471l-.029-.046-.078.076.1-.029-.029-.045a5.257,5.257,0,0,1-1.3.3,4.84,4.84,0,0,1-.995.01C792.734,274.524,792.56,274.49,792.56,274.49Z" fill="#fc5b68"/>
                            </g>
                          </g>
                          <path id="Path_34360" data-name="Path 34360" d="M788.052,268.548s-.244,3.352.12,4.1,2.693,5.383,5.053,5.054c1.97-.273,6.749-3.244,8.4-4.994-2.031,1.461-7.451,5.192-9.067,4.659-2-.659-4.325-5.028-4.289-5.465s.119-3.3.119-3.3-.417-.9-.889-1.991Q787.715,267.535,788.052,268.548Z" fill="#ffbf90"/>
                          <g id="Group_16420" data-name="Group 16420">
                            <path id="Path_34361" data-name="Path 34361" d="M790.593,267.59a1.625,1.625,0,0,0-3.1.387,2.555,2.555,0,0,1,1.487-.648A2.586,2.586,0,0,1,790.593,267.59Z" fill="#161818"/>
                          </g>
                        </g>
                        <g id="Group_16423" data-name="Group 16423">
                          <path id="Path_34362" data-name="Path 34362" d="M801.646,271.676a4.649,4.649,0,0,0,3.2-1.837,3.658,3.658,0,0,0,.314-.485c.423-.8.5-3.541-.63-4.16-.794-.433-1.356.223-1.621.656h0a2.571,2.571,0,0,0-.172.327Z" fill="#ffbf90"/>
                          <path id="Path_34363" data-name="Path 34363" d="M801.646,271.676a4.649,4.649,0,0,0,3.2-1.837c.05-.078.094-.153.131-.223.423-.8.5-3.542-.63-4.16a1.078,1.078,0,0,0-1.438.394h0a2.571,2.571,0,0,0-.172.327Z" fill="#ffa07f"/>
                          <path id="Path_34364" data-name="Path 34364" d="M804.923,267.366a1.174,1.174,0,0,1-.041.665,5.416,5.416,0,0,1-2.068,2.309,2.305,2.305,0,0,0,.285-1.446c-.021-.171-.061-.34-.066-.511C803.015,267.693,804.569,266.075,804.923,267.366Z" fill="#ff7d6f"/>
                          <g id="Group_16422" data-name="Group 16422">
                            <path id="Path_34365" data-name="Path 34365" d="M802.377,270.609l.049-.029c.032-.02.083-.047.141-.087a2.007,2.007,0,0,0,.427-.4,1.766,1.766,0,0,0,.345-.736,1.527,1.527,0,0,0-.126-.965,1,1,0,0,0-.066-.12l-.018-.029c-.005-.007,0,0,0,0h0l0,0,.014-.027.029-.053c.02-.035.039-.07.059-.1a4.072,4.072,0,0,1,.259-.384c.091-.119.185-.229.277-.329a2.564,2.564,0,0,1,.274-.264.618.618,0,0,1,.283-.13.447.447,0,0,1,.243.036.234.234,0,0,1,.11.1.2.2,0,0,1,.016.046.115.115,0,0,0,0-.049.213.213,0,0,0-.092-.124.5.5,0,0,0-.28-.083.778.778,0,0,0-.375.114,2.536,2.536,0,0,0-.339.251,3.855,3.855,0,0,0-.332.323,3.373,3.373,0,0,0-.307.393c-.024.036-.046.072-.069.109l-.032.055-.044.079-.03.055c.008.018.021.036.031.054l.046.077a.713.713,0,0,1,.057.105,1.612,1.612,0,0,1,.156.852,1.842,1.842,0,0,1-.221.7,2.048,2.048,0,0,1-.325.429c-.046.048-.089.081-.114.106Z" fill="#cf4a57"/>
                          </g>
                        </g>
                      </g>
                    </g>
                  </g>
                  <g id="Group_16428" data-name="Group 16428">
                    <path id="Path_34366" data-name="Path 34366" d="M787.461,265.369s.555-2.534,1.683-2.142.809.631.809.631Z" fill="#55062c"/>
                    <path id="Path_34367" data-name="Path 34367" d="M798.289,263.816s-3.2-2.972-4.242-1.681c-.607.753-.084,1.165-.084,1.165Z" fill="#55062c"/>
                    <g id="Group_16427" data-name="Group 16427">
                      <path id="Path_34368" data-name="Path 34368" d="M792.55,270.624a1.789,1.789,0,0,1,.756-.212,2.535,2.535,0,0,1-1.356,1.352.292.292,0,0,1-.319-.025,3,3,0,0,1-.883-.76.583.583,0,0,1-.115-.206c-.064-.254.112-.2.265-.144a2.352,2.352,0,0,0,1.652-.005Z" fill="#ff7d6f"/>
                      <path id="Path_34369" data-name="Path 34369" d="M791.893,271.618c-.158-.136-.334-.251-.5-.385a3.983,3.983,0,0,1-.551-.543c.821-.586.8-1.452.742-2.433a2.856,2.856,0,0,0-.8-1.819,2.982,2.982,0,0,0-.262-.24,1.044,1.044,0,0,0-.289-.154c.052.057.088.125.135.184a5.617,5.617,0,0,1,.359.467,3.58,3.58,0,0,1,.275.529,3.455,3.455,0,0,1,.267,1.159,2.856,2.856,0,0,1-.167,1.152,2.275,2.275,0,0,1-.813,1.085s.578.652.634.7a3,3,0,0,0,.477.364,1.04,1.04,0,0,0,.562.212.334.334,0,0,0,.18-.057.614.614,0,0,1-.1-.076l-.039-.039A1.517,1.517,0,0,0,791.893,271.618Z" fill="#fc5b68"/>
                    </g>
                    <path id="Path_34370" data-name="Path 34370" d="M789.431,271.024c-.127.357-.893.411-1.711.12s-1.378-.816-1.251-1.173.893-.411,1.711-.12S789.558,270.667,789.431,271.024Z" fill="#ff7d6f"/>
                    <path id="Path_34371" data-name="Path 34371" d="M799.629,269.2c.148.533-.722,1.239-1.943,1.576s-2.33.18-2.477-.353.722-1.239,1.943-1.577S799.482,268.665,799.629,269.2Z" fill="#ff7d6f"/>
                  </g>
                </g>
              </g>
            </g>
          </g>
        </g>
      </g>
      <path id="Path_34372" data-name="Path 34372" d="M810.226,284.208A12.324,12.324,0,0,1,814,289.152c1.028,2.884-.545,16.265-.545,16.265l-12.516-.222,6.682-19.68Z" transform="translate(-1567.054 3879.021)" fill="#d94562"/>
      <path id="Path_34373" data-name="Path 34373" d="M803.295,303.53c.711-5.7,3.791-11.632,7.443-16,.081-.1.213.016.15.118a67.287,67.287,0,0,0-4.3,8.026c-1.141,2.608-1.862,5.321-2.808,7.993C803.682,303.948,803.261,303.808,803.295,303.53Z" transform="translate(-1567.054 3879.021)" fill="#b3314f"/>
      <path id="Path_34374" data-name="Path 34374" d="M790.029,285.883c.045-.071.145,0,.12.071-1.936,5.394-2.925,10.333-2.021,16.075.062.393-.528.453-.606.073C786.437,296.808,787.064,290.512,790.029,285.883Z" transform="translate(-1567.054 3879.021)" fill="#b3314f"/>
      <path id="Path_34375" data-name="Path 34375" d="M789.584,301.874c1.609-.092,2.91-.971,4.525-.478.733.224,1.386.645,2.123.865a6.06,6.06,0,0,0,3.957-.34.168.168,0,0,1,.165.288,4.657,4.657,0,0,1-4.381.841c-1.228-.337-2.069-.983-3.414-.843a7.973,7.973,0,0,1-2.983.206C789.3,302.346,789.255,301.893,789.584,301.874Z" transform="translate(-1567.054 3879.021)" fill="#b3314f"/>
      <path id="Path_34376" data-name="Path 34376" d="M786.711,259.038a5.993,5.993,0,0,1,1.67-3.536A6.483,6.483,0,0,1,792,253.88a13.388,13.388,0,0,1,4.034.165,15.572,15.572,0,0,1,4.67,1.446,7.723,7.723,0,0,1,3.393,3.265c.991,1.991.817,4.279.531,6.478a3.05,3.05,0,0,0-2.2,2.373,4.075,4.075,0,0,0-.149-1.666,1.165,1.165,0,0,1-1.428-.754c-.22-.542-.189-1.152-.387-1.7a3.838,3.838,0,0,0-2.474-2.01,16.069,16.069,0,0,1-3.128-1.184,4.946,4.946,0,0,1-1.852-2.168,7.383,7.383,0,0,1-.858.55,10.959,10.959,0,0,0-2.55,1.594c-.877.875-1.551,2.218-2.729,2.673A13.885,13.885,0,0,1,786.711,259.038Z" transform="translate(-1567.054 3879.021)" fill="#3f0727"/>
      <path id="Path_34377" data-name="Path 34377" d="M807.4,264.325a13.6,13.6,0,0,1-1.22-1c-1.366-1.271-2.543-2.88-4.294-3.525-1.281-.475-2.733-.37-3.981-.935-1.3-.584-2.231-1.837-3.574-2.321a5.131,5.131,0,0,0-4.731,1.125,36.769,36.769,0,0,0-3.511,3.663c-.128.133-.261.261-.394.39a13.353,13.353,0,0,1,.019-2.088,9.672,9.672,0,0,1,.944-3.222,7.233,7.233,0,0,1,2.292-2.881c2.074-1.4,5.543-1.476,7.915-1.234a11.778,11.778,0,0,1,7.327,3.341,10.938,10.938,0,0,1,2.335,3.8,13.889,13.889,0,0,1,.759,3.18C807.352,263.181,807.39,263.755,807.4,264.325Z" transform="translate(-1567.054 3879.021)" fill="#55062c"/>
      <path id="Path_34378" data-name="Path 34378" d="M806.527,259.432q-3.816-1.486-7.626-2.98c-2.344-.916-4.769-1.846-7.279-1.736a11.384,11.384,0,0,0-4.964,1.694,7.233,7.233,0,0,1,2.292-2.881c2.074-1.4,5.543-1.476,7.915-1.234a11.778,11.778,0,0,1,7.327,3.341A10.938,10.938,0,0,1,806.527,259.432Z" transform="translate(-1567.054 3879.021)" fill="#6f0a32"/>
      <path id="Path_34379" data-name="Path 34379" d="M810.8,305.371S809.516,320.8,802,317.13c-9.813-3.435-19.365-10.354-23.8-13.875l.024-.038,2.3-3.7,22.346,9.215.612-3.492,5.708.1Z" transform="translate(-1567.054 3879.021)" fill="#ffa07f"/>
      <g id="Group_16440" data-name="Group 16440" transform="translate(-1567.054 3879.021)">
        <path id="Path_34380" data-name="Path 34380" d="M780.532,299.516l-2.3,3.7-.024.038-1.49-.944a1.475,1.475,0,0,1-.128-.081.053.053,0,0,1-.019-.009l-1.229.071c-.888-.062-8.02-4.4-7.877-4.94a3.494,3.494,0,0,1,.156-.446c.1-.233.2-.442.271-.579a1.643,1.643,0,0,1,.09-.161,4.775,4.775,0,0,1,.005-.67,3.085,3.085,0,0,1,.085-.64.618.618,0,0,1,.275-.432,3.658,3.658,0,0,1,1.319.237c1.652.456,4.224,1.348,4.172,1.153-.076-.27-5.092-3.592-5.092-3.592a1.218,1.218,0,0,1,.019-.427,1.231,1.231,0,0,1,.223-.47c.323-.427,7.953,3.227,8.181,3.332a6.156,6.156,0,0,1-.28-4.062.087.087,0,0,1,.009-.034c.038-.123.1-.242.219-.27a.3.3,0,0,1,.17.019,1.726,1.726,0,0,1,.987,1.039,12.181,12.181,0,0,1,.389,1.424,7.309,7.309,0,0,0,1.415,2.42c.972,1.267.014,3.995.014,3.995S780.281,299.326,780.532,299.516Z" fill="#ffa07f"/>
        <g id="Group_16439" data-name="Group 16439">
          <g id="Group_16437" data-name="Group 16437">
            <path id="Path_34381" data-name="Path 34381" d="M767.983,295.495c.141.068.285.136.433.2a13.412,13.412,0,0,0,2.294.761c.567.131.941.182.985.187-.037-.023-.362-.215-.872-.486-.546-.29-1.3-.674-2.149-1.046-.206-.09-.407-.174-.6-.255A3.19,3.19,0,0,0,767.983,295.495Z" fill="#cf4a57"/>
          </g>
          <g id="Group_16438" data-name="Group 16438">
            <path id="Path_34382" data-name="Path 34382" d="M767.619,296.9a14.091,14.091,0,0,0,2.64.915,14.2,14.2,0,0,0-2.37-1.492C767.818,296.465,767.713,296.675,767.619,296.9Z" fill="#cf4a57"/>
          </g>
        </g>
      </g>
      <path id="Path_34383" data-name="Path 34383" d="M810.8,305.371S809.516,320.8,802,317.13c-9.813-3.435-19.365-10.354-23.8-13.875l-1.49-.944c.242.142.764.46,1.514.906,5.59,3.312,23.56,13.757,26.464,12.827,2.558-.826,3.953-7.379,4.5-10.7Z" transform="translate(-1567.054 3879.021)" fill="#ffbf90"/>
      <path id="Path_34384" data-name="Path 34384" d="M799.113,262.944l.8,1.1,2.9-1.913-.587-.786Z" transform="translate(-1567.054 3879.021)" fill="#ffe6e2"/>
      <path id="Path_34385" data-name="Path 34385" d="M799.672,264.609l.8,1.1,2.9-1.913-.587-.786Z" transform="translate(-1567.054 3879.021)" fill="#ffe6e2"/>
      <path id="Path_34386" data-name="Path 34386" d="M776.589,302.23l.128.081A1.475,1.475,0,0,1,776.589,302.23Z" transform="translate(-1567.054 3879.021)" fill="#ffa07f"/>
      <path id="Path_34387" data-name="Path 34387" d="M762.829,208.037c2.718-1.229,5.4-2.574,8.119-3.8l-2.513-2.276C766.525,203.766,764.739,206.228,762.829,208.037Z" transform="translate(-1567.054 3879.021)" fill="#2a45c4"/>
      <path id="Path_34388" data-name="Path 34388" d="M762.455,210.677c1.668.792,3.4,1.495,5.069,2.287l.725-2.763C766.449,210.207,764.254,210.671,762.455,210.677Z" transform="translate(-1567.054 3879.021)" fill="#2a45c4"/>
      <path id="Path_34389" data-name="Path 34389" d="M718.517,256.387c2.718-1.23,5.4-2.575,8.119-3.8l-2.513-2.276C722.212,252.115,720.427,254.578,718.517,256.387Z" transform="translate(-1567.054 3879.021)" fill="#2a45c4"/>
      <path id="Path_34390" data-name="Path 34390" d="M718.143,259.026c1.667.792,3.4,1.5,5.068,2.288l.726-2.763C722.137,258.556,719.942,259.021,718.143,259.026Z" transform="translate(-1567.054 3879.021)" fill="#2a45c4"/>
      <path id="Path_34391" data-name="Path 34391" d="M737.226,213.623c-2.87.816-5.787,1.52-8.656,2.336q.225-1.68.449-3.36C731.646,212.747,734.6,213.474,737.226,213.623Z" transform="translate(-1567.054 3879.021)" fill="#2a45c4"/>
      <path id="Path_34392" data-name="Path 34392" d="M736.574,209.859c-1.689-.746-3.353-1.6-5.042-2.346l1.619-2.353C734.322,206.527,735.4,208.492,736.574,209.859Z" transform="translate(-1567.054 3879.021)" fill="#2a45c4"/>
      <path id="Path_34393" data-name="Path 34393" d="M780.062,262.49c-1.365-2.652-2.844-5.263-4.209-7.916l-2.146,2.625C775.61,259.015,778.159,260.674,780.062,262.49Z" transform="translate(-1567.054 3879.021)" fill="#2a45c4"/>
      <path id="Path_34394" data-name="Path 34394" d="M776.869,264.587c-1.7-.724-3.459-1.355-5.158-2.078l-.612,2.79C772.9,265.22,775.071,264.666,776.869,264.587Z" transform="translate(-1567.054 3879.021)" fill="#2a45c4"/>
    </g>
  </g>
</svg>
