<svg xmlns="http://www.w3.org/2000/svg" xmlns:xlink="http://www.w3.org/1999/xlink" width="34" height="34" viewBox="0 0 34 34">
  <defs>
    <linearGradient id="linear-gradient" x1="0.284" y1="0.036" x2="0.5" y2="1" gradientUnits="objectBoundingBox">
      <stop offset="0" stop-color="#fff4cd"/>
      <stop offset="1" stop-color="#ffdc65"/>
    </linearGradient>
  </defs>
  <g id="Group_30212" data-name="Group 30212" transform="translate(-2002 -1003)">
    <circle id="Ellipse_1763" data-name="Ellipse 1763" cx="17" cy="17" r="17" transform="translate(2002 1003)" fill="url(#linear-gradient)"/>
    <g id="Group_30211" data-name="Group 30211" transform="translate(1940.934 838.614)">
      <path id="Path_47603" data-name="Path 47603" d="M5.171,69.369a3.251,3.251,0,0,1-.544-1.8A3.31,3.31,0,0,1,5.881,65a3,3,0,0,0-.712.009,2.861,2.861,0,0,0-1.6.758,2.577,2.577,0,0,0-.674,2.764l-.618.586v.732H1.5l-.376.357v.732H.354L0,71.271v1.66H1.752l2.894-2.742a2.987,2.987,0,0,0,1.423.1,3.449,3.449,0,0,1-.9-.922" transform="translate(72.066 112.347)" fill="#fff"/>
      <path id="Path_47604" data-name="Path 47604" d="M164.794,63.008v1.941h-.748V63.008a2.826,2.826,0,0,0-.865,5.341v.886l.546.547-.546.546v.532l.546.546-.546.547v.526l1.239,1.206,1.239-1.206v-4.13a2.826,2.826,0,0,0-.865-5.341" transform="translate(-84.219 114.088)" fill="#fff"/>
      <path id="Path_47605" data-name="Path 47605" d="M153.642,2.1V1.809a1.809,1.809,0,0,0-3.583-.35l.074-.011a3.54,3.54,0,0,1,.714-.028,1.06,1.06,0,0,1,2.047.389V2.1a2.849,2.849,0,0,1,.748,0" transform="translate(-73.046 175)" fill="#fff"/>
    </g>
  </g>
</svg>
