<svg xmlns="http://www.w3.org/2000/svg" xmlns:xlink="http://www.w3.org/1999/xlink" width="34" height="34" viewBox="0 0 34 34">
  <defs>
    <linearGradient id="linear-gradient" x1="0.186" y1="0.157" x2="0.873" y2="0.843" gradientUnits="objectBoundingBox">
      <stop offset="0" stop-color="#caf3f9"/>
      <stop offset="1" stop-color="#01b5d8"/>
    </linearGradient>
  </defs>
  <g id="Group_28894" data-name="Group 28894" transform="translate(-28 -154)">
    <rect id="Rectangle_13557" data-name="Rectangle 13557" width="34" height="34" rx="17" transform="translate(28 154)" fill="url(#linear-gradient)"/>
    <g id="Group_28893" data-name="Group 28893" transform="translate(0 -1)">
      <g id="Group_28891" data-name="Group 28891" transform="translate(37.816 166.758)">
        <g id="Group_28892" data-name="Group 28892" transform="translate(0.184 0.242)">
          <path id="Path_47551" data-name="Path 47551" d="M13.949,5.069c-.1-1.136-.278-1.358-.343-1.441a1.907,1.907,0,0,0-.645-.45.1.1,0,0,1-.027-.16.439.439,0,0,0,.132-.352.469.469,0,0,0-.477-.415h-.455a.512.512,0,0,0-.058,0,.251.251,0,0,0-.041-.013,3.274,3.274,0,0,0-1.4-1.668A10.423,10.423,0,0,0,7,0,10.424,10.424,0,0,0,3.368.571a3.273,3.273,0,0,0-1.4,1.668l0,0a.193.193,0,0,0-.039.01.512.512,0,0,0-.058,0H1.408a.469.469,0,0,0-.477.415.439.439,0,0,0,.134.351.1.1,0,0,1-.026.16,1.916,1.916,0,0,0-.645.45C.328,3.71.156,3.93.05,5.067A9.748,9.748,0,0,0,.029,6.795,7.313,7.313,0,0,0,.313,8.239.463.463,0,0,0,.7,8.544V8.55A.459.459,0,0,0,1.164,9H2.8a.459.459,0,0,0,.467-.45,2.3,2.3,0,0,0,.611-.09,4.8,4.8,0,0,1,.817-.138c.89-.082,1.775-.11,2.306-.11s1.445.028,2.336.11a4.8,4.8,0,0,1,.82.139,2.4,2.4,0,0,0,.579.089A.459.459,0,0,0,11.2,9h1.634a.459.459,0,0,0,.467-.45v0a.463.463,0,0,0,.386-.306A7.321,7.321,0,0,0,13.97,6.8a9.677,9.677,0,0,0-.021-1.728M2.777,2.687c.01-.021.021-.042.031-.063a2.489,2.489,0,0,1,.976-1.247A9.1,9.1,0,0,1,7,.9a9.07,9.07,0,0,1,3.215.478,2.5,2.5,0,0,1,.976,1.247l.029.061A.218.218,0,0,1,11.2,2.9a.236.236,0,0,1-.2.1C10.033,2.981,7.991,2.9,7,2.9s-3.034.083-4,.108a.236.236,0,0,1-.2-.1.218.218,0,0,1-.015-.219m.379,2.176a12.911,12.911,0,0,1-1.512.086c-.309,0-.628-.084-.687-.35a.8.8,0,0,1-.014-.38c.018-.086.048-.148.193-.17a2.575,2.575,0,0,1,1.212.191,2.866,2.866,0,0,1,.878.4.132.132,0,0,1-.069.228M9.614,7.172v0c-.384.042-1.152.027-2.606.027S4.786,7.212,4.4,7.17s-.9-.4-.556-.725a2.983,2.983,0,0,1,1.478-.46A11.146,11.146,0,0,1,7,5.85a9.427,9.427,0,0,1,1.681.135,3.035,3.035,0,0,1,1.478.46c.315.344-.154.68-.55.727M13.041,4.6h0c-.058.267-.379.35-.687.35a13.788,13.788,0,0,1-1.541-.086.13.13,0,0,1-.04-.228,2.771,2.771,0,0,1,.878-.4,2.927,2.927,0,0,1,1.286-.188.163.163,0,0,1,.119.141,1.1,1.1,0,0,1-.014.407" transform="translate(0 0)" fill="#fff"/>
        </g>
      </g>
    </g>
  </g>
</svg>
