<svg xmlns="http://www.w3.org/2000/svg" width="26" height="16" viewBox="0 0 26 16">
  <g id="Group_28729" data-name="Group 28729" transform="translate(0 0)">
    <g id="Group_28730" data-name="Group 28730" transform="translate(0 0)">
      <path id="Path_47596" data-name="Path 47596" d="M0,116.661a1.018,1.018,0,0,0,1.023,1.013l3.089-.013a1.018,1.018,0,1,0-.007-2.034l-3.089.013A1.019,1.019,0,0,0,0,116.661" transform="translate(0 -107.916)" fill="#fff"/>
      <path id="Path_47597" data-name="Path 47597" d="M37.7,51.91l-2.149.009a1.018,1.018,0,1,0,.01,2.037l2.15-.008A1.018,1.018,0,0,0,37.7,51.91Z" transform="translate(-32.068 -48.449)" fill="#fff"/>
      <path id="Path_47598" data-name="Path 47598" d="M25.436,179.177l-3.089.013a1.018,1.018,0,1,0,.009,2.035l3.089-.013a1.018,1.018,0,1,0-.008-2.037Z" transform="translate(-19.77 -167.372)" fill="#fff"/>
      <path id="Path_47599" data-name="Path 47599" d="M126.8,11.858l0-.012a19.415,19.415,0,0,0,.367-3.853,19.409,19.409,0,0,0-.372-3.849l0-.012A5.113,5.113,0,0,0,123.015.389L122.97.38A32,32,0,0,0,118.055,0a31.333,31.333,0,0,0-4.96.394,5.113,5.113,0,0,0-3.773,3.749l0,.012a19.427,19.427,0,0,0-.366,3.852,19.41,19.41,0,0,0,.371,3.849l0,.012a5.112,5.112,0,0,0,3.778,3.744l.044.009a31.932,31.932,0,0,0,4.916.378,31.336,31.336,0,0,0,4.959-.393,5.111,5.111,0,0,0,3.774-3.749M113.454,2.277h0a30.026,30.026,0,0,1,4.586-.357h.021a29.965,29.965,0,0,1,4.587.35h0a3.249,3.249,0,0,1,2.219,1.956l-6.464,3.033a.964.964,0,0,1-.82,0l-6.373-2.981a3.246,3.246,0,0,1,2.233-2m11.522,9.174a3.215,3.215,0,0,1-2.311,2.276h0a30.149,30.149,0,0,1-4.586.357h-.02a30.114,30.114,0,0,1-4.587-.35h-.005a3.21,3.21,0,0,1-2.313-2.272,17.218,17.218,0,0,1-.331-3.453c0-.616.028-1.2.081-1.775L116.822,9a2.779,2.779,0,0,0,2.368,0l6.026-2.83c.057.581.085,1.181.087,1.821a17.453,17.453,0,0,1-.327,3.456" transform="translate(-101.167 -0.001)" fill="#fff"/>
    </g>
  </g>
</svg>
