<svg xmlns="http://www.w3.org/2000/svg" width="52" height="52" viewBox="0 0 52 52">
  <g id="Group_29773" data-name="Group 29773" transform="translate(-28 -601)">
    <path id="Path_47916" data-name="Path 47916" d="M52,26A26,26,0,1,1,26,0,26,26,0,0,1,52,26" transform="translate(28 601)" fill="#0d0e13"/>
    <g id="Group_29701" data-name="Group 29701" transform="translate(43 616)">
      <g id="Group_29702" data-name="Group 29702">
        <path id="Path_47917" data-name="Path 47917" d="M17.125,5.625A5.893,5.893,0,0,1,11,11.25,5.893,5.893,0,0,1,4.875,5.625,5.893,5.893,0,0,1,11,0a5.893,5.893,0,0,1,6.125,5.625" fill="#fff"/>
        <path id="Path_47918" data-name="Path 47918" d="M17.286,12H4.714A4.618,4.618,0,0,0,0,16.5,4.618,4.618,0,0,0,4.714,21H17.286A4.618,4.618,0,0,0,22,16.5,4.618,4.618,0,0,0,17.286,12m0,7.5a3,3,0,1,1,3.143-3,3.075,3.075,0,0,1-3.143,3" transform="translate(0 1)" fill="#fff"/>
        <path id="Path_47919" data-name="Path 47919" d="M17.344,14.938,15.918,16.6l-.68-.61a.751.751,0,0,0-1,1.117l1.254,1.125a.763.763,0,0,0,.5.192c.016,0,.035,0,.051,0a.736.736,0,0,0,.52-.262l1.925-2.25a.749.749,0,1,0-1.14-.972" transform="translate(1 1)" fill="#fff"/>
      </g>
    </g>
  </g>
</svg>
