<svg xmlns="http://www.w3.org/2000/svg" xmlns:xlink="http://www.w3.org/1999/xlink" width="21" height="19" viewBox="0 0 21 19">
  <defs>
    <clipPath id="clip-path">
      <rect id="Rectangle_14277" data-name="Rectangle 14277" width="21" height="19" transform="translate(0 -0.155)" fill="#6265fe"/>
    </clipPath>
  </defs>
  <g id="Group_30230" data-name="Group 30230" transform="translate(0 0.155)" clip-path="url(#clip-path)">
    <path id="Path_49440" data-name="Path 49440" d="M21,18.03a.807.807,0,0,1-.807.807H2.432A2.225,2.225,0,0,1,.01,16.416V.807a.807.807,0,1,1,1.615,0V16.416c0,.634.173.807.807.807H20.193A.807.807,0,0,1,21,18.03M10.774,9.419v4.306a.807.807,0,1,0,1.615,0V9.419a.807.807,0,1,0-1.615,0m6.189-2.96a.807.807,0,0,0-.807.807v6.459a.807.807,0,1,0,1.615,0V7.266a.807.807,0,0,0-.807-.807M6.2,14.532a.807.807,0,0,0,.807-.807V11.572a.807.807,0,0,0-1.615,0v2.153a.807.807,0,0,0,.807.807m0-8.45a.8.8,0,0,0,.571-.237l1.8-1.8a.564.564,0,0,1,.77,0L10.58,5.28a2.158,2.158,0,0,0,3.052,0l2.524-2.523v1.28a.807.807,0,1,0,1.615,0V.807A.811.811,0,0,0,16.963,0H13.734a.807.807,0,1,0,0,1.615h1.28l-2.523,2.53a.553.553,0,0,1-.77,0L10.483,2.906a2.16,2.16,0,0,0-3.052,0l-1.8,1.8A.807.807,0,0,0,6.2,6.082" transform="translate(0)" fill="#6265fe"/>
  </g>
</svg>
