<svg xmlns="http://www.w3.org/2000/svg" width="21" height="19.521" viewBox="0 0 21 19.521">
  <path id="Path_49439" data-name="Path 49439" d="M1.643,8l-.3-.387a.749.749,0,1,0-1.189.912l1.435,1.881a.757.757,0,0,0,.5.289.735.735,0,0,0,.559-.157L4.449,9.112a.75.75,0,1,0-.934-1.173l-.391.309a8.257,8.257,0,1,1,.954,5.619.752.752,0,1,0-1.305.747A9.764,9.764,0,1,0,1.643,8m8.868-2.733V10.21a.751.751,0,0,0,.324.618l3.825,2.636a.75.75,0,1,0,.852-1.235l-3.5-2.412V5.268a.751.751,0,0,0-1.5,0" transform="translate(0 -0.001)" fill="#6265fe" fill-rule="evenodd"/>
</svg>
