<svg xmlns="http://www.w3.org/2000/svg" width="26.88" height="25.85" viewBox="0 0 26.88 25.85">
  <g id="Group_30646" data-name="Group 30646" transform="translate(11150.041 -4381)">
    <path id="Path_48845" data-name="Path 48845" d="M22.1,10.826c-.043-.027-.092-.043-.134-.071L12.741,4.385l-9.119,6.3c-.074.054-.164.074-.241.122A3.44,3.44,0,0,1,1.6,11.34c-.056,0-.114-.01-.171-.013V21.44a2.28,2.28,0,0,0,2.279,2.277h3.7a1.522,1.522,0,0,1-.055-.244V16.456a2.943,2.943,0,0,1,1-2.2c.022-.021.039-.046.062-.067a3.658,3.658,0,0,1,2.4-.871h3.832a3.665,3.665,0,0,1,2.4.868c.027.022.045.051.068.073a2.948,2.948,0,0,1,1,2.189V23.46a1.66,1.66,0,0,1-.028.257h3.676a2.28,2.28,0,0,0,2.279-2.277V11.319a3.433,3.433,0,0,1-1.952-.493M3.382,21.44a.325.325,0,0,0,.326.324.325.325,0,0,1-.326-.324m18.4.324a.325.325,0,0,0,.326-.324.325.325,0,0,1-.326.324" transform="translate(-11149.347 4383.133)" fill="#fff"/>
    <path id="Path_48846" data-name="Path 48846" d="M13.233,12.288a1.732,1.732,0,0,0-1.139-.4H8.264a1.732,1.732,0,0,0-1.139.4,1.065,1.065,0,0,0-.4.8v6.867l6.9.012h.012V13.09a1.067,1.067,0,0,0-.4-.8" transform="translate(-11146.771 4386.783)" fill="#6265fe"/>
    <path id="Path_48847" data-name="Path 48847" d="M25.851,8.067,14.739.4a2.312,2.312,0,0,0-2.606,0L1.033,8.067a2.32,2.32,0,0,0-.606,3.261,2.271,2.271,0,0,0,1.492.925c.068.012.138.009.207.015a2.262,2.262,0,0,0,1.5-.416l.009-.006.389-.269,9.41-6.5,9.409,6.5.391.269a2.373,2.373,0,0,0,1.513.422,2.467,2.467,0,0,0,.294-.03,2.294,2.294,0,0,0,.807-4.163" transform="translate(-11150.042 4381)" fill="#6265fe"/>
    <rect id="Rectangle_14033" data-name="Rectangle 14033" width="26.88" height="25.85" transform="translate(-11150.042 4381)" fill="none"/>
  </g>
</svg>
