<svg xmlns="http://www.w3.org/2000/svg" width="32.334" height="32.3" viewBox="0 0 32.334 32.3">
  <g id="menu1" transform="translate(-65.85 -832.6)">
    <g id="Group_16087" data-name="Group 16087">
      <path id="Path_33621" data-name="Path 33621" d="M25.51,32.773H8.525a7.286,7.286,0,0,1-7.275-7.29V14.616A8.069,8.069,0,0,1,4.066,8.881l7.906-6.16a7.624,7.624,0,0,1,8.639-.205l9.064,6.351a8.013,8.013,0,0,1,3.109,5.955V25.5A7.283,7.283,0,0,1,25.51,32.773ZM13.321,4.451l-7.906,6.16a5.961,5.961,0,0,0-1.965,4V25.484a5.089,5.089,0,0,0,5.075,5.09H25.51A5.077,5.077,0,0,0,30.584,25.5V14.821a5.82,5.82,0,0,0-2.171-4.151L19.349,4.319A5.459,5.459,0,0,0,13.321,4.451Z" transform="translate(65 831.727)" fill="#acbbce" stroke="#fff" stroke-width="0.8"/>
      <g id="Group_15656" data-name="Group 15656" transform="translate(0 -4)">
        <path id="Path_33627" data-name="Path 33627" d="M12.512,20.559a1.18,1.18,0,0,1-1.262-1.051V15.3a1.18,1.18,0,0,1,1.262-1.051A1.18,1.18,0,0,1,13.773,15.3v4.206A1.18,1.18,0,0,1,12.512,20.559Z" transform="translate(69.716 841.401)" fill="#65e33f"/>
      </g>
    </g>
  </g>
</svg>
