<svg xmlns="http://www.w3.org/2000/svg" xmlns:xlink="http://www.w3.org/1999/xlink" width="33.999" height="33.999" viewBox="0 0 33.999 33.999">
  <defs>
    <linearGradient id="linear-gradient" x1="0.186" y1="0.157" x2="0.873" y2="0.843" gradientUnits="objectBoundingBox">
      <stop offset="0" stop-color="#fff4d1"/>
      <stop offset="1" stop-color="#ffdd74"/>
    </linearGradient>
  </defs>
  <path id="Subtraction_127" data-name="Subtraction 127" d="M-5643,666a17,17,0,0,1-11.116-4.137l5.834-5.526a8.115,8.115,0,0,0,2.515.4,8.22,8.22,0,0,0,1.38-.117,9.438,9.438,0,0,1-2.46-2.523,8.9,8.9,0,0,1-1.489-4.917,9.07,9.07,0,0,1,3.434-7.047,8.384,8.384,0,0,0-.875-.046,8.232,8.232,0,0,0-1.074.07,7.838,7.838,0,0,0-4.381,2.076,7.1,7.1,0,0,0-1.846,7.565l-1.693,1.6v2h-2.114l-1.031.976v.782A17.019,17.019,0,0,1-5660,649a16.887,16.887,0,0,1,4.979-12.02A16.888,16.888,0,0,1-5643,632a16.887,16.887,0,0,1,12.02,4.979A16.887,16.887,0,0,1-5626,649a16.954,16.954,0,0,1-2.593,9.029,17.057,17.057,0,0,1-6.75,6.153v-8.119a7.778,7.778,0,0,0,4.343-6.952,7.753,7.753,0,0,0-6.71-7.666v5.314h-2.049v-5.314a7.753,7.753,0,0,0-6.71,7.666,7.779,7.779,0,0,0,4.343,6.952v2.427l1.5,1.5-1.5,1.495v1.458l1.5,1.5-1.5,1.5v.048C-5642.422,665.993-5642.716,666-5643,666Zm.4-28.243a2.906,2.906,0,0,1,2.9,2.9v.784a7.893,7.893,0,0,1,1.024-.067,7.9,7.9,0,0,1,1.024.067v-.784a4.958,4.958,0,0,0-4.951-4.953,4.961,4.961,0,0,0-4.857,3.994l.036-.005.036-.005.13-.019a9.7,9.7,0,0,1,1.354-.1c.2,0,.4.006.6.019A2.891,2.891,0,0,1-5642.6,637.757Z" transform="translate(5660 -632)" fill="url(#linear-gradient)"/>
</svg>
