<svg xmlns="http://www.w3.org/2000/svg" width="15.573" height="16.667" viewBox="0 0 15.573 16.667">
  <g id="tohirgoo2" transform="translate(-58.857 -357.75)">
    <path id="Path_33899" data-name="Path 33899" d="M8.707,9.165a4.457,4.457,0,1,1,4.457-4.457A4.463,4.463,0,0,1,8.707,9.165Zm0-7.752A3.295,3.295,0,1,0,12,4.707,3.3,3.3,0,0,0,8.707,1.413Z" transform="translate(57.39 357.5)" fill="#fff"/>
    <path id="Path_33900" data-name="Path 33900" d="M1.242,19.839a.586.586,0,0,1-.581-.581c0-3.31,3.248-6.008,7.24-6.008a8.445,8.445,0,0,1,2.294.31.579.579,0,1,1-.31,1.116A7.339,7.339,0,0,0,7.9,14.413c-3.349,0-6.077,2.171-6.077,4.845A.586.586,0,0,1,1.242,19.839Z" transform="translate(58.197 354.577)" fill="#fff"/>
    <path id="Path_33901" data-name="Path 33901" d="M14.932,19.614a3.644,3.644,0,0,1-2.457-.953,3.319,3.319,0,0,1-.7-.837,3.679,3.679,0,1,1,6.837-1.891,3.257,3.257,0,0,1-.116.868,3.3,3.3,0,0,1-.426,1.031A3.647,3.647,0,0,1,14.932,19.614Zm0-6.2a2.514,2.514,0,0,0-2.519,2.519,2.456,2.456,0,0,0,.364,1.295,2.252,2.252,0,0,0,.473.574,2.484,2.484,0,0,0,1.682.659,2.524,2.524,0,0,0,2.155-1.217,2.414,2.414,0,0,0,.287-.705,2.254,2.254,0,0,0,.078-.6,2.514,2.514,0,0,0-.651-1.682A2.449,2.449,0,0,0,14.932,13.413Z" transform="translate(55.816 354.802)" fill="#65e33f"/>
    <path id="Path_33902" data-name="Path 33902" d="M16.659,17.393H14.341a.581.581,0,0,1,0-1.163h2.318a.581.581,0,0,1,0,1.163Z" transform="translate(55.252 353.908)" fill="#65e33f"/>
    <path id="Path_33903" data-name="Path 33903" d="M15.831,18.251a.586.586,0,0,1-.581-.581V15.351a.581.581,0,0,1,1.163,0v2.318A.581.581,0,0,1,15.831,18.251Z" transform="translate(54.917 354.236)" fill="#65e33f"/>
  </g>
</svg>
