<svg xmlns="http://www.w3.org/2000/svg" width="26" height="26" viewBox="0 0 26 26">
  <g id="Group_29717" data-name="Group 29717" transform="translate(-28 -583)">
    <g id="Ellipse_1730" data-name="Ellipse 1730" transform="translate(28 583)" fill="#181a1f" stroke="rgba(255,255,255,0.5)" stroke-width="2" opacity="0.5">
      <circle cx="13" cy="13" r="13" stroke="none"/>
      <circle cx="13" cy="13" r="12" fill="none"/>
    </g>
    <path id="Path_47650" data-name="Path 47650" d="M26,13A13,13,0,1,1,13,0,13,13,0,0,1,26,13" transform="translate(28 583)" fill="#8ee95d"/>
    <path id="Path_47651" data-name="Path 47651" d="M81.755,101.469l-.96-.96a1.24,1.24,0,0,0-1.722,0l-5.5,5.477-2.379-2.4a1.24,1.24,0,0,0-1.722,0l-.96.961a1.24,1.24,0,0,0,0,1.722l4.206,4.239a1.24,1.24,0,0,0,1.722,0l.96-.96a1.154,1.154,0,0,0,.133-.161l6.225-6.2a1.24,1.24,0,0,0,0-1.722" transform="translate(-34.132 490.839)" fill="#fff"/>
  </g>
</svg>
