<svg xmlns="http://www.w3.org/2000/svg" xmlns:xlink="http://www.w3.org/1999/xlink" width="50" height="50" viewBox="0 0 50 50">
  <defs>
    <clipPath id="clip-path">
      <rect id="Rectangle_13502" data-name="Rectangle 13502" width="22" height="22" fill="#fff"/>
    </clipPath>
  </defs>
  <g id="Group_28743" data-name="Group 28743" transform="translate(-40 -166)">
    <g id="Rectangle_13500" data-name="Rectangle 13500" transform="translate(40 166)" fill="none" stroke="#fff" stroke-width="1" opacity="0.5">
      <rect width="50" height="50" rx="18" stroke="none"/>
      <rect x="0.5" y="0.5" width="49" height="49" rx="17.5" fill="none"/>
    </g>
    <g id="Group_28636" data-name="Group 28636" transform="translate(54 180)">
      <g id="Group_28635" data-name="Group 28635" clip-path="url(#clip-path)">
        <path id="Path_47548" data-name="Path 47548" d="M21.257,162.668A2.432,2.432,0,0,0,19.463,162a2.394,2.394,0,0,0-1.308.477l-5.064,3.8-.006,0a3.446,3.446,0,0,1-4.169,0l-.006,0-5.067-3.8A2.393,2.393,0,0,0,2.537,162a2.434,2.434,0,0,0-1.794.665A2.375,2.375,0,0,0,0,164.409v5.154a5.162,5.162,0,0,0,5.156,5.156H16.844A5.162,5.162,0,0,0,22,169.563v-5.154a2.375,2.375,0,0,0-.743-1.741" transform="translate(0 -152.719)" fill="#fff"/>
        <path id="Path_47549" data-name="Path 47549" d="M37.5,6.746V5.156A5.162,5.162,0,0,1,42.656,0h7.477a5.162,5.162,0,0,1,5.156,5.156v1.59a.859.859,0,1,1-1.719,0V5.156a3.441,3.441,0,0,0-3.437-3.438H42.656a3.441,3.441,0,0,0-3.437,3.438v1.59a.859.859,0,1,1-1.719,0" transform="translate(-35.352)" fill="#fff"/>
        <path id="Path_47550" data-name="Path 47550" d="M155.45,80.467a2.041,2.041,0,0,1-.012.241.654.654,0,0,1-.037.161.214.214,0,0,1-.061.09.126.126,0,0,1-.08.029h-1.58v.839l.741-.41a.6.6,0,0,1,.063-.032.461.461,0,0,1,.073-.022q.059-.01.117.083a.653.653,0,0,1,.059.327,1.22,1.22,0,0,1-.017.222.555.555,0,0,1-.049.151.325.325,0,0,1-.078.1.6.6,0,0,1-.1.068l-.809.449v.527l.741-.41a.6.6,0,0,1,.063-.032.45.45,0,0,1,.073-.022q.059-.01.117.083a.652.652,0,0,1,.059.327,1.22,1.22,0,0,1-.017.222.553.553,0,0,1-.049.151.324.324,0,0,1-.078.1.6.6,0,0,1-.1.068l-.809.449v1.848a.136.136,0,0,1-.032.088.223.223,0,0,1-.1.063,1.029,1.029,0,0,1-.2.039,3.3,3.3,0,0,1-.619,0,1.029,1.029,0,0,1-.2-.039.222.222,0,0,1-.1-.063.136.136,0,0,1-.032-.088V84.943l-.736.4a.569.569,0,0,1-.063.032.264.264,0,0,1-.073.017q-.059.01-.117-.09a.8.8,0,0,1-.059-.368.622.622,0,0,1,.066-.327.5.5,0,0,1,.178-.166l.8-.444V83.48l-.736.4a.569.569,0,0,1-.063.032.266.266,0,0,1-.073.017q-.059.01-.117-.09a.8.8,0,0,1-.059-.368.623.623,0,0,1,.066-.327.5.5,0,0,1,.178-.166l.8-.444V80.988h-1.58a.123.123,0,0,1-.083-.029.227.227,0,0,1-.058-.09.649.649,0,0,1-.037-.161,2.022,2.022,0,0,1-.012-.241,2.139,2.139,0,0,1,.012-.249.656.656,0,0,1,.037-.163.206.206,0,0,1,.058-.088.13.13,0,0,1,.083-.027h4.447a.133.133,0,0,1,.08.027.2.2,0,0,1,.061.088.66.66,0,0,1,.037.163,2.159,2.159,0,0,1,.012.249" transform="translate(-141.994 -75.36)" fill="#fff"/>
      </g>
    </g>
  </g>
</svg>
