<svg xmlns="http://www.w3.org/2000/svg" xmlns:xlink="http://www.w3.org/1999/xlink" width="44" height="44" viewBox="0 0 44 44">
  <defs>
    <clipPath id="clip-path">
      <rect id="Rectangle_13502" data-name="Rectangle 13502" width="18" height="18" fill="#e0aafe"/>
    </clipPath>
  </defs>
  <g id="Group_28842" data-name="Group 28842" transform="translate(-28 -627)">
    <g id="Group_28642" data-name="Group 28642" transform="translate(41 640)">
      <g id="Group_28635" data-name="Group 28635" clip-path="url(#clip-path)">
        <path id="Path_47548" data-name="Path 47548" d="M17.392,162.547A1.992,1.992,0,0,0,15.924,162a1.963,1.963,0,0,0-1.07.391L10.71,165.5l0,0a2.819,2.819,0,0,1-3.411,0l0,0-4.145-3.107A1.962,1.962,0,0,0,2.076,162a1.993,1.993,0,0,0-1.468.544A1.943,1.943,0,0,0,0,163.971v4.217a4.223,4.223,0,0,0,4.219,4.219h9.563A4.223,4.223,0,0,0,18,168.188v-4.217a1.943,1.943,0,0,0-.608-1.424" transform="translate(0 -154.407)" fill="#e0aafe"/>
        <path id="Path_47549" data-name="Path 47549" d="M37.5,5.52v-1.3A4.224,4.224,0,0,1,41.719,0h6.117a4.224,4.224,0,0,1,4.219,4.219v1.3a.7.7,0,0,1-1.406,0v-1.3a2.816,2.816,0,0,0-2.812-2.812H41.719a2.816,2.816,0,0,0-2.812,2.813v1.3a.7.7,0,0,1-1.406,0" transform="translate(-35.742)" fill="#e0aafe"/>
        <path id="Path_47550" data-name="Path 47550" d="M154.573,80.371a1.67,1.67,0,0,1-.01.2.53.53,0,0,1-.03.132.176.176,0,0,1-.05.074.1.1,0,0,1-.066.024h-1.292v.686l.606-.335a.488.488,0,0,1,.052-.026.375.375,0,0,1,.06-.018c.032-.005.064.017.1.068a.531.531,0,0,1,.048.267,1.023,1.023,0,0,1-.014.182.456.456,0,0,1-.04.124.264.264,0,0,1-.064.082.461.461,0,0,1-.082.056l-.662.367v.431l.606-.335a.468.468,0,0,1,.052-.026.363.363,0,0,1,.06-.018c.032-.005.064.017.1.068a.53.53,0,0,1,.048.267,1.023,1.023,0,0,1-.014.182.452.452,0,0,1-.04.124.263.263,0,0,1-.064.082.489.489,0,0,1-.082.056l-.662.367v1.512a.11.11,0,0,1-.026.072.182.182,0,0,1-.086.052.845.845,0,0,1-.161.032,2.688,2.688,0,0,1-.507,0,.856.856,0,0,1-.162-.032.182.182,0,0,1-.086-.052.11.11,0,0,1-.026-.072v-.925l-.6.331a.464.464,0,0,1-.052.026.218.218,0,0,1-.06.014c-.032.005-.064-.019-.1-.074a.657.657,0,0,1-.048-.3.507.507,0,0,1,.054-.267.408.408,0,0,1,.146-.136l.658-.363v-.427l-.6.331a.51.51,0,0,1-.052.026.232.232,0,0,1-.06.014c-.032.005-.064-.019-.1-.074a.657.657,0,0,1-.048-.3.507.507,0,0,1,.054-.267.406.406,0,0,1,.146-.136l.658-.363V80.8h-1.293a.1.1,0,0,1-.068-.024.184.184,0,0,1-.048-.074.529.529,0,0,1-.03-.132,1.624,1.624,0,0,1-.01-.2,1.719,1.719,0,0,1,.01-.2.534.534,0,0,1,.03-.134.166.166,0,0,1,.048-.072.106.106,0,0,1,.068-.022h3.638a.11.11,0,0,1,.066.022.16.16,0,0,1,.05.072.535.535,0,0,1,.03.134,1.767,1.767,0,0,1,.01.2" transform="translate(-143.563 -76.193)" fill="#e0aafe"/>
      </g>
    </g>
    <g id="Rectangle_13515" data-name="Rectangle 13515" transform="translate(28 627)" fill="none" stroke="#fff" stroke-width="1" opacity="0.5">
      <rect width="44" height="44" rx="16" stroke="none"/>
      <rect x="0.5" y="0.5" width="43" height="43" rx="15.5" fill="none"/>
    </g>
  </g>
</svg>
