<svg xmlns="http://www.w3.org/2000/svg" width="52" height="52" viewBox="0 0 52 52">
  <g id="Group_29783" data-name="Group 29783" transform="translate(12012 -2841)">
    <path id="Path_47885" data-name="Path 47885" d="M52,26A26,26,0,1,1,26,0,26,26,0,0,1,52,26" transform="translate(-12012 2841)" fill="#0d0e13"/>
    <g id="Group_29584" data-name="Group 29584" transform="translate(-11996 2859)">
      <g id="Group_29585" data-name="Group 29585" transform="translate(0)">
        <path id="Path_47886" data-name="Path 47886" d="M22.151,16.879l-7.139,5.868a.141.141,0,0,1-.006.037.19.19,0,0,0-.006.037v5.941a.806.806,0,0,0,.794.792h4.768V24.8h3.179v4.753h4.768a.806.806,0,0,0,.795-.792V22.821a.172.172,0,0,0-.013-.074Z" transform="translate(-12.152 -13.638)" fill="#fff"/>
        <path id="Path_47887" data-name="Path 47887" d="M19.862,7.736,17.146,5.483V.433a.385.385,0,0,0-.112-.285.388.388,0,0,0-.285-.111H14.368a.388.388,0,0,0-.285.111.386.386,0,0,0-.112.285V2.847L10.944.322a1.541,1.541,0,0,0-1.885,0L.138,7.736A.358.358,0,0,0,0,8a.4.4,0,0,0,.087.291l.769.915a.423.423,0,0,0,.26.137.462.462,0,0,0,.3-.087L10,2.116l8.585,7.142a.381.381,0,0,0,.26.087h.038a.424.424,0,0,0,.26-.137l.769-.916A.4.4,0,0,0,20,8a.359.359,0,0,0-.137-.266" transform="translate(-0.001)" fill="#fff"/>
      </g>
    </g>
  </g>
</svg>
