<svg xmlns="http://www.w3.org/2000/svg" width="44" height="44" viewBox="0 0 44 44">
  <g id="Group_30210" data-name="Group 30210" transform="translate(-28 -959)">
    <g id="Rectangle_13516" data-name="Rectangle 13516" transform="translate(28 959)" fill="none" stroke="#fff" stroke-width="1" opacity="0.5">
      <rect width="44" height="44" rx="16" stroke="none"/>
      <rect x="0.5" y="0.5" width="43" height="43" rx="15.5" fill="none"/>
    </g>
    <g id="Group_28755" data-name="Group 28755" transform="translate(42 973)">
      <path id="Path_47607" data-name="Path 47607" d="M.708,11.286a.665.665,0,1,0,0,1.328h.708v1.328A2.14,2.14,0,0,0,3.611,16H13.805A2.14,2.14,0,0,0,16,13.942V2.058A2.14,2.14,0,0,0,13.805,0H3.611A2.14,2.14,0,0,0,1.416,2.058V3.386H.708a.665.665,0,1,0,0,1.328h.708V7.3H.708a.665.665,0,1,0,0,1.328h.708v2.656ZM5.664,9.892A2.97,2.97,0,0,1,7.788,7.9a1.464,1.464,0,0,1-.708-1.2,1.561,1.561,0,0,1,3.115,0,1.378,1.378,0,0,1-.708,1.2A2.967,2.967,0,0,1,11.61,9.892a.541.541,0,0,1-.566.73H6.23a.629.629,0,0,1-.566-.73" fill="#ff9b95"/>
    </g>
  </g>
</svg>
