<svg xmlns="http://www.w3.org/2000/svg" width="44" height="44" viewBox="0 0 44 44">
  <g id="Group_29780" data-name="Group 29780" transform="translate(8496 -5439)">
    <g id="Group_29779" data-name="Group 29779" transform="translate(-8554.129 5276.604)">
      <path id="Path_47603" data-name="Path 47603" d="M7.608,71.437a4.783,4.783,0,0,1-.8-2.643,4.87,4.87,0,0,1,1.846-3.787,4.408,4.408,0,0,0-1.048.013A4.209,4.209,0,0,0,5.25,66.135,3.791,3.791,0,0,0,4.258,70.2l-.91.862V72.14H2.211l-.554.525v1.077H.52L0,74.235v2.442H2.578l4.258-4.034a4.394,4.394,0,0,0,2.094.15,5.075,5.075,0,0,1-1.322-1.356" transform="translate(72.066 113.445)" fill="#fff4cd"/>
      <path id="Path_47604" data-name="Path 47604" d="M166.3,63.008v2.856h-1.1V63.008a4.158,4.158,0,0,0-1.272,7.858v1.3l.8.8-.8.8v.783l.8.8-.8.8v.773l1.823,1.774,1.823-1.774V70.866a4.158,4.158,0,0,0-1.272-7.858" transform="translate(-81.717 115.076)" fill="#fff4cd"/>
      <path id="Path_47605" data-name="Path 47605" d="M155.331,3.083V2.661a2.661,2.661,0,0,0-5.272-.515l.108-.016a5.209,5.209,0,0,1,1.051-.041,1.56,1.56,0,0,1,3.012.573v.422a4.192,4.192,0,0,1,1.1,0" transform="translate(-70.714 175)" fill="#fff4cd"/>
    </g>
    <g id="Rectangle_13951" data-name="Rectangle 13951" transform="translate(-8496 5439)" fill="none" stroke="#fff" stroke-width="1" opacity="0.5">
      <rect width="44" height="44" rx="16" stroke="none"/>
      <rect x="0.5" y="0.5" width="43" height="43" rx="15.5" fill="none"/>
    </g>
  </g>
</svg>
