<svg id="Group_29812" data-name="Group 29812" xmlns="http://www.w3.org/2000/svg" xmlns:xlink="http://www.w3.org/1999/xlink" width="55.314" height="19.592" viewBox="0 0 55.314 19.592">
  <defs>
    <clipPath id="clip-path">
      <rect id="Rectangle_13920" data-name="Rectangle 13920" width="55.314" height="19.592" fill="#fff"/>
    </clipPath>
  </defs>
  <g id="Group_29811" data-name="Group 29811" transform="translate(0 0)" clip-path="url(#clip-path)">
    <path id="Path_47913" data-name="Path 47913" d="M32.53,4.464a3.362,3.362,0,0,0-3.445,3.512,3.445,3.445,0,1,0,6.888,0A3.362,3.362,0,0,0,32.53,4.464" transform="translate(11.86 1.821)" fill="#fff"/>
    <path id="Path_47914" data-name="Path 47914" d="M0,19.592H55.314V0H0Zm11.7-3.887H4.778V3.887h2.7V13.1H11.7Zm6.151.237A6.093,6.093,0,0,1,11.7,9.8,6.146,6.146,0,0,1,24,9.8a6.092,6.092,0,0,1-6.145,6.146m19.374-5.808A5.524,5.524,0,0,1,31.4,15.942,6.148,6.148,0,1,1,31.213,3.65a6.045,6.045,0,0,1,5.166,2.7l-2.3,1.316a3.552,3.552,0,0,0-6.366,2.161,3.41,3.41,0,0,0,3.715,3.479,2.935,2.935,0,0,0,3.021-1.824H31.3V9.121h5.927Zm7.166,5.808A6.093,6.093,0,0,1,38.243,9.8a6.146,6.146,0,0,1,12.291,0,6.092,6.092,0,0,1-6.145,6.146" transform="translate(0 0)" fill="#fff"/>
    <path id="Path_47915" data-name="Path 47915" d="M13.678,4.464a3.363,3.363,0,0,0-3.445,3.512,3.362,3.362,0,0,0,3.445,3.511,3.361,3.361,0,0,0,3.443-3.511,3.362,3.362,0,0,0-3.443-3.512" transform="translate(4.173 1.821)" fill="#fff"/>
  </g>
</svg>
