<svg xmlns="http://www.w3.org/2000/svg" xmlns:xlink="http://www.w3.org/1999/xlink" width="56" height="57" viewBox="0 0 56 57">
  <defs>
    <clipPath id="clip-path">
      <rect id="Rectangle_13502" data-name="Rectangle 13502" width="23" height="25" transform="translate(0.372 0.163)"/>
    </clipPath>
  </defs>
  <g id="Group_30201" data-name="Group 30201" transform="translate(-42 -169)">
    <g id="Rectangle_13590" data-name="Rectangle 13590" transform="translate(42 169)" fill="none" stroke="#000" stroke-width="1" opacity="0.1">
      <rect width="56" height="57" rx="18" stroke="none"/>
      <rect x="0.5" y="0.5" width="55" height="56" rx="17.5" fill="none"/>
    </g>
    <g id="Group_28751" data-name="Group 28751" transform="translate(58.628 184.837)">
      <g id="Group_28635" data-name="Group 28635" transform="translate(0 0)" clip-path="url(#clip-path)">
        <path id="Path_47548" data-name="Path 47548" d="M24.163,162.76A2.765,2.765,0,0,0,22.123,162a2.721,2.721,0,0,0-1.487.542l-5.757,4.314-.007,0a3.917,3.917,0,0,1-4.739,0l-.007,0-5.759-4.316A2.72,2.72,0,0,0,2.884,162a2.766,2.766,0,0,0-2.039.755A2.7,2.7,0,0,0,0,164.739V170.6a5.868,5.868,0,0,0,5.861,5.861H19.146a5.868,5.868,0,0,0,5.861-5.861v-5.858a2.7,2.7,0,0,0-.845-1.979" transform="translate(-1.074 -151.367)"/>
        <path id="Path_47549" data-name="Path 47549" d="M37.5,7.668V5.861A5.868,5.868,0,0,1,43.361,0h8.5a5.868,5.868,0,0,1,5.861,5.861V7.668a.977.977,0,1,1-1.954,0V5.861A3.912,3.912,0,0,0,51.86,1.954h-8.5a3.912,3.912,0,0,0-3.907,3.907V7.668a.977.977,0,0,1-1.954,0" transform="translate(-36.132 0.084)"/>
        <path id="Path_47550" data-name="Path 47550" d="M156.11,80.539a2.318,2.318,0,0,1-.014.274.743.743,0,0,1-.042.183.244.244,0,0,1-.069.1.143.143,0,0,1-.091.033h-1.8v.953l.842-.465a.678.678,0,0,1,.072-.036.522.522,0,0,1,.083-.025q.066-.011.133.094a.742.742,0,0,1,.067.371,1.388,1.388,0,0,1-.019.252.631.631,0,0,1-.055.172.369.369,0,0,1-.089.114.682.682,0,0,1-.114.078l-.92.51v.6l.842-.466a.681.681,0,0,1,.072-.036.511.511,0,0,1,.083-.025q.066-.011.133.094a.741.741,0,0,1,.067.371,1.388,1.388,0,0,1-.019.252.628.628,0,0,1-.055.172.368.368,0,0,1-.089.114.687.687,0,0,1-.114.078l-.92.51v2.1a.155.155,0,0,1-.036.1.253.253,0,0,1-.119.072,1.17,1.17,0,0,1-.224.044,3.75,3.75,0,0,1-.7,0,1.169,1.169,0,0,1-.224-.044.253.253,0,0,1-.119-.072.154.154,0,0,1-.036-.1V85.626l-.837.46a.645.645,0,0,1-.072.036.3.3,0,0,1-.083.019q-.067.011-.133-.1a.909.909,0,0,1-.067-.418.707.707,0,0,1,.075-.371.566.566,0,0,1,.2-.188l.915-.5v-.593l-.837.46a.647.647,0,0,1-.072.036.3.3,0,0,1-.083.019q-.067.011-.133-.1a.909.909,0,0,1-.067-.418.708.708,0,0,1,.075-.371.567.567,0,0,1,.2-.188l.915-.5V81.132h-1.8a.139.139,0,0,1-.094-.033.258.258,0,0,1-.066-.1.737.737,0,0,1-.042-.183,2.3,2.3,0,0,1-.014-.274,2.436,2.436,0,0,1,.014-.283.745.745,0,0,1,.042-.186.234.234,0,0,1,.066-.1.148.148,0,0,1,.094-.031h5.055a.151.151,0,0,1,.091.031.223.223,0,0,1,.069.1.75.75,0,0,1,.042.186,2.453,2.453,0,0,1,.014.283" transform="translate(-141.888 -74.65)"/>
      </g>
    </g>
  </g>
</svg>
