<svg xmlns="http://www.w3.org/2000/svg" xmlns:xlink="http://www.w3.org/1999/xlink" width="52" height="52" viewBox="0 0 52 52">
  <defs>
    <clipPath id="clip-path">
      <rect id="Rectangle_13866" data-name="Rectangle 13866" width="18.854" height="20" fill="#fff"/>
    </clipPath>
  </defs>
  <g id="Group_29782" data-name="Group 29782" transform="translate(12012 -2757)">
    <path id="Path_47884" data-name="Path 47884" d="M52,26A26,26,0,1,1,26,0,26,26,0,0,1,52,26" transform="translate(-12012 2757)" fill="#0d0e13"/>
    <g id="Group_29587" data-name="Group 29587" transform="translate(-11995 2773)">
      <g id="Group_29586" data-name="Group 29586" transform="translate(0 0)" clip-path="url(#clip-path)">
        <path id="Path_47888" data-name="Path 47888" d="M9.271,15.815A5.5,5.5,0,0,1,17.754,11.2c.006-.408.009-.842.009-1.311a49.458,49.458,0,0,0-.244-5.477h.023a4.664,4.664,0,0,0-3.033-3.9L14.378.461a4.66,4.66,0,0,0-1-.218l-.032,0A26.34,26.34,0,0,0,9.106,0,29.746,29.746,0,0,0,4.632.242L4.6.245A4.647,4.647,0,0,0,3.552.48V.462A4.667,4.667,0,0,0,.412,4.4,49.48,49.48,0,0,0,.167,9.885a49.474,49.474,0,0,0,.245,5.486,4.671,4.671,0,0,0,4.163,4.163l.032,0a26.019,26.019,0,0,0,4.241.242c.906,0,1.563-.012,2.078-.032a5.484,5.484,0,0,1-1.655-3.932M4.7,5.2h8.528a.93.93,0,0,1,0,1.861H4.7A.93.93,0,0,1,4.7,5.2Zm0,5.842a.931.931,0,0,1,0-1.861H9.564a.931.931,0,1,1,0,1.861Z" transform="translate(-0.134 0)" fill="#fff"/>
        <path id="Path_47889" data-name="Path 47889" d="M56.369,58.073a4.185,4.185,0,1,0,4.185,4.185,4.185,4.185,0,0,0-4.185-4.185m1.659,4.8H56.286a.5.5,0,0,1-.5-.5V59.7a.5.5,0,1,1,1,0v2.178h1.244a.5.5,0,1,1,0,1" transform="translate(-41.733 -46.443)" fill="#fff"/>
      </g>
    </g>
  </g>
</svg>
