<svg xmlns="http://www.w3.org/2000/svg" width="49" height="51" viewBox="0 0 49 51">
  <g id="Group_30202" data-name="Group 30202" transform="translate(8414 -4705)">
    <g id="Rectangle_13590" data-name="Rectangle 13590" transform="translate(-8414 4705)" fill="none" stroke="#000" stroke-width="1" opacity="0.1">
      <rect width="49" height="51" rx="18" stroke="none"/>
      <rect x="0.5" y="0.5" width="48" height="50" rx="17.5" fill="none"/>
    </g>
    <g id="Group_28741" data-name="Group 28741" transform="translate(-8403.016 4716)">
      <path id="Path_47603" data-name="Path 47603" d="M11.927,75.1a7.5,7.5,0,0,1-1.256-4.144,7.635,7.635,0,0,1,2.894-5.938,6.91,6.91,0,0,0-1.642.021,6.6,6.6,0,0,0-3.693,1.748,5.944,5.944,0,0,0-1.555,6.376L5.25,74.516V76.2H3.467l-.868.823v1.689H.815L0,79.489v3.829H4.042l6.676-6.324A6.889,6.889,0,0,0,14,77.229,7.957,7.957,0,0,1,11.927,75.1" transform="translate(0 -59.61)"/>
      <path id="Path_47604" data-name="Path 47604" d="M168.975,63.008v4.478h-1.726V63.008a6.519,6.519,0,0,0-1.995,12.32v2.043l1.261,1.261-1.261,1.261v1.228l1.261,1.261-1.261,1.261v1.213l2.858,2.781,2.858-2.781V75.328a6.519,6.519,0,0,0-1.994-12.32" transform="translate(-149.349 -58.174)"/>
      <path id="Path_47605" data-name="Path 47605" d="M158.325,4.834V4.172a4.172,4.172,0,0,0-8.266-.807l.17-.026a8.167,8.167,0,0,1,1.648-.064,2.446,2.446,0,0,1,4.722.9v.662a6.572,6.572,0,0,1,1.726,0" transform="translate(-138.648 0)"/>
    </g>
  </g>
</svg>
