<svg xmlns="http://www.w3.org/2000/svg" xmlns:xlink="http://www.w3.org/1999/xlink" width="44" height="44" viewBox="0 0 44 44">
  <defs>
    <clipPath id="clip-path">
      <rect id="Rectangle_13503" data-name="Rectangle 13503" width="20" height="12.727" fill="#c2f0f8"/>
    </clipPath>
  </defs>
  <g id="Group_29778" data-name="Group 29778" transform="translate(-28 -793)">
    <g id="Rectangle_13514" data-name="Rectangle 13514" transform="translate(28 793)" fill="none" stroke="#fff" stroke-width="1" opacity="0.5">
      <rect width="44" height="44" rx="16" stroke="none"/>
      <rect x="0.5" y="0.5" width="43" height="43" rx="15.5" fill="none"/>
    </g>
    <g id="Group_28638" data-name="Group 28638" transform="translate(40 809)" clip-path="url(#clip-path)">
      <path id="Path_47551" data-name="Path 47551" d="M19.927,7.168c-.15-1.607-.4-1.92-.491-2.038a2.724,2.724,0,0,0-.921-.636.139.139,0,0,1-.038-.226.617.617,0,0,0,.189-.5.667.667,0,0,0-.681-.587h-.65a.738.738,0,0,0-.083.005.362.362,0,0,0-.059-.019,4.641,4.641,0,0,0-2-2.359A15.03,15.03,0,0,0,10,0,15.032,15.032,0,0,0,4.811.808a4.64,4.64,0,0,0-2,2.359l0,.006a.278.278,0,0,0-.056.013.739.739,0,0,0-.083-.005H2.012a.667.667,0,0,0-.681.587.618.618,0,0,0,.191.5.14.14,0,0,1-.038.226,2.737,2.737,0,0,0-.922.636c-.093.119-.34.431-.49,2.038A13.646,13.646,0,0,0,.041,9.609a10.252,10.252,0,0,0,.405,2.042.66.66,0,0,0,.55.432v.008a.652.652,0,0,0,.667.636H4a.652.652,0,0,0,.667-.636,3.318,3.318,0,0,0,.873-.127,6.918,6.918,0,0,1,1.167-.2c1.271-.116,2.536-.156,3.295-.156.743,0,2.064.04,3.337.156a6.923,6.923,0,0,1,1.171.2,3.457,3.457,0,0,0,.827.125.652.652,0,0,0,.667.636h2.334A.652.652,0,0,0,19,12.09v0a.66.66,0,0,0,.552-.432,10.262,10.262,0,0,0,.405-2.041,13.548,13.548,0,0,0-.03-2.444M3.968,3.8c.015-.029.03-.059.044-.089A3.526,3.526,0,0,1,5.4,1.947,13.117,13.117,0,0,1,10,1.271a13.078,13.078,0,0,1,4.594.676,3.536,3.536,0,0,1,1.394,1.764l.042.086a.306.306,0,0,1-.022.31.338.338,0,0,1-.288.144c-1.385-.036-4.3-.15-5.719-.15s-4.334.117-5.721.153a.338.338,0,0,1-.288-.144.305.305,0,0,1-.022-.31m.541,3.078A18.63,18.63,0,0,1,2.348,7c-.442,0-.9-.119-.982-.495a1.123,1.123,0,0,1-.02-.537c.026-.121.068-.21.276-.241A3.713,3.713,0,0,1,3.354,6a4.114,4.114,0,0,1,1.254.559.186.186,0,0,1-.1.322m9.225,3.264v0c-.548.06-1.645.038-3.723.038s-3.174.022-3.723-.038C5.722,10.08,5,9.569,5.494,9.114a4.291,4.291,0,0,1,2.112-.65,16.081,16.081,0,0,1,2.4-.191,13.6,13.6,0,0,1,2.4.191,4.366,4.366,0,0,1,2.112.65c.449.487-.221.962-.786,1.028m4.9-3.637h0c-.083.377-.542.495-.982.495a19.9,19.9,0,0,1-2.2-.122.183.183,0,0,1-.058-.322A3.977,3.977,0,0,1,16.643,6a4.221,4.221,0,0,1,1.837-.266.231.231,0,0,1,.17.2,1.545,1.545,0,0,1-.02.576" transform="translate(0 0)" fill="#c2f0f8"/>
    </g>
  </g>
</svg>
