<svg xmlns="http://www.w3.org/2000/svg" xmlns:xlink="http://www.w3.org/1999/xlink" width="52" height="50" viewBox="0 0 52 50">
  <defs>
    <clipPath id="clip-path">
      <rect id="Rectangle_13503" data-name="Rectangle 13503" width="24" height="16" transform="translate(0.308 -0.351)"/>
    </clipPath>
  </defs>
  <g id="Group_30204" data-name="Group 30204" transform="translate(-11 -22)">
    <g id="Rectangle_13500" data-name="Rectangle 13500" transform="translate(11 22)" fill="none" stroke="#000" stroke-width="1" opacity="0.5">
      <rect width="52" height="50" rx="18" stroke="none"/>
      <rect x="0.5" y="0.5" width="51" height="49" rx="17.5" fill="none"/>
    </g>
    <g id="Group_28639" data-name="Group 28639" transform="translate(24.692 40.351)">
      <g id="Group_28638" data-name="Group 28638" transform="translate(0 0)" clip-path="url(#clip-path)">
        <path id="Path_47551" data-name="Path 47551" d="M24.432,8.788c-.184-1.97-.487-2.354-.6-2.5a3.34,3.34,0,0,0-1.13-.78.171.171,0,0,1-.047-.277.757.757,0,0,0,.231-.611.818.818,0,0,0-.835-.72h-.8a.906.906,0,0,0-.1.006.443.443,0,0,0-.072-.023A5.69,5.69,0,0,0,18.622.992C16.635.049,12.974,0,12.259,0S7.883.049,5.9.991A5.689,5.689,0,0,0,3.441,3.883l0,.008a.341.341,0,0,0-.069.017.906.906,0,0,0-.1-.006h-.8a.818.818,0,0,0-.835.72.757.757,0,0,0,.234.608.171.171,0,0,1-.046.277,3.356,3.356,0,0,0-1.13.78c-.114.146-.417.528-.6,2.5a16.731,16.731,0,0,0-.038,3,12.569,12.569,0,0,0,.5,2.5.809.809,0,0,0,.674.53v.01a.8.8,0,0,0,.818.78H4.9a.8.8,0,0,0,.818-.78,4.068,4.068,0,0,0,1.07-.155,8.481,8.481,0,0,1,1.431-.239c1.559-.142,3.109-.191,4.04-.191.911,0,2.53.049,4.092.191a8.488,8.488,0,0,1,1.436.24,4.238,4.238,0,0,0,1.014.154.8.8,0,0,0,.818.78h2.861a.8.8,0,0,0,.818-.78v-.006a.809.809,0,0,0,.676-.53,12.583,12.583,0,0,0,.5-2.5,16.611,16.611,0,0,0-.037-3M4.865,4.66c.018-.036.037-.073.053-.109A4.323,4.323,0,0,1,6.627,2.387a16.083,16.083,0,0,1,5.632-.829,16.034,16.034,0,0,1,5.632.829A4.336,4.336,0,0,1,19.6,4.55l.051.106a.375.375,0,0,1-.027.38.414.414,0,0,1-.353.177c-1.7-.044-5.274-.184-7.012-.184s-5.314.144-7.014.188a.415.415,0,0,1-.353-.177.374.374,0,0,1-.027-.38m.663,3.774a22.842,22.842,0,0,1-2.649.149c-.542,0-1.1-.146-1.2-.606a1.377,1.377,0,0,1-.025-.659c.032-.149.083-.257.339-.3a4.552,4.552,0,0,1,2.123.331,5.044,5.044,0,0,1,1.537.685.228.228,0,0,1-.122.395m11.311,4v0c-.672.073-2.017.046-4.565.046s-3.892.027-4.564-.046c-.694-.073-1.578-.7-.974-1.257a5.261,5.261,0,0,1,2.589-.8,19.717,19.717,0,0,1,2.944-.234,16.676,16.676,0,0,1,2.944.235,5.353,5.353,0,0,1,2.59.8c.551.6-.27,1.18-.964,1.26m6-4.459h0c-.1.462-.664.606-1.2.606a24.393,24.393,0,0,1-2.7-.149.225.225,0,0,1-.071-.4,4.876,4.876,0,0,1,1.537-.685,5.175,5.175,0,0,1,2.253-.326.284.284,0,0,1,.209.244,1.894,1.894,0,0,1-.025.706" transform="translate(-0.17 -0.225)"/>
      </g>
    </g>
  </g>
</svg>
