<svg xmlns="http://www.w3.org/2000/svg" width="20" height="20" viewBox="0 0 20 20">
  <path id="Path_47546" data-name="Path 47546" d="M18.571,7.2a.229.229,0,0,0,0-.062A7.369,7.369,0,0,0,11.01,0H8.99A7.369,7.369,0,0,0,1.429,7.143a.229.229,0,0,0,0,.062A1.905,1.905,0,0,0,0,9.048v2.381a1.9,1.9,0,0,0,1.9,1.9h.952A6.667,6.667,0,0,0,9.524,20h.952c3.148,0,5.633-2.133,6.162-4.124A3.752,3.752,0,0,0,18.1,14.762a2.5,2.5,0,0,0,.524-1.519A1.9,1.9,0,0,0,20,11.429V9.048A1.905,1.905,0,0,0,18.571,7.2m-3.333,6.519a1.824,1.824,0,0,1-1.481,1.8,11.184,11.184,0,0,1-1.476.172,1.428,1.428,0,0,0-1.329-.929H9.109A1.471,1.471,0,0,0,7.648,15.9a1.429,1.429,0,0,0,1.4,1.714h1.9a1.428,1.428,0,0,0,1.343-.952,15.957,15.957,0,0,0,2.381-.21,5.238,5.238,0,0,1-4.2,2.114H9.524a5.238,5.238,0,0,1-5.238-5.238V9.048H5.714s1.262,0,1.429-1.586a3.452,3.452,0,0,0,2.9,1.586h5.19Zm1.819-6.581a5.714,5.714,0,0,0-5.629-4.762H8.571A5.714,5.714,0,0,0,2.943,7.143H2.381A6.415,6.415,0,0,1,8.99.952H11.01a6.415,6.415,0,0,1,6.609,6.19Z" fill="#fff"/>
</svg>
