<svg xmlns="http://www.w3.org/2000/svg" xmlns:xlink="http://www.w3.org/1999/xlink" width="20" height="20" viewBox="0 0 20 20">
  <defs>
    <clipPath id="clip-path">
      <rect id="Rectangle_13719" data-name="Rectangle 13719" width="20" height="20" fill="#fff"/>
    </clipPath>
  </defs>
  <g id="Group_28938" data-name="Group 28938" transform="translate(0 0)">
    <g id="Group_28937" data-name="Group 28937" transform="translate(0 0)" clip-path="url(#clip-path)">
      <path id="Path_47659" data-name="Path 47659" d="M18.806,7.066a2.616,2.616,0,0,1-1.882-1.341,2.9,2.9,0,0,1-.178-2.39,1.341,1.341,0,0,0-.367-1.457,9.733,9.733,0,0,0-2.933-1.8A1.193,1.193,0,0,0,12.053.49,2.56,2.56,0,0,1,10,1.547,2.56,2.56,0,0,1,7.947.49,1.193,1.193,0,0,0,6.553.082,9.733,9.733,0,0,0,3.82,1.7a1.356,1.356,0,0,0-.387,1.5A2.884,2.884,0,0,1,3.25,5.664,2.59,2.59,0,0,1,1.267,6.975,1.262,1.262,0,0,0,.186,8.023,10.519,10.519,0,0,0,0,10,10.645,10.645,0,0,0,.126,11.65a1.265,1.265,0,0,0,1.087,1.092A2.593,2.593,0,0,1,3.222,14.1a2.883,2.883,0,0,1,.111,2.518,1.328,1.328,0,0,0,.34,1.535A9.8,9.8,0,0,0,6.58,19.923,1.267,1.267,0,0,0,7,20a1.208,1.208,0,0,0,1-.549,2.544,2.544,0,0,1,2.133-1.183,2.572,2.572,0,0,1,2.094,1.113,1.189,1.189,0,0,0,1.44.429,9.916,9.916,0,0,0,2.667-1.683,1.351,1.351,0,0,0,.36-1.485,2.881,2.881,0,0,1,.147-2.448,2.6,2.6,0,0,1,1.94-1.348,1.267,1.267,0,0,0,1.047-1.07A10.709,10.709,0,0,0,20,10a10.6,10.6,0,0,0-.167-1.88,1.252,1.252,0,0,0-1.027-1.049m-.28,4.393a3.941,3.941,0,0,0-2.837,2.026,4.367,4.367,0,0,0-.263,3.606,8.4,8.4,0,0,1-2.2,1.408,3.842,3.842,0,0,0-3.113-1.612A3.9,3.9,0,0,0,6.94,18.6a8.611,8.611,0,0,1-2.387-1.45,4.34,4.34,0,0,0-.193-3.7,3.95,3.95,0,0,0-2.96-2.07A10.182,10.182,0,0,1,1.333,10,9.1,9.1,0,0,1,1.48,8.369,3.923,3.923,0,0,0,4.393,6.383,4.33,4.33,0,0,0,4.7,2.764,8.408,8.408,0,0,1,6.946,1.427,3.869,3.869,0,0,0,10,2.954a3.869,3.869,0,0,0,3.054-1.527,8.4,8.4,0,0,1,2.42,1.486,4.376,4.376,0,0,0,.3,3.525,3.952,3.952,0,0,0,2.759,2.009A9.5,9.5,0,0,1,18.666,10a10,10,0,0,1-.114,1.464Z" transform="translate(0 0)" fill="#fff"/>
      <path id="Path_47660" data-name="Path 47660" d="M16.2,11.112a4.005,4.005,0,0,0-3.7,2.608,4.4,4.4,0,0,0,.867,4.6,3.845,3.845,0,0,0,4.359.916,4.233,4.233,0,0,0,2.469-3.9,4.117,4.117,0,0,0-4-4.225m0,7.041a2.67,2.67,0,0,1-2.464-1.739,2.933,2.933,0,0,1,.578-3.069,2.565,2.565,0,0,1,2.906-.611,2.822,2.822,0,0,1,1.646,2.6A2.745,2.745,0,0,1,16.2,18.153" transform="translate(-6.202 -5.341)" fill="#fff"/>
    </g>
  </g>
</svg>
