<svg xmlns="http://www.w3.org/2000/svg" width="20" height="20" viewBox="0 0 20 20">
  <path id="Path_47547" data-name="Path 47547" d="M10,0A10,10,0,1,0,20,10,10.011,10.011,0,0,0,10,0m2.826,6.313a.179.179,0,0,1-.179.179H11.511c-.751,0-.887.293-.887.867V8.552h1.949a.181.181,0,0,1,.178.2L12.473,10.9a.178.178,0,0,1-.177.156H10.624v5.335a.178.178,0,0,1-.179.179H8.227a.178.178,0,0,1-.179-.179V11.058H6.372a.178.178,0,0,1-.179-.179V8.731a.178.178,0,0,1,.179-.179H8.048V7.146A2.766,2.766,0,0,1,10.99,4.128a15.556,15.556,0,0,1,1.681.086.178.178,0,0,1,.154.177Z" fill="#fff"/>
</svg>
