<svg id="Group_29575" data-name="Group 29575" xmlns="http://www.w3.org/2000/svg" xmlns:xlink="http://www.w3.org/1999/xlink" width="247.768" height="57.76" viewBox="0 0 247.768 57.76">
  <defs>
    <clipPath id="clip-path">
      <rect id="Rectangle_13862" data-name="Rectangle 13862" width="247.768" height="57.76" fill="none"/>
    </clipPath>
  </defs>
  <g id="Group_29574" data-name="Group 29574" clip-path="url(#clip-path)">
    <path id="Path_47883" data-name="Path 47883" d="M428.781,23.165V33.2c-5.944,0-11.154,3.594-11.154,7.685V61.869h-10.04V40.89c0-9.774,9.508-17.725,21.194-17.725" transform="translate(-239.94 -13.637)" fill="#fff"/>
    <path id="Path_47884" data-name="Path 47884" d="M353.4,36.668V63.931H337.348a18.631,18.631,0,0,1,0-37.263h6.024v10h-.01v.04h-6.014a8.592,8.592,0,0,0,0,17.183h6.014V36.708h.01v-.04Z" transform="translate(-187.624 -15.699)" fill="#fff"/>
    <rect id="Rectangle_13859" data-name="Rectangle 13859" width="0.01" height="0.04" transform="translate(155.738 20.968)" fill="#fff"/>
    <path id="Path_47885" data-name="Path 47885" d="M283.437,63.933h-6.021a18.631,18.631,0,0,1,0-37.262h6.021v10.04h-6.021a8.591,8.591,0,1,0,0,17.182h6.021Z" transform="translate(-152.342 -15.701)" fill="#fff"/>
    <path id="Path_47886" data-name="Path 47886" d="M151.428,21.9V38.5a19.256,19.256,0,0,1-38.512,0V32.272h10.336v.008h.041V38.5a8.88,8.88,0,1,0,17.761,0V32.28H123.294v-.008h-.041V21.9c0-6.145-3.714-11.525-7.943-11.525H93.626V0h21.685c10.1,0,18.32,9.822,18.32,21.9Z" transform="translate(-55.116)" fill="#00d27b"/>
    <rect id="Rectangle_13860" data-name="Rectangle 13860" width="0.041" height="0.008" transform="translate(68.137 32.272)" fill="#00d27b"/>
    <path id="Path_47887" data-name="Path 47887" d="M38.512,78.483v6.223A19.256,19.256,0,1,1,0,84.706V78.483H10.376v6.223a8.879,8.879,0,1,0,17.759,0V78.483Z" transform="translate(0 -46.202)" fill="#00d27b"/>
    <path id="Path_47888" data-name="Path 47888" d="M516.264,83.845v5.178h-7.648a9.528,9.528,0,0,1-2.663-.638A9.632,9.632,0,0,1,509.51,69.8H511.7v5.217H509.51a4.413,4.413,0,0,0,0,8.826Z" transform="translate(-294.27 -41.091)" fill="#00d27b"/>
    <path id="Path_47889" data-name="Path 47889" d="M525.827,89.047h-6l3.614-6.562h6Z" transform="translate(-306.014 -48.557)" fill="#00d27b"/>
    <path id="Path_47890" data-name="Path 47890" d="M559.584,83.845v5.178h-7.648a9.528,9.528,0,0,1-2.663-.638A9.632,9.632,0,0,1,552.83,69.8h2.188v5.217H552.83a4.413,4.413,0,0,0,0,8.826Z" transform="translate(-319.772 -41.091)" fill="#00d27b"/>
    <path id="Path_47891" data-name="Path 47891" d="M569.147,89.047h-6l3.614-6.562h6Z" transform="translate(-331.516 -48.557)" fill="#00d27b"/>
    <rect id="Rectangle_13861" data-name="Rectangle 13861" width="5.932" height="24.693" transform="translate(241.836 23.239)" fill="#00d27b"/>
    <path id="Path_47892" data-name="Path 47892" d="M477.029,83.829v4.763h-9.65a4.753,4.753,0,0,1-3.369-1.394l-.025-.026a3.53,3.53,0,0,1-.012-4.829l7.467-7.78h-7.433V69.8h8.667a4.753,4.753,0,0,1,3.369,1.394l.025.025a3.526,3.526,0,0,1,.012,4.829l-7.462,7.782Z" transform="translate(-272.574 -41.089)" fill="#00d27b"/>
  </g>
</svg>
