<svg xmlns="http://www.w3.org/2000/svg" width="30.5" height="30.811" viewBox="0 0 30.5 30.811">
  <g id="menu2" transform="translate(-193.25 -832.939)">
    <path id="Path_33849" data-name="Path 33849" d="M8.62,15.675,10.8,17.85l4.712-4.35" transform="translate(196.429 838.625)" fill="none" stroke="#65e33f" stroke-linecap="round" stroke-linejoin="round" stroke-width="1.5"/>
    <g id="Group_16077" data-name="Group 16077">
      <path id="Path_33850" data-name="Path 33850" d="M9.439,1,4.19,6.263" transform="translate(194.435 833)" fill="none" stroke="#acbbce" stroke-linecap="round" stroke-linejoin="round" stroke-width="1.5"/>
      <path id="Path_33851" data-name="Path 33851" d="M14.19,1l5.249,5.263" transform="translate(198.935 833)" fill="none" stroke="#acbbce" stroke-linecap="round" stroke-linejoin="round" stroke-width="1.5"/>
      <path id="Path_33852" data-name="Path 33852" d="M1,7.75c0-2.683,1.436-2.9,3.219-2.9H26.781c1.783,0,3.219.217,3.219,2.9,0,3.117-1.435,2.9-3.219,2.9H4.219C2.436,10.65,1,10.868,1,7.75Z" transform="translate(193 834.733)" fill="none" stroke="#acbbce" stroke-width="1.5"/>
      <path id="Path_33853" data-name="Path 33853" d="M3.91,21.528C4.374,24.341,5.49,26.4,9.637,26.4h8.743c4.51,0,5.176-1.972,5.7-4.7L26.515,9" transform="translate(194.309 836.6)" fill="none" stroke="#acbbce" stroke-linecap="round" stroke-width="1.5"/>
      <path id="Path_33854" data-name="Path 33854" d="M2.5,9l1,6.162" transform="translate(193.675 836.6)" fill="none" stroke="#acbbce" stroke-linecap="round" stroke-width="1.5"/>
    </g>
  </g>
</svg>
