<svg xmlns="http://www.w3.org/2000/svg" width="23.951" height="23.99" viewBox="0 0 23.951 23.99">
  <g id="Group_29909" data-name="Group 29909" transform="translate(7724.52 -5463)">
    <path id="Path_48842" data-name="Path 48842" d="M23.742,8.068,21.754,1.477A2.174,2.174,0,0,0,19.677,0H16.59V4.392a.927.927,0,0,1-1.851,0V0H9.184V4.392a.927.927,0,0,1-1.851,0V0H4.244A2.2,2.2,0,0,0,2.167,1.487L.194,8.068a3.912,3.912,0,0,0,.136,2.786,4.243,4.243,0,0,0,1.151,1.477,4.8,4.8,0,0,0,6.533-.337c.09-.1.176-.195.258-.3a4.8,4.8,0,0,0,6.487.873,4.561,4.561,0,0,0,.921-.873,4.808,4.808,0,0,0,6.5.862,4.45,4.45,0,0,0,1.437-1.705,3.889,3.889,0,0,0,.146-2.786Z" transform="translate(-7724.519 5463)" fill="#6265fe"/>
    <path id="Path_48843" data-name="Path 48843" d="M8.937,13.122A2.64,2.64,0,0,0,6.3,15.758v3.219h5.27V15.758a2.64,2.64,0,0,0-2.636-2.636" transform="translate(-7721.494 5468.014)" fill="#6265fe"/>
    <path id="Path_48844" data-name="Path 48844" d="M19.112,10.925a6.179,6.179,0,0,1-3.725-1.244,6.37,6.37,0,0,1-7.449,0,6.179,6.179,0,0,1-3.725,1.244A6.1,6.1,0,0,1,.793,9.87v7.2a3.315,3.315,0,0,0,3.4,3.219H7V17.072a4.529,4.529,0,0,1,4.656-4.391,4.529,4.529,0,0,1,4.654,4.391v3.219h2.8a3.316,3.316,0,0,0,3.413-3.211V9.87a6.037,6.037,0,0,1-3.413,1.053" transform="translate(-7724.216 5466.699)" fill="#9ca3af"/>
    <rect id="Rectangle_14032" data-name="Rectangle 14032" width="23.952" height="23.99" transform="translate(-7724.519 5463)" fill="none"/>
  </g>
</svg>
