<svg xmlns="http://www.w3.org/2000/svg" width="27.982" height="30.138" viewBox="0 0 27.982 30.138">
  <g id="menu3" transform="translate(-332.167 -836.313)">
    <path id="Path_33855" data-name="Path 33855" d="M11.788,29.59a1.048,1.048,0,0,1-.851-.425L9.505,27.25a1.532,1.532,0,0,0-1.12-.652,1.538,1.538,0,0,0-1.191.525c-2.056,2.2-3.616,2.014-4.368,1.73S.77,27.576.77,24.428V8.461C.77,2.164,2.585.25,8.527.25H19.233c5.942,0,7.757,1.914,7.757,8.211V14.5a1.064,1.064,0,1,1-2.127,0V8.461c0-5.119-.893-6.084-5.63-6.084H8.527c-4.736,0-5.63.964-5.63,6.084V24.428c0,1.489.369,2.311.709,2.439.255.1.95-.043,2.028-1.191A3.669,3.669,0,0,1,8.5,24.471a3.658,3.658,0,0,1,2.709,1.5l1.446,1.914a1.064,1.064,0,0,1-.213,1.489A1.083,1.083,0,0,1,11.788,29.59Z" transform="translate(331.597 836.263)" fill="#b6c3d4" stroke="#fff" stroke-width="0.4"/>
    <path id="Path_33856" data-name="Path 33856" d="M17.851,24.453a5.6,5.6,0,1,1,5.6-5.6A5.6,5.6,0,0,1,17.851,24.453Zm0-9.076a3.474,3.474,0,1,0,3.474,3.474A3.48,3.48,0,0,0,17.851,15.377Z" transform="translate(336.396 841.698)" fill="#b6c3d4" stroke="#fff" stroke-width="0.6"/>
    <g id="Group_16080" data-name="Group 16080" transform="translate(338.72 843.603)">
      <path id="Path_33857" data-name="Path 33857" d="M17.658,7.377H6.314a1.064,1.064,0,0,1,0-2.127H17.658a1.064,1.064,0,1,1,0,2.127Z" transform="translate(-5.25 -5.25)" fill="#65e33f"/>
      <path id="Path_33858" data-name="Path 33858" d="M15.822,11.377H7.314a1.064,1.064,0,1,1,0-2.127h8.508a1.064,1.064,0,0,1,0,2.127Z" transform="translate(-4.832 -3.578)" fill="#65e33f"/>
    </g>
  </g>
</svg>
