<svg xmlns="http://www.w3.org/2000/svg" width="23.992" height="23.99" viewBox="0 0 23.992 23.99">
  <g id="Group_29910" data-name="Group 29910" transform="translate(7724 -5466)">
    <path id="Path_48848" data-name="Path 48848" d="M12.174.012c-.431-.008-.811-.007-1.156,0l-.144,0c-.323.008-.619.022-.873.04A2.466,2.466,0,0,0,7.763,2.364c-.06.749-.1,1.773-.1,3.176s.052,2.43.12,3.177a2.581,2.581,0,0,0,2.343,2.343c.239.022.525.04.824.057l.309.015c.328.017.677.03,1.077.037h.013A12.98,12.98,0,0,0,12.174.012" transform="translate(-7718.847 5466.004)" fill="#6265fe"/>
    <path id="Path_48849" data-name="Path 48849" d="M17.181,2.717a2.97,2.97,0,0,0-2.41-2.41A29.636,29.636,0,0,0,11.707.033C10.9,0,10.237-.005,9.67.006c.346-.007.724-.008,1.156,0A12.98,12.98,0,0,1,11,11.163c.3.007.612.01.953.012,1.4,0,2.428-.04,3.176-.1A2.467,2.467,0,0,0,17.44,8.835a27.158,27.158,0,0,0,.015-3.054,28.718,28.718,0,0,0-.274-3.064" transform="translate(-7717.498 5466)" fill="#89929f"/>
    <path id="Path_48850" data-name="Path 48850" d="M.006,10.411c.005.253.012.512.023.8A29.129,29.129,0,0,0,.3,14.271a2.968,2.968,0,0,0,2.41,2.41,28.68,28.68,0,0,0,3.062.274,27.159,27.159,0,0,0,3.054-.015,2.469,2.469,0,0,0,2.239-2.308c.06-.748.1-1.773.1-3.176,0-.329,0-.635-.01-.923A12.986,12.986,0,0,1,.006,10.411" transform="translate(-7723.996 5473)" fill="#89929f"/>
    <path id="Path_48851" data-name="Path 48851" d="M16.482,7.763c-.748-.06-1.773-.1-3.176-.1-.729,0-1.353.017-1.891.04A13.036,13.036,0,0,1,7.7,11.434c-.022.533-.037,1.151-.038,1.87,0,1.4.038,2.428.1,3.176A2.465,2.465,0,0,0,10,18.788a27.446,27.446,0,0,0,3.052.017,29.085,29.085,0,0,0,3.062-.274,2.968,2.968,0,0,0,2.412-2.412,28.679,28.679,0,0,0,.274-3.062c.028-.674.037-1.259.032-1.764s-.023-.93-.047-1.289a2.466,2.466,0,0,0-2.308-2.239" transform="translate(-7718.846 5471.152)" fill="#89929f"/>
    <path id="Path_48852" data-name="Path 48852" d="M8.833.048A27.983,27.983,0,0,0,5.78.033,28.242,28.242,0,0,0,2.718.308a2.962,2.962,0,0,0-2.41,2.41A29.129,29.129,0,0,0,.033,5.78C.013,6.239,0,6.656,0,7.036v.51c.005.5.023.928.047,1.288a2.47,2.47,0,0,0,2.31,2.239c.751.06,1.773.1,3.176.1s2.43-.052,3.177-.119A2.583,2.583,0,0,0,11.053,8.71c.067-.748.117-1.774.12-3.177s-.038-2.43-.1-3.176A2.466,2.466,0,0,0,8.833.048" transform="translate(-7724 5466)" fill="#6265fe"/>
    <path id="Path_48853" data-name="Path 48853" d="M6.676,10.5l0-.038,0,.038" transform="translate(-7719.513 5473.033)" fill="#6265fe"/>
    <path id="Path_48854" data-name="Path 48854" d="M11.161,12.342c-.008-.423-.022-.8-.038-1.144,0-.055-.005-.109-.008-.162-.018-.336-.038-.647-.062-.91A2.58,2.58,0,0,0,8.71,7.783c-.749-.067-1.773-.117-3.177-.12s-2.428.038-3.176.1a2.526,2.526,0,0,0-2.085,1.4A2.285,2.285,0,0,0,.05,10c-.02.279-.033.612-.042.977v.015c0,.1-.007.191-.008.3V11.8c0,.147,0,.3.007.457l0,0a12.986,12.986,0,0,0,11.151.122v-.038" transform="translate(-7724 5471.152)" fill="#6265fe"/>
    <path id="Path_48855" data-name="Path 48855" d="M10.741,7.721h-.015c-.222.015-.428.03-.615.047a2.581,2.581,0,0,0-2.343,2.343c-.033.366-.062.8-.082,1.309l0,0A13.042,13.042,0,0,0,11.4,7.688v0c-.237.01-.455.022-.659.035" transform="translate(-7718.833 5471.167)" fill="#6265fe"/>
  </g>
</svg>
