<svg xmlns="http://www.w3.org/2000/svg" width="46" height="46" viewBox="0 0 46 46">
  <g id="Group_29648" data-name="Group 29648" transform="translate(-141 -787)">
    <g id="Rectangle_13559" data-name="Rectangle 13559" transform="translate(142 788)" fill="#181a1f" stroke="rgba(255,255,255,0.1)" stroke-width="1">
      <rect width="44" height="44" rx="12" stroke="none"/>
      <rect x="-0.5" y="-0.5" width="45" height="45" rx="12.5" fill="none"/>
    </g>
    <g id="Group_28720" data-name="Group 28720" transform="translate(0 119)">
      <g id="Polygon_19" data-name="Polygon 19" transform="translate(176 683) rotate(90)" fill="none">
        <path d="M6.2,2.274a2,2,0,0,1,3.253,0L13.4,7.784a2,2,0,0,1-1.627,3.164H3.889A2,2,0,0,1,2.263,7.784Z" stroke="none"/>
        <path d="M 7.830349922180176 2.637843132019043 C 7.70665979385376 2.637843132019043 7.395659446716309 2.670443534851074 7.179659843444824 2.972433090209961 L 3.238749504089355 8.482223510742188 C 2.982419967651367 8.84061336517334 3.110870361328125 9.182923316955566 3.177989959716797 9.31346321105957 C 3.245120048522949 9.444013595581055 3.448820114135742 9.74763298034668 3.889450073242188 9.74763298034668 L 11.77126026153564 9.74763298034668 C 12.21187973022461 9.74763298034668 12.4155797958374 9.444013595581055 12.48270988464355 9.313472747802734 C 12.54982948303223 9.182933807373047 12.67828941345215 8.84061336517334 12.42194938659668 8.482223510742188 L 8.481040000915527 2.972433090209961 C 8.265039443969727 2.670443534851074 7.954040050506592 2.637843132019043 7.830349922180176 2.637843132019043 M 7.830349922180176 1.437840461730957 C 8.444276809692383 1.437840461730957 9.058204650878906 1.716668128967285 9.457069396972656 2.274323463439941 L 13.39797973632812 7.78411340713501 C 14.34469032287598 9.10771369934082 13.39859008789062 10.94763374328613 11.77126026153564 10.94763374328613 L 3.889450073242188 10.94763374328613 C 2.262109756469727 10.94763374328613 1.316009521484375 9.10771369934082 2.262720108032227 7.78411340713501 L 6.203629493713379 2.274323463439941 C 6.602495193481445 1.716668128967285 7.216422080993652 1.437840461730957 7.830349922180176 1.437840461730957 Z" stroke="none" fill="#f5f5f5"/>
      </g>
      <g id="Polygon_20" data-name="Polygon 20" transform="translate(152 698.661) rotate(-90)" fill="none">
        <path d="M6.2,2.274a2,2,0,0,1,3.253,0L13.4,7.784a2,2,0,0,1-1.627,3.164H3.889A2,2,0,0,1,2.263,7.784Z" stroke="none"/>
        <path d="M 7.830349922180176 2.637843132019043 C 7.70665979385376 2.637843132019043 7.395659446716309 2.670443534851074 7.179659843444824 2.972433090209961 L 3.238749504089355 8.482223510742188 C 2.982419967651367 8.84061336517334 3.110870361328125 9.182923316955566 3.177989959716797 9.31346321105957 C 3.245120048522949 9.444013595581055 3.448820114135742 9.74763298034668 3.889450073242188 9.74763298034668 L 11.77126026153564 9.74763298034668 C 12.21187973022461 9.74763298034668 12.4155797958374 9.444013595581055 12.48270988464355 9.313472747802734 C 12.54982948303223 9.182933807373047 12.67828941345215 8.84061336517334 12.42194938659668 8.482223510742188 L 8.481040000915527 2.972433090209961 C 8.265039443969727 2.670443534851074 7.954040050506592 2.637843132019043 7.830349922180176 2.637843132019043 M 7.830349922180176 1.437840461730957 C 8.444276809692383 1.437840461730957 9.058204650878906 1.716668128967285 9.457069396972656 2.274323463439941 L 13.39797973632812 7.78411340713501 C 14.34469032287598 9.10771369934082 13.39859008789062 10.94763374328613 11.77126026153564 10.94763374328613 L 3.889450073242188 10.94763374328613 C 2.262109756469727 10.94763374328613 1.316009521484375 9.10771369934082 2.262720108032227 7.78411340713501 L 6.203629493713379 2.274323463439941 C 6.602495193481445 1.716668128967285 7.216422080993652 1.437840461730957 7.830349922180176 1.437840461730957 Z" stroke="none" fill="#f5f5f5"/>
      </g>
    </g>
  </g>
</svg>
