<svg xmlns="http://www.w3.org/2000/svg" width="16.209" height="18.003" viewBox="0 0 16.209 18.003">
  <g id="tohirgoo1" transform="translate(-58.345 -301.9)">
    <path id="Path_33896" data-name="Path 33896" d="M13.508,15.06h-.634a2.491,2.491,0,0,0-1.768.725L9.68,17.2a1.686,1.686,0,0,1-2.36,0L5.895,15.786a2.506,2.506,0,0,0-1.768-.725H3.5A2.488,2.488,0,0,1,1,12.584v-9.1A2.488,2.488,0,0,1,3.5,1.01H13.508a2.488,2.488,0,0,1,2.5,2.477v9.1A2.493,2.493,0,0,1,13.508,15.06Z" transform="translate(57.945 301.49)" fill="none" stroke="#1B3C69" stroke-linecap="round" stroke-linejoin="round" stroke-width="1.2"/>
    <path id="Path_33897" data-name="Path 33897" d="M9.613,8.226A1.943,1.943,0,1,0,7.67,6.283,1.943,1.943,0,0,0,9.613,8.226Z" transform="translate(56.837 300.937)" fill="none" stroke="#65e33f" stroke-linecap="round" stroke-linejoin="round" stroke-width="1.2"/>
    <path id="Path_33898" data-name="Path 33898" d="M12.671,14.118c0-1.5-1.493-2.718-3.335-2.718S6,12.618,6,14.118" transform="translate(57.114 299.764)" fill="none" stroke="#65e33f" stroke-linecap="round" stroke-linejoin="round" stroke-width="1.2"/>
  </g>
</svg>
