<svg xmlns="http://www.w3.org/2000/svg" xmlns:xlink="http://www.w3.org/1999/xlink" width="143.876" height="123.777" viewBox="0 0 143.876 123.777">
  <defs>
    <linearGradient id="linear-gradient" x1="0.5" x2="0.5" y2="1" gradientUnits="objectBoundingBox">
      <stop offset="0" stop-color="#fff"/>
      <stop offset="1" stop-color="#fff"/>
    </linearGradient>
  </defs>
  <g id="Group_29936" data-name="Group 29936" transform="translate(-96.662 -386.3)">
    <g id="Group_29857" data-name="Group 29857" transform="translate(96.662 386.3)" opacity="0.5">
      <path id="Path_48341" data-name="Path 48341" d="M2.489,15.7C7.61,13.261,19.447,7.717,25.742,4.771a3.49,3.49,0,0,1,4.912,2.55L33.23,21.669a3.491,3.491,0,0,1-2,3.8L8.262,35.811A3.494,3.494,0,0,1,3.407,33.33L.572,19.555A3.491,3.491,0,0,1,2.489,15.7Z" transform="translate(0.299 2.654)" fill="none" stroke="#fff" stroke-width="1"/>
      <path id="Path_48342" data-name="Path 48342" d="M14.813,44.051,69.67,20.217V15.256a4.4,4.4,0,0,1,2.659-4.039L97.7.283a3.43,3.43,0,0,1,4.7,2.4l14.34,63.61a6.959,6.959,0,0,1-3.985,7.9L31.026,110.161a4.709,4.709,0,0,1-6.5-3.327L12.416,50.043s-.954-4.536,2.4-5.992" transform="translate(7.347 0)" opacity="0.3" fill="url(#linear-gradient)"/>
      <path id="Path_48343" data-name="Path 48343" d="M43.241,52.9l77.227-33.487s2.989-1.542,5.2-1.36a2.326,2.326,0,0,1,1.957,2.807L119.182,64.6a17.9,17.9,0,0,1-2.58,6.522,13.856,13.856,0,0,1-5.853,5.15l-78.36,34.952s-7.567,3.617-6.524-3.129c.818-5.3,7.457-35.77,9.6-45.49a13.589,13.589,0,0,1,6.708-9.189C42.509,53.237,42.867,53.064,43.241,52.9Z" transform="translate(15.404 10.785)" fill="none" stroke="#fff" stroke-width="1"/>
      <rect id="Rectangle_13997" data-name="Rectangle 13997" width="143.876" height="123.777" transform="translate(0)" fill="none"/>
    </g>
  </g>
</svg>
