<svg xmlns="http://www.w3.org/2000/svg" width="14.5" height="14.5" viewBox="0 0 14.5 14.5">
  <g id="Group_29266" data-name="Group 29266" transform="translate(-24 -431.5)">
    <path id="Path_46370" data-name="Path 46370" d="M14.5,7.25A7.25,7.25,0,1,1,7.25,0,7.25,7.25,0,0,1,14.5,7.25" transform="translate(24 431.5)" fill="#65E33E"/>
    <path id="Path_46371" data-name="Path 46371" d="M104.448,146.4l-1.383-1.32a.476.476,0,0,0-.652,0l-3.362,3.209-1.518-1.449a.476.476,0,0,0-.652,0l-1.383,1.32a.426.426,0,0,0,0,.622l2.766,2.641a.472.472,0,0,0,.326.129h.922a.472.472,0,0,0,.326-.129l4.609-4.4a.426.426,0,0,0,0-.622" transform="translate(-68.742 290.761)" fill="#fff"/>
  </g>
</svg>
