<svg xmlns="http://www.w3.org/2000/svg" xmlns:xlink="http://www.w3.org/1999/xlink" width="67.208" height="56" viewBox="0 0 67.208 56">
  <defs>
    <linearGradient id="linear-gradient" x1="0.5" x2="0.5" y2="1" gradientUnits="objectBoundingBox">
      <stop offset="0" stop-color="#6265fe"/>
      <stop offset="1" stop-color="#31337f"/>
    </linearGradient>
    <clipPath id="clip-path">
      <rect id="Rectangle_14152" data-name="Rectangle 14152" width="39.813" height="28.142" fill="none"/>
    </clipPath>
  </defs>
  <g id="Group_30634" data-name="Group 30634" transform="translate(-233 -154)">
    <rect id="Rectangle_14153" data-name="Rectangle 14153" width="56" height="56" rx="28" transform="translate(233 154)" fill="#6265fe" opacity="0.1"/>
    <rect id="Rectangle_14151" data-name="Rectangle 14151" width="44" height="44" rx="22" transform="translate(239 160)" fill="url(#linear-gradient)"/>
    <g id="Group_30072" data-name="Group 30072" transform="translate(255.756 176.714) rotate(-11)">
      <g id="Group_30071" data-name="Group 30071" clip-path="url(#clip-path)">
        <path id="Path_49214" data-name="Path 49214" d="M38.663,1.28a4.135,4.135,0,0,0-3-1.281H4.149A4.149,4.149,0,0,0,0,4.148V23.991a4.152,4.152,0,0,0,4.149,4.15H35.664a4.149,4.149,0,0,0,4.149-4.15V4.148A4.131,4.131,0,0,0,38.663,1.28" transform="translate(0 0.001)" fill="#efefef"/>
        <path id="Path_49215" data-name="Path 49215" d="M52.77,1.28,38.166,14.07l-2.46,2.154a2.569,2.569,0,0,1-3.385,0l-2.46-2.154L15.258,1.28a4.136,4.136,0,0,1,3-1.281H49.772a4.135,4.135,0,0,1,3,1.281" transform="translate(-14.107 0.001)" fill="#fff"/>
        <path id="Path_49216" data-name="Path 49216" d="M52.779,199.379a4.136,4.136,0,0,1-3,1.281H18.265a4.13,4.13,0,0,1-3-1.282l14.6-12.789,2.46,2.154a2.569,2.569,0,0,0,3.385,0l2.46-2.154Z" transform="translate(-14.117 -172.519)" fill="#dcdee2"/>
        <line id="Line_1756" data-name="Line 1756" x1="0.001" y2="0.001" transform="translate(1.151 26.86)" fill="#fff"/>
      </g>
    </g>
  </g>
</svg>
