<svg id="Group_30560" data-name="Group 30560" xmlns="http://www.w3.org/2000/svg" xmlns:xlink="http://www.w3.org/1999/xlink" width="643.116" height="449.197" viewBox="0 0 643.116 449.197">
  <defs>
    <clipPath id="clip-path">
      <rect id="Rectangle_14549" data-name="Rectangle 14549" width="643.116" height="449.197" fill="none"/>
    </clipPath>
  </defs>
  <g id="Group_30559" data-name="Group 30559" clip-path="url(#clip-path)">
    <path id="Path_49942" data-name="Path 49942" d="M28.415,10.982A5.553,5.553,0,0,0,33.907,5.49a5.492,5.492,0,0,0-10.984,0,5.588,5.588,0,0,0,5.492,5.492" transform="translate(8.406)" fill="#5780ee"/>
    <path id="Path_49943" data-name="Path 49943" d="M5.5,43.572a5.491,5.491,0,0,0,0-10.982,5.491,5.491,0,1,0,0,10.982" transform="translate(0 11.954)" fill="#53e3b6"/>
    <path id="Path_49944" data-name="Path 49944" d="M432.175,214.679a5.491,5.491,0,1,0-5.49-5.492,5.551,5.551,0,0,0,5.49,5.492" transform="translate(156.5 74.713)" fill="#214fb3"/>
    <path id="Path_49945" data-name="Path 49945" d="M306.878,125.918c-24.917,18.07-52.515,2.341-52.515,2.341l3.544-21.748,1.471-9.026,18.294-14.463,16.8-13.278Z" transform="translate(93.297 25.581)" fill="#f7cd9c"/>
    <path id="Path_49946" data-name="Path 49946" d="M292.971,75.88c-4.4,18.286-9.771,26.855-18.465,29.088-6.837,1.767-14.876-.008-17.55-.708l1.472-9.026L276.722,80.77Z" transform="translate(94.248 27.832)" fill="#242526"/>
    <path id="Path_49947" data-name="Path 49947" d="M292.607,93.185,277.8,107.559a7.563,7.563,0,0,1-6.03,2.091l-13.17-1.363a7.551,7.551,0,0,1-6.77-7.5l-.011-10.3L251.8,79.264l-.021-17.31c-.031-14.871,13.287-19.276,13.287-19.276a25.308,25.308,0,0,1,22.074,4.584,11.32,11.32,0,0,1,4.162,7.225l4.426,29.5a10.621,10.621,0,0,1-3.116,9.2" transform="translate(92.348 15.364)" fill="#f7cd9c"/>
    <path id="Path_49948" data-name="Path 49948" d="M299.742,67.636a9.782,9.782,0,0,1-7.192,11.819c-5.25,1.278-12.7-2.3-13.979-7.554s4.1-10.178,9.353-11.456a9.782,9.782,0,0,1,11.819,7.192" transform="translate(102.106 22.067)" fill="#f7cd9c"/>
    <path id="Path_49949" data-name="Path 49949" d="M440.683,298.052l-5.418,1.215-102.46,23-83.923-25.749-3.908-40.188-61.4,39.067L157.9,211.119l84.1-83.586a29.883,29.883,0,0,1,16.445-8.322l30.619-4.8,44.455-5.429,57.931,10.7a51.2,51.2,0,0,1,33.363,26.151L470.14,233.15l.391.75a44.651,44.651,0,0,1-29.848,64.152" transform="translate(57.917 39.975)" fill="#214fb3"/>
    <path id="Path_49950" data-name="Path 49950" d="M96.464,143.927l99.789-9.781,2.209,49.837,12.45,59.849,15.431,43.979-101.558,7.2L113.5,266.785l-13.259-71.419Z" transform="translate(35.382 49.203)" fill="#fff"/>
    <path id="Path_49951" data-name="Path 49951" d="M250.455,274.393l78.1,34.741c2.714,2.758,2.935,12.035-2.732,13.256l-123.59,26.662c-7.625,1.644-17.83-.623-22.711-5.117l-55.923-51.5c-2.742-2.524-2.889-10.245,1-12.357l109.734-8.3c4.952-.685,12.114.472,16.127,2.619" transform="translate(44.602 99.611)" fill="#214fb3"/>
    <path id="Path_49952" data-name="Path 49952" d="M250.2,268.737l74.472,39.857c6.059,3.242,6.563,6.919.9,8.141L201.979,343.4c-7.625,1.644-17.83-.623-22.711-5.117l-55.923-51.5c-2.742-2.524.055-5.358,6.283-6.219l104.446-14.439c4.952-.685,12.114.472,16.127,2.619" transform="translate(44.855 97.536)" fill="#5780ee"/>
    <path id="Path_49953" data-name="Path 49953" d="M197.18,296.033l19.8,14.2-22.723,4.24-19.028-14.681Z" transform="translate(64.273 108.581)" fill="#214fb3"/>
    <path id="Path_49954" data-name="Path 49954" d="M213.592,312.185l-22.264-15.822,23.886-4.087,23.034,15.308ZM196.54,297.55l17.529,12.458,18.837-3.514-18.148-12.062Z" transform="translate(70.177 107.203)" fill="#fff"/>
    <path id="Path_49955" data-name="Path 49955" d="M231.69,308.677l-23.185-15.287,23.148-3.962,23.878,14.8Zm-17.723-14.142,18.16,11.974,17.827-3.327-18.72-11.6Z" transform="translate(76.477 106.158)" fill="#fff"/>
    <path id="Path_49956" data-name="Path 49956" d="M249.017,305.318l-24.024-14.782,22.462-3.845,24.639,14.321ZM230.7,291.639l18.72,11.519,16.873-3.149-19.222-11.172Z" transform="translate(82.524 105.155)" fill="#fff"/>
    <path id="Path_49957" data-name="Path 49957" d="M182.332,285.547l17.719,12.7-21.856,3.7-16.989-13.109Z" transform="translate(59.128 104.735)" fill="#53e3b6"/>
    <path id="Path_49958" data-name="Path 49958" d="M196.8,300.129l-20.2-14.361,23.192-3.621,20.953,13.925ZM181.9,287.018l15.4,10.949,18-3.051L199.321,284.3Z" transform="translate(64.775 103.488)" fill="#fff"/>
    <path id="Path_49959" data-name="Path 49959" d="M214.259,297.065l-21.094-13.908,22.531-3.518,21.769,13.494Zm-15.538-12.7,15.991,10.545,17.062-2.891L215.26,281.781Z" transform="translate(70.85 102.568)" fill="#fff"/>
    <path id="Path_49960" data-name="Path 49960" d="M231.007,294.121,209.1,280.642l21.914-3.421,22.516,13.086Zm-16.1-12.312,16.514,10.163,16.176-2.742-16.991-9.872Z" transform="translate(76.695 101.681)" fill="#fff"/>
    <path id="Path_49961" data-name="Path 49961" d="M168.966,276.112l15.946,11.433-21.04,3.252-15.26-11.773Z" transform="translate(54.509 101.274)" fill="#53e3b6"/>
    <path id="Path_49962" data-name="Path 49962" d="M184.915,273.8l16.652,11.067L181.338,288l-16.027-11.391Z" transform="translate(60.634 100.427)" fill="#214fb3"/>
    <path id="Path_49963" data-name="Path 49963" d="M200.291,271.577l17.3,10.721-19.464,3.008L181.4,274.279Z" transform="translate(66.533 99.611)" fill="#214fb3"/>
    <path id="Path_49964" data-name="Path 49964" d="M215.123,269.43l17.882,10.392-18.743,2.9L196.9,272.036Z" transform="translate(72.22 98.823)" fill="#214fb3"/>
    <path id="Path_49965" data-name="Path 49965" d="M131.382,281.178l53.158,47.015,22.57-4.665-56.551-45.092Z" transform="translate(48.189 102.127)" fill="#fff"/>
    <path id="Path_49966" data-name="Path 49966" d="M285.473,224.568l-73.133,5.555s4.4,19.44,20.828,18.514l-23.375,8.1-18.745,33.1a16.372,16.372,0,0,0,13.65,2.59,19.491,19.491,0,0,0,10.192-6.289l8.6-9.868,7.594,25.823,41.195,19.21,18.236-5.324s-1.189-10.537-9.752-12.389l2.575-17.733s24.4,7.613,37.312-5.982Z" transform="translate(70.074 82.369)" fill="#f7cd9c"/>
    <rect id="Rectangle_14531" data-name="Rectangle 14531" width="33.521" height="2.05" transform="translate(293.018 357.785) rotate(-32.556)" fill="#242526"/>
    <path id="Path_49967" data-name="Path 49967" d="M233.552,300.471l-7.08-32.385,26.394-17.559L254,252.233l-25.227,16.784,6.781,31.017Z" transform="translate(83.067 91.89)" fill="#242526"/>
    <path id="Path_49968" data-name="Path 49968" d="M246.693,307.007l-6.2-38.433,25.089-14.63,1.033,1.77-23.875,13.922,5.974,37.045Z" transform="translate(88.21 93.144)" fill="#242526"/>
    <rect id="Rectangle_14532" data-name="Rectangle 14532" width="29.729" height="2.048" transform="translate(302.877 330.048) rotate(-20.914)" fill="#242526"/>
    <path id="Path_49969" data-name="Path 49969" d="M102.6,181.482l27.168,13.984a10.8,10.8,0,0,1,5.6,11.927l-2.021,9.16,2.134.875a9.967,9.967,0,0,1,5.943,11.4l-2.485,11.109-.857,3.753A9.966,9.966,0,0,1,125.7,251.2l-.107.647c-1.083,6.617-7.219,9.08-13.215,6.082L95.92,248.842l-3.778-3.417c-2.468-3.439-2.154-9.316-1.974-13.548l2.265-53.445L101.9,172Z" transform="translate(33.029 63.087)" fill="#f7cd9c"/>
    <rect id="Rectangle_14533" data-name="Rectangle 14533" width="2.05" height="34.9" transform="translate(133.799 267.08) rotate(-67.234)" fill="#242526"/>
    <rect id="Rectangle_14534" data-name="Rectangle 14534" width="2.05" height="41.442" transform="translate(133.799 285.958) rotate(-67.22)" fill="#242526"/>
    <rect id="Rectangle_14535" data-name="Rectangle 14535" width="2.051" height="28.253" transform="translate(132.873 302.843) rotate(-64.049)" fill="#242526"/>
    <rect id="Rectangle_14536" data-name="Rectangle 14536" width="2.05" height="18.863" transform="translate(131.385 243.727) rotate(-63.272)" fill="#242526"/>
    <path id="Path_49970" data-name="Path 49970" d="M251.025,120.947l3.086-21.735,53.991-1,4.214,19.51s-35.651,26.375-61.291,3.228" transform="translate(92.073 36.022)" fill="#214fb3"/>
    <rect id="Rectangle_14537" data-name="Rectangle 14537" width="136.133" height="2.049" transform="translate(355.216 305.951) rotate(-18.677)" fill="#242526"/>
    <rect id="Rectangle_14538" data-name="Rectangle 14538" width="2.051" height="37.606" transform="translate(441.171 238.385) rotate(-12.515)" fill="#242526"/>
    <rect id="Rectangle_14539" data-name="Rectangle 14539" width="2.051" height="83.728" transform="translate(299.09 212.657) rotate(-1.9)" fill="#242526"/>
    <path id="Path_49971" data-name="Path 49971" d="M256.082,68.731a1.24,1.24,0,1,1-1.24-1.24,1.24,1.24,0,0,1,1.24,1.24" transform="translate(93.018 24.755)" fill="#242526"/>
    <path id="Path_49972" data-name="Path 49972" d="M268.929,68.406a1.24,1.24,0,1,1-1.24-1.24,1.24,1.24,0,0,1,1.24,1.24" transform="translate(97.73 24.636)" fill="#242526"/>
    <path id="Path_49973" data-name="Path 49973" d="M281.063,74.217a5.9,5.9,0,1,0-5.9,5.9,5.9,5.9,0,0,0,5.9-5.9" transform="translate(98.759 25.056)" fill="#f4b17f"/>
    <path id="Path_49974" data-name="Path 49974" d="M255.868,74.853a5.916,5.916,0,0,1-4.055,5.608l-.022-11.227a5.917,5.917,0,0,1,4.077,5.619" transform="translate(92.354 25.394)" fill="#f4b17f"/>
    <path id="Path_49975" data-name="Path 49975" d="M265.963,84.466a35.273,35.273,0,0,1-6.133-.532l-1.508-.291,2.941-4.458-5.892-.377,6.869-14.294,1.848.888-5.555,11.553,6.387.41-3.155,4.782c3.484.417,11.9.9,15.337-3.552l1.624,1.253c-2.918,3.778-8.439,4.617-12.764,4.617" transform="translate(93.667 23.663)" fill="#242526"/>
    <path id="Path_49976" data-name="Path 49976" d="M259.08,75.744h-7.223a4.707,4.707,0,0,1-4.7-4.7V63.5H262.79v8.536a3.713,3.713,0,0,1-3.709,3.709m-9.875-10.195v5.493a2.654,2.654,0,0,0,2.652,2.652h7.223a1.66,1.66,0,0,0,1.659-1.659V65.549Z" transform="translate(90.653 23.291)" fill="#242526"/>
    <path id="Path_49977" data-name="Path 49977" d="M272.88,75.744h-7.222a3.714,3.714,0,0,1-3.711-3.709V63.5h15.635v7.543a4.707,4.707,0,0,1-4.7,4.7M264,65.549v6.485a1.661,1.661,0,0,0,1.661,1.659h7.222a2.654,2.654,0,0,0,2.652-2.652V65.549Z" transform="translate(96.079 23.291)" fill="#242526"/>
    <path id="Path_49978" data-name="Path 49978" d="M264.22,66.477a7.668,7.668,0,0,0-5.81-.029l-.894-1.845a9.77,9.77,0,0,1,7.46-.033Z" transform="translate(94.453 23.421)" fill="#242526"/>
    <rect id="Rectangle_14540" data-name="Rectangle 14540" width="15.42" height="2.05" transform="translate(372.736 86.815) rotate(-12.397)" fill="#242526"/>
    <path id="Path_49979" data-name="Path 49979" d="M291.294,70.125l-4.5-.294A1.851,1.851,0,0,1,285.8,66.5l3.835-2.852,1.223,1.646-3.4,2.529,3.966.258Z" transform="translate(104.555 23.345)" fill="#242526"/>
    <path id="Path_49980" data-name="Path 49980" d="M303.384,44.28c3.258.35,3.928,6.688,3.928,6.688l-1.077,19.466-5.682,8.685C286.308,75.226,288.6,57.855,288.6,57.855,268.382,71.482,246.82,62.8,246.82,62.8a8.488,8.488,0,0,1-5.25-7.975,8.306,8.306,0,0,1,5.751-7.483A7.287,7.287,0,0,1,248.9,40.9a10.686,10.686,0,0,1,5.842-3.411,20.388,20.388,0,0,1,6.849-.238,14.735,14.735,0,0,1,9.227-4.385,13.77,13.77,0,0,1,9.5,2.688Z" transform="translate(88.603 12.034)" fill="#242526"/>
    <rect id="Rectangle_14541" data-name="Rectangle 14541" width="21.433" height="2.049" transform="translate(349.774 160.336) rotate(-85.18)" fill="#242526"/>
    <rect id="Rectangle_14542" data-name="Rectangle 14542" width="2.049" height="21.051" transform="translate(392.275 138.609) rotate(-6.292)" fill="#242526"/>
    <rect id="Rectangle_14543" data-name="Rectangle 14543" width="2.05" height="23.388" transform="translate(365.129 139.47)" fill="#242526"/>
    <rect id="Rectangle_14544" data-name="Rectangle 14544" width="2.051" height="22.419" transform="translate(382.764 138.89) rotate(-3.429)" fill="#242526"/>
    <rect id="Rectangle_14545" data-name="Rectangle 14545" width="2.05" height="20.213" transform="translate(396.703 138.159) rotate(-10.378)" fill="#242526"/>
    <rect id="Rectangle_14546" data-name="Rectangle 14546" width="19.923" height="2.05" transform="translate(344.158 157.994) rotate(-80.714)" fill="#242526"/>
    <rect id="Rectangle_14547" data-name="Rectangle 14547" width="85.33" height="2.051" transform="translate(148.792 240.158) rotate(-5.392)" fill="#242526"/>
    <rect id="Rectangle_14548" data-name="Rectangle 14548" width="64.561" height="2.05" transform="matrix(0.997, -0.073, 0.073, 0.997, 181.83, 296.719)" fill="#242526"/>
    <path id="Path_49981" data-name="Path 49981" d="M367.629,264.732l-5.418,1.215a45.459,45.459,0,0,1,34.875-66.117l.391.75a44.651,44.651,0,0,1-29.848,64.152" transform="translate(130.971 73.295)" fill="#5780ee"/>
    <path id="Path_49982" data-name="Path 49982" d="M63.56,43.593l-7.618-7.62,7.618-7.618,7.618,7.618Zm-4.72-7.62,4.72,4.721,4.72-4.721-4.72-4.72Z" transform="translate(20.519 10.4)" fill="#242526"/>
    <path id="Path_49983" data-name="Path 49983" d="M425.908,256.559l-7.62-7.62,7.62-7.618,7.618,7.618Zm-4.721-7.62,4.721,4.721,4.719-4.721-4.719-4.72Z" transform="translate(153.423 88.513)" fill="#242526"/>
    <path id="Path_49984" data-name="Path 49984" d="M37.176,88.168a2.366,2.366,0,0,1-.534-.055,2.138,2.138,0,0,1-.506-.15,2.355,2.355,0,0,1-.477-.26,1.954,1.954,0,0,1-.411-.342,2.742,2.742,0,0,1-.805-1.927,2.849,2.849,0,0,1,.2-1.039,3.377,3.377,0,0,1,.261-.478,1.99,1.99,0,0,1,.342-.41,1.954,1.954,0,0,1,.411-.342,3.3,3.3,0,0,1,.477-.26,3.049,3.049,0,0,1,.506-.15,2.73,2.73,0,0,1,2.462.752,2.734,2.734,0,0,1-1.927,4.661" transform="translate(12.633 30.335)" fill="#242526"/>
    <path id="Path_49985" data-name="Path 49985" d="M141.395,94a2.727,2.727,0,1,1,.014,0ZM152.6,90.352a2.73,2.73,0,1,1,3.253,2.078,2.852,2.852,0,0,1-.588.055,2.716,2.716,0,0,1-2.665-2.132m-25.641,2.009h0a2.773,2.773,0,1,1,.574.055,2.731,2.731,0,0,1-.574-.055M113.24,88.52a2.723,2.723,0,1,1,.846.137,2.546,2.546,0,0,1-.846-.137M166,86.415a2.731,2.731,0,1,1,3.637,1.326,2.661,2.661,0,0,1-1.148.26A2.738,2.738,0,0,1,166,86.415m-122.34-3.28a2.734,2.734,0,1,1,3.566,1.476v.014a2.811,2.811,0,0,1-1.039.205,2.735,2.735,0,0,1-2.527-1.695m56.325.984a2.713,2.713,0,1,1,.832.137,2.535,2.535,0,0,1-.832-.137M56.86,78.57a2.733,2.733,0,1,1,3.211,2.146,2.334,2.334,0,0,1-.532.055,2.73,2.73,0,0,1-2.679-2.2m29.931,2.05a2.7,2.7,0,1,1,.519.055,3.348,3.348,0,0,1-.519-.055m-16.1-3.991a2.734,2.734,0,0,1,5.467-.027,2.75,2.75,0,0,1-2.719,2.747h-.015a2.73,2.73,0,0,1-2.734-2.72" transform="translate(15.937 27.099)" fill="#242526"/>
    <path id="Path_49986" data-name="Path 49986" d="M144.385,80.328a2.766,2.766,0,0,1-1.927-.806,2.474,2.474,0,0,1-.342-.41,3.163,3.163,0,0,1-.246-.478,3.124,3.124,0,0,1-.164-.506,2.626,2.626,0,0,1,0-1.066,3.282,3.282,0,0,1,.164-.519,3.023,3.023,0,0,1,.246-.465,3.313,3.313,0,0,1,.342-.424,3.4,3.4,0,0,1,.41-.342,3.162,3.162,0,0,1,.478-.246,2.137,2.137,0,0,1,.506-.15,2.8,2.8,0,0,1,1.066,0,2.265,2.265,0,0,1,.519.15,3.023,3.023,0,0,1,.465.246,2.555,2.555,0,0,1,.765.765,3.022,3.022,0,0,1,.246.465,3,3,0,0,1,.205,1.052,2.731,2.731,0,0,1-.793,1.927,2.8,2.8,0,0,1-1.941.806" transform="translate(51.956 27.459)" fill="#242526"/>
    <path id="Path_49987" data-name="Path 49987" d="M362.055,310.719a2.775,2.775,0,0,1-1.052-.205,2.737,2.737,0,0,1-.875-.588,2.778,2.778,0,0,1-.6-.888,2.725,2.725,0,0,1-.205-1.052,2.353,2.353,0,0,1,.055-.533,2.136,2.136,0,0,1,.15-.506,3.234,3.234,0,0,1,.26-.478,1.944,1.944,0,0,1,.342-.41,2.8,2.8,0,0,1,3.854,0,1.944,1.944,0,0,1,.342.41,3.234,3.234,0,0,1,.26.478,2.138,2.138,0,0,1,.15.506,2.353,2.353,0,0,1,.055.533,2.725,2.725,0,0,1-.205,1.052,2.777,2.777,0,0,1-.6.888,2.737,2.737,0,0,1-.875.588,2.775,2.775,0,0,1-1.052.205" transform="translate(131.794 111.976)" fill="#5780ee"/>
    <path id="Path_49988" data-name="Path 49988" d="M466.275,316.561a2.727,2.727,0,1,1,.014,0Zm11.209-3.651a2.73,2.73,0,1,1,3.253,2.079,2.869,2.869,0,0,1-.588.067,2.739,2.739,0,0,1-2.665-2.146m-25.641,2.011h0a2.773,2.773,0,1,1,.574.055,2.809,2.809,0,0,1-.574-.055m-13.723-3.842a2.731,2.731,0,1,1,3.443-1.748,2.747,2.747,0,0,1-2.6,1.886,2.52,2.52,0,0,1-.847-.138m52.757-2.09a2.734,2.734,0,1,1,3.637,1.312,2.674,2.674,0,0,1-1.162.258,2.744,2.744,0,0,1-2.475-1.57M368.538,305.7a2.73,2.73,0,0,1,1.476-3.569h.014a2.734,2.734,0,1,1,2.076,5.058,2.837,2.837,0,0,1-1.039.2,2.737,2.737,0,0,1-2.527-1.693m56.325,1h0a2.733,2.733,0,1,1,1.666-5.206v-.014a2.736,2.736,0,0,1-.832,5.343,2.886,2.886,0,0,1-.834-.123m-43.122-5.548a2.734,2.734,0,1,1,3.211,2.131,2.307,2.307,0,0,1-.547.055,2.727,2.727,0,0,1-2.664-2.185m29.931,2.037a2.7,2.7,0,1,1,.519.055,2.315,2.315,0,0,1-.519-.055m-16.1-3.992a2.734,2.734,0,1,1,5.467-.027,2.751,2.751,0,0,1-2.72,2.747h-.014a2.728,2.728,0,0,1-2.734-2.72" transform="translate(135.099 108.731)" fill="#5780ee"/>
    <path id="Path_49989" data-name="Path 49989" d="M469.265,302.888a2.707,2.707,0,0,1-1.039-.2,2.623,2.623,0,0,1-.888-.6,2.689,2.689,0,0,1-.806-1.927,2.745,2.745,0,0,1,3.267-2.679,2.342,2.342,0,0,1,.521.149,3.292,3.292,0,0,1,.463.261,2.444,2.444,0,0,1,.424.342,2.734,2.734,0,0,1-1.941,4.661" transform="translate(171.117 109.091)" fill="#5780ee"/>
    <path id="Path_49990" data-name="Path 49990" d="M433.125,157.863a70.141,70.141,0,0,1-8.022-.461,68.688,68.688,0,0,1-46.26-25.694l1.6-1.275A67.09,67.09,0,0,0,485.53,46.995l1.6-1.274a69.151,69.151,0,0,1-54.01,112.142" transform="translate(138.955 16.77)" fill="#242526"/>
    <path id="Path_49991" data-name="Path 49991" d="M130.9,330.724l-1.832-.921A67.089,67.089,0,1,0,9.2,269.5l-1.831-.921A69.139,69.139,0,1,1,130.9,330.724" transform="translate(2.704 84.536)" fill="#242526"/>
  </g>
</svg>
