<svg id="Group_30530" data-name="Group 30530" xmlns="http://www.w3.org/2000/svg" xmlns:xlink="http://www.w3.org/1999/xlink" width="18" height="22.803" viewBox="0 0 18 22.803">
  <defs>
    <clipPath id="clip-path">
      <rect id="Rectangle_14416" data-name="Rectangle 14416" width="18" height="22.803" fill="#6265fe"/>
    </clipPath>
  </defs>
  <g id="Group_30529" data-name="Group 30529" transform="translate(0 0)" clip-path="url(#clip-path)">
    <path id="Path_49670" data-name="Path 49670" d="M7.7,13.46,5.169,17.849a.8.8,0,0,1-.69.4h-.1a.805.805,0,0,1-.669-.585l-.574-2.131L1,16.11a.8.8,0,0,1-.834-.287.776.776,0,0,1-.055-.879L2.4,10.981a5.143,5.143,0,0,0,.955.475,5.372,5.372,0,0,0,2.534,1.772,5.215,5.215,0,0,0,1.651.264h.148Z" transform="translate(0 4.54)" fill="#6265fe"/>
    <path id="Path_49671" data-name="Path 49671" d="M12.586,10.965a4.819,4.819,0,0,1-.955.475,5.36,5.36,0,0,1-4.2,2.038h-.15L9.82,17.867a.8.8,0,0,0,.69.4h.106a.8.8,0,0,0,.667-.585l.574-2.131,2.131.574a.8.8,0,0,0,.834-.287.774.774,0,0,0,.055-.878L12.586,11Z" transform="translate(3.012 4.533)" fill="#6265fe"/>
    <path id="Path_49672" data-name="Path 49672" d="M16.379,5.754a3.808,3.808,0,0,0-.712-2.513A3.73,3.73,0,0,0,13.5,1.789,3.772,3.772,0,0,0,8.843.287a3.781,3.781,0,0,0-2.606-.1A3.737,3.737,0,0,0,4.189,1.8a3.746,3.746,0,0,0-2.17,1.44,3.668,3.668,0,0,0-.7,2.507A3.715,3.715,0,0,0,.395,8.2a3.8,3.8,0,0,0,.912,2.451,3.808,3.808,0,0,0,.712,2.513,3.73,3.73,0,0,0,2.17,1.452,3.768,3.768,0,0,0,2.048,1.607,3.723,3.723,0,0,0,2.606-.1,3.781,3.781,0,0,0,1.452.287,3.6,3.6,0,0,0,1.155-.182A3.737,3.737,0,0,0,13.5,14.609a3.746,3.746,0,0,0,2.17-1.44,3.668,3.668,0,0,0,.7-2.507A3.715,3.715,0,0,0,17.291,8.2a3.8,3.8,0,0,0-.912-2.451M11.526,8.31l-.762.746.177,1.049a.79.79,0,0,1-.314.773.836.836,0,0,1-.469.148.742.742,0,0,1-.37-.1l-.944-.5-.944.5a.8.8,0,0,1-.84-.061.777.777,0,0,1-.314-.773l.177-1.049L6.16,8.3a.792.792,0,0,1,.447-1.353L7.656,6.8l.464-.955a.838.838,0,0,1,1.436,0l.464.955,1.049.148a.785.785,0,0,1,.646.536l.011.011a.8.8,0,0,1-.2.817" transform="translate(0.163 0)" fill="#6265fe"/>
  </g>
</svg>
