<svg xmlns="http://www.w3.org/2000/svg" xmlns:xlink="http://www.w3.org/1999/xlink" width="8.131" height="14" viewBox="0 0 8.131 14">
  <defs>
    <clipPath id="clip-path">
      <rect id="Rectangle_14340" data-name="Rectangle 14340" width="8.131" height="14" fill="#fff"/>
    </clipPath>
  </defs>
  <g id="Group_30365" data-name="Group 30365" clip-path="url(#clip-path)">
    <path id="Path_49577" data-name="Path 49577" d="M7.966,7.454c.013-.016.024-.032.035-.048l.015-.022c.009-.015.018-.03.026-.046s.011-.019.015-.028.012-.027.017-.041.01-.024.015-.035S8.1,7.21,8.1,7.2s.009-.027.012-.041,0-.023.006-.035.006-.029.007-.043,0-.025,0-.037,0-.027,0-.041,0-.027,0-.041,0-.025,0-.037,0-.029-.007-.043,0-.023-.006-.035S8.1,6.817,8.1,6.8s-.007-.025-.011-.037-.009-.023-.014-.035-.011-.028-.018-.041-.01-.018-.015-.028-.017-.031-.026-.046L8,6.6c-.011-.017-.023-.033-.035-.049L7.95,6.527c-.013-.016-.027-.032-.042-.047l0-.005L1.736.3A1.12,1.12,0,0,0,.353.19.731.731,0,0,0,.227,1.345L5.871,7,.227,12.655A.731.731,0,0,0,.353,13.81,1.1,1.1,0,0,0,.981,14a1.069,1.069,0,0,0,.755-.295L7.9,7.526l0-.005c.015-.015.028-.03.041-.046l.017-.02" transform="translate(0 0)" fill="#fff"/>
  </g>
</svg>
