<svg xmlns="http://www.w3.org/2000/svg" xmlns:xlink="http://www.w3.org/1999/xlink" width="22" height="22" viewBox="0 0 22 22">
  <defs>
    <clipPath id="clip-path">
      <rect id="Rectangle_14417" data-name="Rectangle 14417" width="22" height="22" transform="translate(-0.217 -0.217)" fill="#6265fe"/>
    </clipPath>
  </defs>
  <g id="Group_30532" data-name="Group 30532" transform="translate(-0.004 -0.004)">
    <g id="Group_30531" data-name="Group 30531" transform="translate(0.222 0.221)" clip-path="url(#clip-path)">
      <path id="Path_49673" data-name="Path 49673" d="M5.6,113.526H6.878a6.878,6.878,0,0,1,6.878,6.878v5.6a.764.764,0,0,1-.764.764H8.915a.764.764,0,0,1-.764-.764v-5.6a1.273,1.273,0,0,0-1.274-1.274H5.6v.764a.764.764,0,0,1-1.267.575L.261,116.9a.763.763,0,0,1,0-1.149l4.076-3.566a.764.764,0,0,1,1.267.575Z" transform="translate(-0.171 -105.035)" fill="#6265fe" fill-rule="evenodd"/>
      <path id="Path_49674" data-name="Path 49674" d="M232,113.531c.085,0,.169,0,.255,0h1.274v-.764a.764.764,0,0,1,1.267-.575l4.076,3.566a.763.763,0,0,1,0,1.149l-4.076,3.566a.764.764,0,0,1-1.267-.575v-.764h-1.274a1.34,1.34,0,0,0-.255.025Z" transform="translate(-217.397 -105.035)" fill="#6265fe" fill-rule="evenodd"/>
      <path id="Path_49675" data-name="Path 49675" d="M105.526,7.745V5.6h-.764a.764.764,0,0,1-.575-1.267L107.754.261a.763.763,0,0,1,1.149,0l3.566,4.076a.764.764,0,0,1-.575,1.267h-.764v6.054a7.9,7.9,0,0,0-5.6-3.913" transform="translate(-97.546 -0.17)" fill="#6265fe" fill-rule="evenodd"/>
    </g>
  </g>
</svg>
