<svg xmlns="http://www.w3.org/2000/svg" xmlns:xlink="http://www.w3.org/1999/xlink" width="24" height="21" viewBox="0 0 24 21">
  <defs>
    <clipPath id="clip-path">
      <rect id="Rectangle_9149" data-name="Rectangle 9149" width="24" height="21" transform="translate(-0.219 0)" fill="#70b32f"/>
    </clipPath>
  </defs>
  <g id="Group_26221" data-name="Group 26221" transform="translate(0.939 -0.858)">
    <g id="Group_22586" data-name="Group 22586" transform="translate(-0.72 0.858)" clip-path="url(#clip-path)">
      <path id="Path_40993" data-name="Path 40993" d="M16.945,2.039A.048.048,0,0,1,16.951,2c.259-.42.533-.873.83-1.363a.811.811,0,0,1,1.1-.283l2.125,1.227a.812.812,0,0,1,.3,1.1c-.282.5-.541.956-.781,1.383a.048.048,0,0,1-.03.023.047.047,0,0,1-.038-.005L16.968,2.07a.047.047,0,0,1-.023-.031M8.5,19.92a.049.049,0,0,0,.06-.022l4.822-8.352a.049.049,0,0,0,0-.052.956.956,0,1,1,.732.422.049.049,0,0,0-.046.025l-4.735,8.2a.05.05,0,0,0,.077.061c2.465-2.346,4.507-5.152,8.483-5.86a.049.049,0,0,0,.041-.049,18.045,18.045,0,0,1,.744-6.468.049.049,0,0,0-.022-.059L14.622,5.438a.049.049,0,0,0-.062.011A18.6,18.6,0,0,1,9.408,9.377a.049.049,0,0,0-.023.054c.836,3.541-.274,6.974-.915,10.433a.049.049,0,0,0,.032.056m6-15.462,0,0,.011.006h0l.618.357,4.5,2.6a.216.216,0,0,0,.291-.078l1.043-1.806h0a.214.214,0,0,0,.019-.161.21.21,0,0,0-.1-.13l-.816-.471L16.548,2.738,15.8,2.3h0l-.021-.011a.216.216,0,0,0-.291.078L14.439,4.175h0a.22.22,0,0,0,.064.282m8.225,16.381H.814a.4.4,0,1,0,0,.792H22.728a.4.4,0,1,0,0-.792" transform="translate(0.009 -0.745)" fill="#70b32f" fill-rule="evenodd"/>
    </g>
  </g>
</svg>
