<svg xmlns="http://www.w3.org/2000/svg" width="18.833" height="18.833" viewBox="0 0 18.833 18.833">
  <g id="sidebar6" transform="translate(-56.429 -495.92)">
    <path id="Path_33881" data-name="Path 33881" d="M18.307,15.153a2.206,2.206,0,0,1-.217.945,3.576,3.576,0,0,1-.589.884A3.907,3.907,0,0,1,16.08,18a4.352,4.352,0,0,1-1.69.329,7.222,7.222,0,0,1-2.825-.633,15.222,15.222,0,0,1-2.981-1.716,24.917,24.917,0,0,1-2.843-2.427,24.626,24.626,0,0,1-2.418-2.834,15.451,15.451,0,0,1-1.7-2.955A7.3,7.3,0,0,1,1,4.935a4.483,4.483,0,0,1,.312-1.673,3.989,3.989,0,0,1,1-1.447A2.539,2.539,0,0,1,4.111,1a1.629,1.629,0,0,1,.7.156,1.413,1.413,0,0,1,.581.485L7.4,4.475a2.966,2.966,0,0,1,.347.607,1.37,1.37,0,0,1,.121.529,1.177,1.177,0,0,1-.182.615,2.948,2.948,0,0,1-.485.615l-.659.685a.464.464,0,0,0-.139.347.787.787,0,0,0,.026.2c.026.069.052.121.069.173a7.192,7.192,0,0,0,.806,1.109c.39.451.806.91,1.257,1.369.468.459.919.884,1.378,1.274a6.651,6.651,0,0,0,1.118.8c.043.017.1.043.156.069a.6.6,0,0,0,.217.035.477.477,0,0,0,.355-.147l.659-.65a2.659,2.659,0,0,1,.624-.485,1.154,1.154,0,0,1,.615-.182,1.383,1.383,0,0,1,.529.113,3.352,3.352,0,0,1,.607.338l2.869,2.037a1.315,1.315,0,0,1,.477.555A1.778,1.778,0,0,1,18.307,15.153Z" transform="translate(56.179 495.67)" fill="none" stroke="#2a45c4" stroke-width="1.5"/>
    <path id="Path_33882" data-name="Path 33882" d="M17.033,7.533a3.437,3.437,0,0,0-1.014-1.967A2.96,2.96,0,0,0,14,4.5" transform="translate(54.446 495.203)" fill="none" stroke="#65e33f" stroke-linecap="round" stroke-linejoin="round" stroke-width="1.5"/>
    <path id="Path_33883" data-name="Path 33883" d="M20.067,7.067A6.062,6.062,0,0,0,14,1" transform="translate(54.446 495.67)" fill="none" stroke="#65e33f" stroke-linecap="round" stroke-linejoin="round" stroke-width="1.5"/>
  </g>
</svg>
