<svg id="Group_30502" data-name="Group 30502" xmlns="http://www.w3.org/2000/svg" xmlns:xlink="http://www.w3.org/1999/xlink" width="14" height="15.686" viewBox="0 0 14 15.686">
  <defs>
    <clipPath id="clip-path">
      <rect id="Rectangle_14404" data-name="Rectangle 14404" width="14" height="15.686" fill="#9ca3af"/>
    </clipPath>
  </defs>
  <g id="Group_30501" data-name="Group 30501" clip-path="url(#clip-path)">
    <path id="Path_49635" data-name="Path 49635" d="M11.435,4.819q.019-.2.019-.412a4.407,4.407,0,0,0-8.814,0q0,.2.017.392A3.278,3.278,0,0,0,0,8.018v4.391a3.277,3.277,0,0,0,3.277,3.277h7.445A3.277,3.277,0,0,0,14,12.409V8.018a3.279,3.279,0,0,0-2.565-3.2M7.8,10.889v.836a.8.8,0,1,1-1.591,0v-.836a1.4,1.4,0,1,1,1.591,0m1.92-6.148H4.38a2.689,2.689,0,1,1,5.336,0" transform="translate(0 0)" fill="#9ca3af"/>
  </g>
</svg>
