<svg xmlns="http://www.w3.org/2000/svg" xmlns:xlink="http://www.w3.org/1999/xlink" width="22.023" height="21.667" viewBox="0 0 22.023 21.667">
  <defs>
    <clipPath id="clip-path">
      <rect id="Rectangle_13552" data-name="Rectangle 13552" width="22.023" height="21.667" fill="#fff"/>
    </clipPath>
  </defs>
  <g id="Group_28712" data-name="Group 28712" transform="translate(0 0)" opacity="0.25">
    <g id="Group_28711" data-name="Group 28711" transform="translate(0 0)" clip-path="url(#clip-path)">
      <path id="Path_47589" data-name="Path 47589" d="M3.595,17.633h.112l3-.277a1.848,1.848,0,0,0,1.1-.523L19.143,5.5a2.792,2.792,0,0,0,0-3.976L18.417.8a2.882,2.882,0,0,0-3.986,0L12.991,2.247,3.116,12.122a1.7,1.7,0,0,0-.512,1.1l-.277,3a1.3,1.3,0,0,0,.367,1.024,1.25,1.25,0,0,0,.9.384M16.433,1.505a1.246,1.246,0,0,1,.9.378l.725.731a1.262,1.262,0,0,1,0,1.8l-.9.9-2.53-2.535.9-.9a1.274,1.274,0,0,1,.9-.378M4.129,13.37a.226.226,0,0,1,.07-.154L13.53,3.874,16.064,6.4,6.727,15.735a.422.422,0,0,1-.149.074l-2.695.246.246-2.695ZM22.023,20.9a.77.77,0,0,1-.768.768H.768a.768.768,0,1,1,0-1.535H21.256a.77.77,0,0,1,.768.768" transform="translate(0 0)" fill="#fff"/>
    </g>
  </g>
</svg>
