<svg xmlns="http://www.w3.org/2000/svg" width="20" height="20" viewBox="0 0 20 20">
  <g id="Group_28933" data-name="Group 28933" transform="translate(0 0)">
    <g id="Group_28934" data-name="Group 28934" transform="translate(0 0)">
      <path id="Path_47655" data-name="Path 47655" d="M17.071,12.929a9.965,9.965,0,0,0-3.8-2.384,5.782,5.782,0,1,0-6.542,0A10.017,10.017,0,0,0,0,20H1.562a8.438,8.438,0,0,1,16.875,0H20a9.935,9.935,0,0,0-2.929-7.071M10,10a4.219,4.219,0,1,1,4.219-4.219A4.224,4.224,0,0,1,10,10" transform="translate(0 0)" fill="#fff"/>
    </g>
  </g>
</svg>
