<svg xmlns="http://www.w3.org/2000/svg" width="21.5" height="21.5" viewBox="0 0 21.5 21.5">
  <g id="Group_16447" data-name="Group 16447" transform="translate(-203.25 -452.25)" opacity="0.3">
    <g id="Group_16445" data-name="Group 16445" transform="translate(203 452)">
      <path id="Path_34395" data-name="Path 34395" d="M21,7q0-6-6-6H7Q1,1,1,7V20a1,1,0,0,0,1,1H15q6,0,6-6V11" fill="none" stroke="#1b3c69" stroke-linecap="round" stroke-linejoin="round" stroke-width="1.5"/>
      <path id="Path_34396" data-name="Path 34396" d="M14.51,10.74l.65-.65a1.539,1.539,0,0,0,.12-.13c.81-.86,1.13-1.87-.12-3.12a2,2,0,0,0-3.25,0L6.72,12.03a1.789,1.789,0,0,0-.43.87l-.28,1.98A.939.939,0,0,0,7.13,16l1.98-.28a1.789,1.789,0,0,0,.87-.43l1.94-1.94" fill="none" stroke="#1b3c69" stroke-linecap="round" stroke-linejoin="round" stroke-width="1.5"/>
      <path id="Path_34397" data-name="Path 34397" d="M11.17,7.58a4.688,4.688,0,0,0,3.25,3.25" fill="none" stroke="#1b3c69" stroke-linecap="round" stroke-linejoin="round" stroke-width="1.5"/>
    </g>
  </g>
</svg>
