<svg xmlns="http://www.w3.org/2000/svg" xmlns:xlink="http://www.w3.org/1999/xlink" width="34" height="34" viewBox="0 0 34 34">
  <defs>
    <linearGradient id="linear-gradient" x1="0.186" y1="0.157" x2="0.873" y2="0.843" gradientUnits="objectBoundingBox">
      <stop offset="0" stop-color="#e0aafe"/>
      <stop offset="1" stop-color="#9c4fdd"/>
    </linearGradient>
  </defs>
  <g id="Group_28848" data-name="Group 28848" transform="translate(-28 -154)">
    <rect id="Rectangle_13557" data-name="Rectangle 13557" width="34" height="34" rx="17" transform="translate(28 154)" fill="url(#linear-gradient)"/>
    <g id="Group_28719" data-name="Group 28719" transform="translate(39 165)">
      <path id="Path_47591" data-name="Path 47591" d="M11.595,162.364a1.328,1.328,0,0,0-.979-.362,1.308,1.308,0,0,0-.713.26L7.14,164.329l0,0a1.882,1.882,0,0,1-2.274,0l0,0L2.1,162.261A1.307,1.307,0,0,0,1.384,162a1.329,1.329,0,0,0-.979.362,1.292,1.292,0,0,0-.405.948v2.806a2.813,2.813,0,0,0,2.812,2.808H9.187A2.813,2.813,0,0,0,12,166.118v-2.806a1.292,1.292,0,0,0-.405-.948" transform="translate(0 -156.926)" fill="#fff"/>
      <path id="Path_47592" data-name="Path 47592" d="M37.5,3.674V2.808A2.814,2.814,0,0,1,40.314,0h4.08a2.814,2.814,0,0,1,2.814,2.808v.866a.469.469,0,0,1-.938,0V2.808A1.876,1.876,0,0,0,44.393.936h-4.08a1.876,1.876,0,0,0-1.876,1.872v.866a.469.469,0,0,1-.938,0" transform="translate(-36.33)" fill="#fff"/>
      <path id="Path_47593" data-name="Path 47593" d="M153.252,80.227a1.11,1.11,0,0,1-.007.131.358.358,0,0,1-.02.088.117.117,0,0,1-.033.049.068.068,0,0,1-.044.016h-.86v.457l.4-.223.035-.017a.251.251,0,0,1,.04-.012q.032-.005.064.045a.355.355,0,0,1,.032.178.664.664,0,0,1-.009.121.3.3,0,0,1-.027.082.177.177,0,0,1-.042.054.326.326,0,0,1-.054.037l-.441.244v.287l.4-.223.035-.017a.245.245,0,0,1,.04-.012q.032-.005.064.045a.355.355,0,0,1,.032.178.665.665,0,0,1-.009.121.3.3,0,0,1-.027.082.176.176,0,0,1-.042.054.328.328,0,0,1-.054.037l-.441.244V83.28a.074.074,0,0,1-.017.048.121.121,0,0,1-.057.035.561.561,0,0,1-.108.021,1.8,1.8,0,0,1-.337,0,.561.561,0,0,1-.108-.021.121.121,0,0,1-.057-.035.074.074,0,0,1-.017-.048v-.616l-.4.22-.035.017a.144.144,0,0,1-.04.009q-.032.005-.064-.049a.436.436,0,0,1-.032-.2.339.339,0,0,1,.036-.178.271.271,0,0,1,.1-.09l.438-.242v-.284l-.4.22-.035.017a.145.145,0,0,1-.04.009q-.032.005-.064-.049a.436.436,0,0,1-.032-.2.339.339,0,0,1,.036-.178.271.271,0,0,1,.1-.09l.438-.242v-.844h-.86a.067.067,0,0,1-.045-.016.124.124,0,0,1-.032-.049.355.355,0,0,1-.02-.088,1.1,1.1,0,0,1-.007-.131,1.168,1.168,0,0,1,.007-.135.358.358,0,0,1,.02-.089.112.112,0,0,1,.032-.048.071.071,0,0,1,.045-.015h2.421a.072.072,0,0,1,.044.015.107.107,0,0,1,.033.048.361.361,0,0,1,.02.089,1.174,1.174,0,0,1,.007.135" transform="translate(-145.914 -77.44)" fill="#fff"/>
    </g>
  </g>
</svg>
