<svg xmlns="http://www.w3.org/2000/svg" width="24.449" height="26.929" viewBox="0 0 24.449 26.929">
  <g id="guilgeeniituuh" transform="translate(-326.867 -602.667)">
    <path id="Path_34429" data-name="Path 34429" d="M17.472,24.654H7.452c-7.2,0-7.2-3.82-7.2-7.2V16.2c0-2.793,0-5.949,5.949-5.949a3.9,3.9,0,0,1,2.818.939,1.017,1.017,0,0,1,.125.113l1.278,1.353a2.9,2.9,0,0,0,4.108,0L15.806,11.3a1.129,1.129,0,0,1,.125-.113,3.844,3.844,0,0,1,2.818-.939c5.949,0,5.949,3.156,5.949,5.949v1.252C24.674,22.236,22.256,24.654,17.472,24.654ZM6.2,12.129c-4.071,0-4.071,1.278-4.071,4.071v1.252c0,3.432,0,5.323,5.323,5.323h10.02c3.732,0,5.323-1.591,5.323-5.323V16.2c0-2.793,0-4.071-4.071-4.071a2.051,2.051,0,0,0-1.628.514l-1.215,1.29a4.694,4.694,0,0,1-6.839,0l-1.215-1.29A2.051,2.051,0,0,0,6.2,12.129Z" transform="translate(326.617 604.942)" fill="#1b3c69"/>
    <path id="Path_34430" data-name="Path 34430" d="M20.724,14.654a.946.946,0,0,1-.939-.939V6.2c0-2.793,0-4.071-4.071-4.071H8.2c-4.071,0-4.071,1.278-4.071,4.071v7.515a.939.939,0,1,1-1.879,0V6.2C2.25,3.406,2.25.25,8.2.25h7.515c5.949,0,5.949,3.156,5.949,5.949v7.515A.946.946,0,0,1,20.724,14.654Z" transform="translate(327.123 602.417)" fill="#1b3c69"/>
    <path id="Path_34431" data-name="Path 34431" d="M12.91,9.359H8.739a.939.939,0,1,1,0-1.879H12.91a.939.939,0,1,1,0,1.879Z" transform="translate(328.524 604.242)" fill="#65e33f"/>
    <path id="Path_34432" data-name="Path 34432" d="M14.172,6.359H7.909a.939.939,0,0,1,0-1.879h6.262a.939.939,0,0,1,0,1.879Z" transform="translate(328.314 603.485)" fill="#65e33f"/>
  </g>
</svg>
