<svg xmlns="http://www.w3.org/2000/svg" width="14.5" height="14.5" viewBox="0 0 14.5 14.5">
  <g id="Group_29267" data-name="Group 29267" transform="translate(-24 -495.5)">
    <path id="Path_47162" data-name="Path 47162" d="M14.5,7.25A7.25,7.25,0,1,1,7.25,0,7.25,7.25,0,0,1,14.5,7.25" transform="translate(24 495.5)" fill="#ff0057"/>
    <path id="Path_47163" data-name="Path 47163" d="M117.762,124.687l3.911,3.911a7.213,7.213,0,0,0,6.312-6.267l-3.934-3.934Z" transform="translate(-89.555 381.333)" fill="#d60049"/>
    <path id="Path_47164" data-name="Path 47164" d="M107.262,104.815a.856.856,0,0,1,0,1.189l-.64.64a.856.856,0,0,1-1.189,0l-5.032-5.032a.856.856,0,0,1,0-1.189l.663-.663a.856.856,0,0,1,1.189,0Z" transform="translate(-72.582 399.536)" fill="#fff"/>
    <path id="Path_47166" data-name="Path 47166" d="M105.433,100.4a.857.857,0,0,1,1.189,0l.663.663a.856.856,0,0,1,0,1.189l-5.054,5.009a.856.856,0,0,1-1.189,0l-.64-.64a.857.857,0,0,1,0-1.189Z" transform="translate(-72.582 398.918)" fill="#fff"/>
  </g>
</svg>
