<svg xmlns="http://www.w3.org/2000/svg" xmlns:xlink="http://www.w3.org/1999/xlink" width="30" height="37" viewBox="0 0 30 37">
  <defs>
    <clipPath id="clip-path">
      <rect id="Rectangle_11483" data-name="Rectangle 11483" width="30" height="37" transform="translate(0 0)" fill="#fff"/>
    </clipPath>
  </defs>
  <g id="Group_26250" data-name="Group 26250" transform="translate(0 0)" clip-path="url(#clip-path)">
    <path id="Path_45138" data-name="Path 45138" d="M25.549,11.269a1.324,1.324,0,0,0-1.943-.005,1.457,1.457,0,0,0,.026,2.022,12.94,12.94,0,0,1,3.639,9.074c0,1.735-4.78,4.256-12.272,4.256S2.726,24.094,2.726,22.357a12.939,12.939,0,0,1,3.6-9.025,1.464,1.464,0,0,0,.011-2.018,1.329,1.329,0,0,0-1.942.012A15.817,15.817,0,0,0,0,22.36c0,4.607,7.728,7.093,15,7.093s15-2.487,15-7.093a15.817,15.817,0,0,0-4.449-11.091" transform="translate(0 7.547)" fill="#fff"/>
    <path id="Path_45139" data-name="Path 45139" d="M12.891,19.929A9.549,9.549,0,0,0,21.71,13.8,10.225,10.225,0,0,0,19.641,2.978,9.279,9.279,0,0,0,9.238.825,9.941,9.941,0,0,0,3.346,10a9.755,9.755,0,0,0,9.545,9.929m0-17.022a6.821,6.821,0,0,1,6.3,4.378,7.3,7.3,0,0,1-1.477,7.729,6.627,6.627,0,0,1-7.43,1.538A7.1,7.1,0,0,1,6.072,10a6.969,6.969,0,0,1,6.818-7.093" transform="translate(2.109 0.048)" fill="#fff"/>
  </g>
</svg>
