<svg xmlns="http://www.w3.org/2000/svg" width="22.49" height="20.581" viewBox="0 0 22.49 20.581">
  <g id="eye2" transform="translate(-392 -404.562)">
    <g id="Group_16089" data-name="Group 16089" transform="translate(1241.004 -90.879)" opacity="0.3">
      <path id="Path_33912" data-name="Path 33912" d="M-844.353,500.161a23.493,23.493,0,0,0-3.906,3.788c-.5.6-.743.9-.745,1.361v.009c0,.458.25.76.745,1.362.092.111.193.23.295.349.057.067.114.133.172.2.229.263.478.54.752.828l.151.155q.342.352.725.716c.192.181.385.36.584.534.082.073.161.145.246.218.234.2.475.392.717.583.09.07.182.138.273.206l.005-.005a13.886,13.886,0,0,0,3.49,1.948l-.006.007a8.948,8.948,0,0,0,3.1.588,9.965,9.965,0,0,0,2.414-.364c.064-.019.129-.035.192-.055.243-.072.478-.166.714-.256.117-.047.238-.086.354-.136l.088-.04c.357-.158.705-.335,1.046-.525.014-.009.03-.014.045-.023Z" fill="#fff"/>
      <path id="Path_33913" data-name="Path 33913" d="M-826.514,505.31c0-.457-.249-.763-.747-1.361a25.324,25.324,0,0,0-2.187-2.335c-.086-.081-.174-.161-.264-.242-.133-.122-.268-.244-.408-.365-.223-.191-.452-.382-.689-.569-.094-.074-.193-.145-.29-.218-.192-.146-.388-.288-.589-.428-.1-.068-.2-.136-.3-.2-.29-.192-.587-.379-.893-.552-.038-.022-.078-.04-.116-.061-.278-.154-.563-.3-.853-.429-.134-.061-.269-.122-.406-.178s-.269-.106-.4-.156c-.155-.057-.309-.114-.466-.163-.1-.033-.209-.06-.313-.09-.194-.054-.388-.108-.586-.15-.04-.009-.081-.014-.121-.022a8.348,8.348,0,0,0-1.616-.165,8.956,8.956,0,0,0-3.1.583l.012.012-.006,0,11.091,11.086c.035-.031.067-.062.1-.092a24.892,24.892,0,0,0,2.4-2.533c.5-.6.745-.9.747-1.362v-.009Z" fill="#fff"/>
    </g>
    <g id="Group_16090" data-name="Group 16090" transform="translate(1241.004 -90.879)">
      <path id="Path_33074" data-name="Path 33074" d="M-832.661,506.394a5.133,5.133,0,0,0-4.008-6.052,5.143,5.143,0,0,0-2.046,0Zm-9.3-3.86a5.129,5.129,0,0,0,1.442,7.109,5.126,5.126,0,0,0,5.668,0Z" fill="#fff" fill-rule="evenodd"/>
    </g>
    <line id="Line_984" data-name="Line 984" x2="19.167" y2="19.167" transform="translate(393.115 405.269)" fill="none" stroke="#fff" stroke-linecap="round" stroke-width="1"/>
  </g>
</svg>
