<svg xmlns="http://www.w3.org/2000/svg" width="22.491" height="15.402" viewBox="0 0 22.491 15.402">
  <g id="eye1" transform="translate(-358 -408)">
    <path id="Path_33914" data-name="Path 33914" d="M-855.477,505.306c0-.46-.247-.766-.747-1.366a19.9,19.9,0,0,0-6.736-5.467l-.088-.039a9.255,9.255,0,0,0-3.676-.82,8.945,8.945,0,0,0-3.107.585l.019.019a13.887,13.887,0,0,0-3.49,1.948l-.014-.014a23.451,23.451,0,0,0-3.906,3.788c-.5.6-.746.906-.746,1.366l0,.009,0,.009c0,.46.246.766.746,1.366a23.491,23.491,0,0,0,3.906,3.788l.014-.014a13.886,13.886,0,0,0,3.49,1.948l-.019.019a8.945,8.945,0,0,0,3.107.585,9.255,9.255,0,0,0,3.676-.82l.088-.039a19.9,19.9,0,0,0,6.736-5.467c.5-.6.747-.906.747-1.366v-.018Z" transform="translate(1235.968 -89.614)" fill="#fff" fill-rule="evenodd" opacity="0.3"/>
    <circle id="Ellipse_1245" data-name="Ellipse 1245" cx="5.13" cy="5.13" r="5.13" transform="translate(364.116 410.571)" fill="#fff"/>
  </g>
</svg>
