<svg xmlns="http://www.w3.org/2000/svg" width="54" height="54" viewBox="0 0 54 54">
  <g id="Group_29377" data-name="Group 29377" transform="translate(-25 -384)">
    <circle id="Ellipse_1720" data-name="Ellipse 1720" cx="27" cy="27" r="27" transform="translate(25 384)" fill="#eaf2f1"/>
    <g id="Group_28241" data-name="Group 28241" transform="translate(40 394.09)">
      <g id="Group_28242" data-name="Group 28242" transform="translate(2 6.91)">
        <path id="Path_47433" data-name="Path 47433" d="M17.071,2.929A10,10,0,0,0,2.929,17.071,10,10,0,0,0,17.071,2.929M3.42,15.878A7.033,7.033,0,0,1,10,11.328a3.516,3.516,0,1,1,3.516-3.516A3.516,3.516,0,0,1,10,11.328a7.033,7.033,0,0,1,6.58,4.55,8.814,8.814,0,0,1-13.16,0" transform="translate(0 0)" fill="#34837b"/>
      </g>
    </g>
  </g>
</svg>
