<svg xmlns="http://www.w3.org/2000/svg" xmlns:xlink="http://www.w3.org/1999/xlink" width="72" height="72" viewBox="0 0 72 72">
  <defs>
    <linearGradient id="linear-gradient" x1="0.091" y1="0.091" x2="0.864" y2="0.894" gradientUnits="objectBoundingBox">
      <stop offset="0" stop-color="#dea8fd"/>
      <stop offset="1" stop-color="#a257e0"/>
    </linearGradient>
  </defs>
  <g id="Group_28849" data-name="Group 28849" transform="translate(-229 -411)">
    <g id="Rectangle_13551" data-name="Rectangle 13551" transform="translate(232 414)" stroke="rgba(255,255,255,0.1)" stroke-width="3" fill="url(#linear-gradient)">
      <rect width="66" height="66" rx="16" stroke="none"/>
      <rect x="-1.5" y="-1.5" width="69" height="69" rx="17.5" fill="none"/>
    </g>
    <g id="Group_28717" data-name="Group 28717" transform="translate(-1.081 23.333)">
      <g id="Polygon_19" data-name="Polygon 19" transform="translate(280.168 413.667) rotate(90)" fill="none">
        <path d="M8.765,1.981a2,2,0,0,1,3.136,0l6.2,7.83a2,2,0,0,1-1.568,3.241H4.134A2,2,0,0,1,2.566,9.811Z" stroke="none"/>
        <path d="M 10.3331413269043 2.722148895263672 C 10.24281120300293 2.722148895263672 10.07176113128662 2.74678897857666 9.941121101379395 2.911799430847168 L 3.742181777954102 10.74204921722412 C 3.572841644287109 10.95593929290771 3.633111953735352 11.16471862792969 3.684101104736328 11.27012920379639 C 3.735101699829102 11.37554931640625 3.861391067504883 11.55238914489746 4.134201049804688 11.55238914489746 L 16.53208160400391 11.55238914489746 C 16.80489158630371 11.55238914489746 16.93118095397949 11.37554931640625 16.98218154907227 11.27012920379639 C 17.03317070007324 11.16471862792969 17.09344100952148 10.95593929290771 16.92410087585449 10.74203872680664 L 10.7251615524292 2.911808967590332 C 10.59452152252197 2.74678897857666 10.42347145080566 2.722148895263672 10.3331413269043 2.722148895263672 M 10.3331413269043 1.222153663635254 C 10.91700172424316 1.222153663635254 11.50086116790771 1.475019454956055 11.90123176574707 1.980749130249023 L 18.10017204284668 9.810989379882812 C 19.13815116882324 11.12211894989014 18.2043514251709 13.05238914489746 16.53208160400391 13.05238914489746 L 4.134201049804688 13.05238914489746 C 2.461931228637695 13.05238914489746 1.528131484985352 11.12211894989014 2.566110610961914 9.810989379882812 L 8.765050888061523 1.980749130249023 C 9.165421485900879 1.475019454956055 9.74928092956543 1.222153663635254 10.3331413269043 1.222153663635254 Z" stroke="none" fill="#fff"/>
      </g>
      <g id="Polygon_20" data-name="Polygon 20" transform="translate(251.081 434.333) rotate(-90)" fill="none">
        <path d="M8.765,1.981a2,2,0,0,1,3.136,0l6.2,7.83a2,2,0,0,1-1.568,3.241H4.134A2,2,0,0,1,2.566,9.811Z" stroke="none"/>
        <path d="M 10.3331413269043 2.722148895263672 C 10.24281120300293 2.722148895263672 10.07176113128662 2.74678897857666 9.941121101379395 2.911799430847168 L 3.742181777954102 10.74204921722412 C 3.572841644287109 10.95593929290771 3.633111953735352 11.16471862792969 3.684101104736328 11.27012920379639 C 3.735101699829102 11.37554931640625 3.861391067504883 11.55238914489746 4.134201049804688 11.55238914489746 L 16.53208160400391 11.55238914489746 C 16.80489158630371 11.55238914489746 16.93118095397949 11.37554931640625 16.98218154907227 11.27012920379639 C 17.03317070007324 11.16471862792969 17.09344100952148 10.95593929290771 16.92410087585449 10.74203872680664 L 10.7251615524292 2.911808967590332 C 10.59452152252197 2.74678897857666 10.42347145080566 2.722148895263672 10.3331413269043 2.722148895263672 M 10.3331413269043 1.222153663635254 C 10.91700172424316 1.222153663635254 11.50086116790771 1.475019454956055 11.90123176574707 1.980749130249023 L 18.10017204284668 9.810989379882812 C 19.13815116882324 11.12211894989014 18.2043514251709 13.05238914489746 16.53208160400391 13.05238914489746 L 4.134201049804688 13.05238914489746 C 2.461931228637695 13.05238914489746 1.528131484985352 11.12211894989014 2.566110610961914 9.810989379882812 L 8.765050888061523 1.980749130249023 C 9.165421485900879 1.475019454956055 9.74928092956543 1.222153663635254 10.3331413269043 1.222153663635254 Z" stroke="none" fill="#fff"/>
      </g>
    </g>
  </g>
</svg>
