<svg xmlns="http://www.w3.org/2000/svg" xmlns:xlink="http://www.w3.org/1999/xlink" width="46" height="46" viewBox="0 0 46 46">
  <defs>
    <linearGradient id="linear-gradient" x1="0.091" y1="0.091" x2="0.864" y2="0.894" gradientUnits="objectBoundingBox">
      <stop offset="0" stop-color="#ffe2e0"/>
      <stop offset="1" stop-color="#ff9893"/>
    </linearGradient>
  </defs>
  <g id="Group_29818" data-name="Group 29818" transform="translate(-228 -485)">
    <g id="Rectangle_13551" data-name="Rectangle 13551" transform="translate(231 488)" stroke="rgba(255,255,255,0.1)" stroke-width="3" fill="url(#linear-gradient)">
      <rect width="40" height="40" rx="20" stroke="none"/>
      <rect x="-1.5" y="-1.5" width="43" height="43" rx="21.5" fill="none"/>
    </g>
    <g id="Group_28717" data-name="Group 28717" transform="translate(-11.081 86.333)">
      <g id="Polygon_19" data-name="Polygon 19" transform="translate(273.131 413.667) rotate(90)" fill="none">
        <path d="M6.265,1.981a2,2,0,0,1,3.136,0l3.7,4.673a2,2,0,0,1-1.568,3.241h-7.4A2,2,0,0,1,2.566,6.653Z" stroke="none"/>
        <path d="M 7.833389282226562 2.222147941589355 C 7.525949478149414 2.222147941589355 7.240179061889648 2.360398292541504 7.049348831176758 2.601448059082031 L 3.350159645080566 7.27409839630127 C 3.106429100036621 7.581968307495117 3.063009262084961 7.976808547973633 3.234009742736816 8.33029842376709 C 3.405009269714355 8.683778762817383 3.74152946472168 8.894807815551758 4.134199142456055 8.894807815551758 L 11.53257942199707 8.894807815551758 C 11.92524909973145 8.894807815551758 12.26176929473877 8.683778762817383 12.43276977539062 8.33029842376709 C 12.60376930236816 7.976808547973633 12.5603494644165 7.581968307495117 12.31661987304688 7.27409839630127 L 8.617429733276367 2.601448059082031 C 8.426599502563477 2.360398292541504 8.140829086303711 2.222147941589355 7.833389282226562 2.222147941589355 M 7.833389282226562 1.222153663635254 C 8.41724967956543 1.222153663635254 9.00110912322998 1.475018501281738 9.401479721069336 1.980748176574707 L 13.10066986083984 6.653398513793945 C 14.13864898681641 7.96453857421875 13.2048397064209 9.894807815551758 11.53257942199707 9.894807815551758 L 4.134199142456055 9.894807815551758 C 2.461938858032227 9.894807815551758 1.528129577636719 7.96453857421875 2.566109657287598 6.653398513793945 L 6.265298843383789 1.980748176574707 C 6.665669441223145 1.475018501281738 7.249528884887695 1.222153663635254 7.833389282226562 1.222153663635254 Z" stroke="none" fill="#000"/>
      </g>
      <g id="Polygon_20" data-name="Polygon 20" transform="translate(251.081 429.333) rotate(-90)" fill="none">
        <path d="M6.265,1.981a2,2,0,0,1,3.136,0l3.7,4.673a2,2,0,0,1-1.568,3.241h-7.4A2,2,0,0,1,2.566,6.653Z" stroke="none"/>
        <path d="M 7.833389282226562 2.222147941589355 C 7.525949478149414 2.222147941589355 7.240179061889648 2.360398292541504 7.049348831176758 2.601448059082031 L 3.350159645080566 7.27409839630127 C 3.106429100036621 7.581968307495117 3.063009262084961 7.976808547973633 3.234009742736816 8.33029842376709 C 3.405009269714355 8.683778762817383 3.74152946472168 8.894807815551758 4.134199142456055 8.894807815551758 L 11.53257942199707 8.894807815551758 C 11.92524909973145 8.894807815551758 12.26176929473877 8.683778762817383 12.43276977539062 8.33029842376709 C 12.60376930236816 7.976808547973633 12.5603494644165 7.581968307495117 12.31661987304688 7.27409839630127 L 8.617429733276367 2.601448059082031 C 8.426599502563477 2.360398292541504 8.140829086303711 2.222147941589355 7.833389282226562 2.222147941589355 M 7.833389282226562 1.222153663635254 C 8.41724967956543 1.222153663635254 9.00110912322998 1.475018501281738 9.401479721069336 1.980748176574707 L 13.10066986083984 6.653398513793945 C 14.13864898681641 7.96453857421875 13.2048397064209 9.894807815551758 11.53257942199707 9.894807815551758 L 4.134199142456055 9.894807815551758 C 2.461938858032227 9.894807815551758 1.528129577636719 7.96453857421875 2.566109657287598 6.653398513793945 L 6.265298843383789 1.980748176574707 C 6.665669441223145 1.475018501281738 7.249528884887695 1.222153663635254 7.833389282226562 1.222153663635254 Z" stroke="none" fill="#000"/>
      </g>
    </g>
  </g>
</svg>
