<svg xmlns="http://www.w3.org/2000/svg" width="26" height="26" viewBox="0 0 26 26">
  <g id="Group_28859" data-name="Group 28859" transform="translate(-201.5 -723.333)">
    <ellipse id="Ellipse_1725" data-name="Ellipse 1725" cx="13" cy="13" rx="13" ry="13" transform="translate(201.5 723.333)" fill="#222630"/>
    <g id="Group_28813" data-name="Group 28813" transform="translate(201.5 723.333)">
      <g id="Component_13_25" data-name="Component 13 – 25" transform="translate(0.001 0)">
        <path id="Path_47628" data-name="Path 47628" d="M24.805,11.7A1.233,1.233,0,0,0,23.5,13,10.444,10.444,0,0,1,2.611,13,10.2,10.2,0,0,1,5.617,5.722,9.986,9.986,0,0,1,13.055,2.6a16.294,16.294,0,0,1,2.482.257A1.315,1.315,0,0,0,17.23,1.95c.266-.778-.258-1.3-.91-1.556h-.129A12.7,12.7,0,0,0,13.055,0,13.039,13.039,0,0,0,3.788,22.228,12.871,12.871,0,0,0,12.927,26,13.066,13.066,0,0,0,25.982,13a1.137,1.137,0,0,0-1.177-1.3" transform="translate(25.999 25.999) rotate(180)" fill="#8ee95d" opacity="0.15"/>
      </g>
      <g id="Path_47629" data-name="Path 47629" transform="translate(7.444 7.46)">
        <path id="Path_47629-2" data-name="Path 47629" d="M-770.1,4837.5a1.133,1.133,0,0,1-.745-.278l-3.421-2.978a1.119,1.119,0,0,1-.105-1.586,1.136,1.136,0,0,1,1.6-.1l2.609,2.272c1.6-1.651,5.319-5.489,6.773-6.983a1.136,1.136,0,0,1,1.6-.026,1.119,1.119,0,0,1,.026,1.589c-1.865,1.915-7.462,7.692-7.518,7.751A1.132,1.132,0,0,1-770.1,4837.5Z" transform="translate(774.656 -4827.5)" fill="#8ee95d"/>
      </g>
      <g id="Component_12_25" data-name="Component 12 – 25" transform="translate(0 0)">
        <path id="Path_47627" data-name="Path 47627" d="M24.805,11.7A1.233,1.233,0,0,0,23.5,13,10.444,10.444,0,0,1,2.611,13,10.2,10.2,0,0,1,5.617,5.722,9.986,9.986,0,0,1,13.055,2.6a16.294,16.294,0,0,1,2.482.257A1.315,1.315,0,0,0,17.23,1.95c.266-.778-.258-1.3-.91-1.556h-.129A12.7,12.7,0,0,0,13.055,0,13.039,13.039,0,0,0,3.788,22.228,12.871,12.871,0,0,0,12.927,26,13.066,13.066,0,0,0,25.982,13a1.137,1.137,0,0,0-1.177-1.3" fill="#8ee95d"/>
      </g>
    </g>
  </g>
</svg>
