<svg id="trust_me_heh" data-name="trust me heh" xmlns="http://www.w3.org/2000/svg" xmlns:xlink="http://www.w3.org/1999/xlink" width="43.533" height="39.29" viewBox="0 0 43.533 39.29">
  <defs>
    <clipPath id="clip-path">
      <rect id="Rectangle_14590" data-name="Rectangle 14590" width="43.533" height="39.29" fill="none"/>
    </clipPath>
  </defs>
  <g id="Group_30663" data-name="Group 30663" clip-path="url(#clip-path)">
    <path id="Path_50003" data-name="Path 50003" d="M40.772,261.586a.85.85,0,1,0,.85.85.851.851,0,0,0-.85-.85" transform="translate(-36.521 -239.301)" fill="#6265fe"/>
    <path id="Path_50004" data-name="Path 50004" d="M39.079,228.014l-8.016,2.756a3.393,3.393,0,0,0-3.346-4H22.212a.848.848,0,0,1-.418-.109L17.3,224.13a5.957,5.957,0,0,0-2.919-.765H8.356a2.554,2.554,0,0,0-2.4-1.7H.85a.85.85,0,0,0-.85.85v15.3a.85.85,0,0,0,.85.85h5.1a2.556,2.556,0,0,0,2.38-1.637,7.764,7.764,0,0,1,2.776.824l4.447,2.668a10.837,10.837,0,0,0,10.062.574l15.87-6.988a3.278,3.278,0,0,0-2.407-6.1M6.8,236.122a.851.851,0,0,1-.85.846H1.7v-13.6H5.952a.851.851,0,0,1,.85.85Zm34.039-3.584-.027.011-15.9,7a9.137,9.137,0,0,1-8.488-.482L11.983,236.4A9.373,9.373,0,0,0,8.5,235.34V225.065h5.881a4.254,4.254,0,0,1,2.085.546l4.492,2.526a2.553,2.553,0,0,0,1.252.328h5.506a1.7,1.7,0,0,1,0,3.4H19.075a.85.85,0,1,0,0,1.7h8.643a3.4,3.4,0,0,0,1.594-.4l10.338-3.554a1.578,1.578,0,1,1,1.19,2.923" transform="translate(0 -202.78)" fill="#6265fe"/>
    <path id="Path_50005" data-name="Path 50005" d="M170.8,20.624a.85.85,0,0,0,1.114,0c6.937-6.012,11.228-9.055,11.228-13.783,0-3.74-2.648-6.84-6.368-6.84a6.3,6.3,0,0,0-5.519,3.522A6.183,6.183,0,0,0,159.672,4.7a.85.85,0,1,0,1.632.478,4.614,4.614,0,0,1,4.434-3.48c2.426,0,4.127,2.154,4.7,4.159a.85.85,0,0,0,1.639,0c.012-.042,1.193-4.159,4.7-4.159,2.661,0,4.668,2.209,4.668,5.14,0,3.782-3.7,6.509-10.086,12.017-3.892-3.343-6.984-5.7-8.741-8a.85.85,0,1,0-1.352,1.032c1.981,2.594,5.325,5.08,9.537,8.731" transform="translate(-146.037)" fill="#fff"/>
    <path id="Path_50006" data-name="Path 50006" d="M159.541,87.926a.85.85,0,1,0,.85.85.851.851,0,0,0-.85-.85" transform="translate(-145.172 -80.435)" fill="#fff"/>
  </g>
</svg>
