<svg xmlns="http://www.w3.org/2000/svg" xmlns:xlink="http://www.w3.org/1999/xlink" width="24" height="21" viewBox="0 0 24 21">
  <defs>
    <clipPath id="clip-path">
      <rect id="Rectangle_13672" data-name="Rectangle 13672" width="23.055" height="21" transform="translate(0 0)" fill="none"/>
    </clipPath>
  </defs>
  <g id="Group_28868" data-name="Group 28868" transform="translate(-370 -781)">
    <g id="Group_28867" data-name="Group 28867" transform="translate(370 781)">
      <path id="Path_47645" data-name="Path 47645" d="M14.782,2.4a3.189,3.189,0,0,0-5.471,0L.513,16.809a3.214,3.214,0,0,0,2.736,4.882h17.6a3.214,3.214,0,0,0,2.736-4.882Z" transform="translate(-0.047 -0.715)" fill="#ff0a4d"/>
      <g id="Group_28866" data-name="Group 28866" transform="translate(0.288 0)" clip-path="url(#clip-path)">
        <path id="Path_47646" data-name="Path 47646" d="M160.835,105.722a.849.849,0,0,1-.835-.84V99.84a.835.835,0,1,1,1.669,0v5.042a.849.849,0,0,1-.835.84" transform="translate(-149.138 -92.005)" fill="#fff"/>
        <path id="Path_47647" data-name="Path 47647" d="M158.226,208.12a1.113,1.113,0,1,1-1.113-1.12,1.117,1.117,0,0,1,1.113,1.12" transform="translate(-145.417 -192.442)" fill="#fff"/>
      </g>
    </g>
  </g>
</svg>
